<?xml version="1.0" encoding="utf-8" standalone="no"?>
<!DOCTYPE svg PUBLIC "-//W3C//DTD SVG 1.1//EN"
  "http://www.w3.org/Graphics/SVG/1.1/DTD/svg11.dtd">
<svg xmlns:xlink="http://www.w3.org/1999/xlink" width="1105.92pt" height="548.928pt" viewBox="0 0 1105.92 548.928" xmlns="http://www.w3.org/2000/svg" version="1.1">
 <metadata>
  <rdf:RDF xmlns:dc="http://purl.org/dc/elements/1.1/" xmlns:cc="http://creativecommons.org/ns#" xmlns:rdf="http://www.w3.org/1999/02/22-rdf-syntax-ns#">
   <cc:Work>
    <dc:type rdf:resource="http://purl.org/dc/dcmitype/StillImage"/>
    <dc:date>2024-10-30T03:19:13.455873</dc:date>
    <dc:format>image/svg+xml</dc:format>
    <dc:creator>
     <cc:Agent>
      <dc:title>Matplotlib v3.9.2, https://matplotlib.org/</dc:title>
     </cc:Agent>
    </dc:creator>
   </cc:Work>
  </rdf:RDF>
 </metadata>
 <defs>
  <style type="text/css">*{stroke-linejoin: round; stroke-linecap: butt}</style>
 </defs>
 <g id="figure_1">
  <g id="patch_1">
   <path d="M 0 548.928 
L 1105.92 548.928 
L 1105.92 0 
L 0 0 
z
" style="fill: #ffffff"/>
  </g>
  <g id="axes_1">
   <g id="patch_2">
    <path d="M 138.24 488.54592 
L 995.328 488.54592 
L 995.328 65.87136 
L 138.24 65.87136 
z
" style="fill: #ffffff"/>
   </g>
   <g id="matplotlib.axis_1">
    <g id="xtick_1">
     <g id="line2d_1">
      <defs>
       <path id="m2309b6b55d" d="M 0 0 
L 0 3.5 
" style="stroke: #000000; stroke-width: 0.8"/>
      </defs>
      <g>
       <use xlink:href="#m2309b6b55d" x="242.95618" y="488.54592" style="stroke: #000000; stroke-width: 0.8"/>
      </g>
     </g>
     <g id="text_1">
      <!-- 20000 -->
      <g transform="translate(227.04993 503.144358) scale(0.1 -0.1)">
       <defs>
        <path id="DejaVuSans-32" d="M 1228 531 
L 3431 531 
L 3431 0 
L 469 0 
L 469 531 
Q 828 903 1448 1529 
Q 2069 2156 2228 2338 
Q 2531 2678 2651 2914 
Q 2772 3150 2772 3378 
Q 2772 3750 2511 3984 
Q 2250 4219 1831 4219 
Q 1534 4219 1204 4116 
Q 875 4013 500 3803 
L 500 4441 
Q 881 4594 1212 4672 
Q 1544 4750 1819 4750 
Q 2544 4750 2975 4387 
Q 3406 4025 3406 3419 
Q 3406 3131 3298 2873 
Q 3191 2616 2906 2266 
Q 2828 2175 2409 1742 
Q 1991 1309 1228 531 
z
" transform="scale(0.015625)"/>
        <path id="DejaVuSans-30" d="M 2034 4250 
Q 1547 4250 1301 3770 
Q 1056 3291 1056 2328 
Q 1056 1369 1301 889 
Q 1547 409 2034 409 
Q 2525 409 2770 889 
Q 3016 1369 3016 2328 
Q 3016 3291 2770 3770 
Q 2525 4250 2034 4250 
z
M 2034 4750 
Q 2819 4750 3233 4129 
Q 3647 3509 3647 2328 
Q 3647 1150 3233 529 
Q 2819 -91 2034 -91 
Q 1250 -91 836 529 
Q 422 1150 422 2328 
Q 422 3509 836 4129 
Q 1250 4750 2034 4750 
z
" transform="scale(0.015625)"/>
       </defs>
       <use xlink:href="#DejaVuSans-32"/>
       <use xlink:href="#DejaVuSans-30" x="63.623047"/>
       <use xlink:href="#DejaVuSans-30" x="127.246094"/>
       <use xlink:href="#DejaVuSans-30" x="190.869141"/>
       <use xlink:href="#DejaVuSans-30" x="254.492188"/>
      </g>
     </g>
    </g>
    <g id="xtick_2">
     <g id="line2d_2">
      <g>
       <use xlink:href="#m2309b6b55d" x="352.698562" y="488.54592" style="stroke: #000000; stroke-width: 0.8"/>
      </g>
     </g>
     <g id="text_2">
      <!-- 40000 -->
      <g transform="translate(336.792312 503.144358) scale(0.1 -0.1)">
       <defs>
        <path id="DejaVuSans-34" d="M 2419 4116 
L 825 1625 
L 2419 1625 
L 2419 4116 
z
M 2253 4666 
L 3047 4666 
L 3047 1625 
L 3713 1625 
L 3713 1100 
L 3047 1100 
L 3047 0 
L 2419 0 
L 2419 1100 
L 313 1100 
L 313 1709 
L 2253 4666 
z
" transform="scale(0.015625)"/>
       </defs>
       <use xlink:href="#DejaVuSans-34"/>
       <use xlink:href="#DejaVuSans-30" x="63.623047"/>
       <use xlink:href="#DejaVuSans-30" x="127.246094"/>
       <use xlink:href="#DejaVuSans-30" x="190.869141"/>
       <use xlink:href="#DejaVuSans-30" x="254.492188"/>
      </g>
     </g>
    </g>
    <g id="xtick_3">
     <g id="line2d_3">
      <g>
       <use xlink:href="#m2309b6b55d" x="462.440944" y="488.54592" style="stroke: #000000; stroke-width: 0.8"/>
      </g>
     </g>
     <g id="text_3">
      <!-- 60000 -->
      <g transform="translate(446.534694 503.144358) scale(0.1 -0.1)">
       <defs>
        <path id="DejaVuSans-36" d="M 2113 2584 
Q 1688 2584 1439 2293 
Q 1191 2003 1191 1497 
Q 1191 994 1439 701 
Q 1688 409 2113 409 
Q 2538 409 2786 701 
Q 3034 994 3034 1497 
Q 3034 2003 2786 2293 
Q 2538 2584 2113 2584 
z
M 3366 4563 
L 3366 3988 
Q 3128 4100 2886 4159 
Q 2644 4219 2406 4219 
Q 1781 4219 1451 3797 
Q 1122 3375 1075 2522 
Q 1259 2794 1537 2939 
Q 1816 3084 2150 3084 
Q 2853 3084 3261 2657 
Q 3669 2231 3669 1497 
Q 3669 778 3244 343 
Q 2819 -91 2113 -91 
Q 1303 -91 875 529 
Q 447 1150 447 2328 
Q 447 3434 972 4092 
Q 1497 4750 2381 4750 
Q 2619 4750 2861 4703 
Q 3103 4656 3366 4563 
z
" transform="scale(0.015625)"/>
       </defs>
       <use xlink:href="#DejaVuSans-36"/>
       <use xlink:href="#DejaVuSans-30" x="63.623047"/>
       <use xlink:href="#DejaVuSans-30" x="127.246094"/>
       <use xlink:href="#DejaVuSans-30" x="190.869141"/>
       <use xlink:href="#DejaVuSans-30" x="254.492188"/>
      </g>
     </g>
    </g>
    <g id="xtick_4">
     <g id="line2d_4">
      <g>
       <use xlink:href="#m2309b6b55d" x="572.183325" y="488.54592" style="stroke: #000000; stroke-width: 0.8"/>
      </g>
     </g>
     <g id="text_4">
      <!-- 80000 -->
      <g transform="translate(556.277075 503.144358) scale(0.1 -0.1)">
       <defs>
        <path id="DejaVuSans-38" d="M 2034 2216 
Q 1584 2216 1326 1975 
Q 1069 1734 1069 1313 
Q 1069 891 1326 650 
Q 1584 409 2034 409 
Q 2484 409 2743 651 
Q 3003 894 3003 1313 
Q 3003 1734 2745 1975 
Q 2488 2216 2034 2216 
z
M 1403 2484 
Q 997 2584 770 2862 
Q 544 3141 544 3541 
Q 544 4100 942 4425 
Q 1341 4750 2034 4750 
Q 2731 4750 3128 4425 
Q 3525 4100 3525 3541 
Q 3525 3141 3298 2862 
Q 3072 2584 2669 2484 
Q 3125 2378 3379 2068 
Q 3634 1759 3634 1313 
Q 3634 634 3220 271 
Q 2806 -91 2034 -91 
Q 1263 -91 848 271 
Q 434 634 434 1313 
Q 434 1759 690 2068 
Q 947 2378 1403 2484 
z
M 1172 3481 
Q 1172 3119 1398 2916 
Q 1625 2713 2034 2713 
Q 2441 2713 2670 2916 
Q 2900 3119 2900 3481 
Q 2900 3844 2670 4047 
Q 2441 4250 2034 4250 
Q 1625 4250 1398 4047 
Q 1172 3844 1172 3481 
z
" transform="scale(0.015625)"/>
       </defs>
       <use xlink:href="#DejaVuSans-38"/>
       <use xlink:href="#DejaVuSans-30" x="63.623047"/>
       <use xlink:href="#DejaVuSans-30" x="127.246094"/>
       <use xlink:href="#DejaVuSans-30" x="190.869141"/>
       <use xlink:href="#DejaVuSans-30" x="254.492188"/>
      </g>
     </g>
    </g>
    <g id="xtick_5">
     <g id="line2d_5">
      <g>
       <use xlink:href="#m2309b6b55d" x="681.925707" y="488.54592" style="stroke: #000000; stroke-width: 0.8"/>
      </g>
     </g>
     <g id="text_5">
      <!-- 100000 -->
      <g transform="translate(662.838207 503.144358) scale(0.1 -0.1)">
       <defs>
        <path id="DejaVuSans-31" d="M 794 531 
L 1825 531 
L 1825 4091 
L 703 3866 
L 703 4441 
L 1819 4666 
L 2450 4666 
L 2450 531 
L 3481 531 
L 3481 0 
L 794 0 
L 794 531 
z
" transform="scale(0.015625)"/>
       </defs>
       <use xlink:href="#DejaVuSans-31"/>
       <use xlink:href="#DejaVuSans-30" x="63.623047"/>
       <use xlink:href="#DejaVuSans-30" x="127.246094"/>
       <use xlink:href="#DejaVuSans-30" x="190.869141"/>
       <use xlink:href="#DejaVuSans-30" x="254.492188"/>
       <use xlink:href="#DejaVuSans-30" x="318.115234"/>
      </g>
     </g>
    </g>
    <g id="xtick_6">
     <g id="line2d_6">
      <g>
       <use xlink:href="#m2309b6b55d" x="791.668088" y="488.54592" style="stroke: #000000; stroke-width: 0.8"/>
      </g>
     </g>
     <g id="text_6">
      <!-- 120000 -->
      <g transform="translate(772.580588 503.144358) scale(0.1 -0.1)">
       <use xlink:href="#DejaVuSans-31"/>
       <use xlink:href="#DejaVuSans-32" x="63.623047"/>
       <use xlink:href="#DejaVuSans-30" x="127.246094"/>
       <use xlink:href="#DejaVuSans-30" x="190.869141"/>
       <use xlink:href="#DejaVuSans-30" x="254.492188"/>
       <use xlink:href="#DejaVuSans-30" x="318.115234"/>
      </g>
     </g>
    </g>
    <g id="xtick_7">
     <g id="line2d_7">
      <g>
       <use xlink:href="#m2309b6b55d" x="901.41047" y="488.54592" style="stroke: #000000; stroke-width: 0.8"/>
      </g>
     </g>
     <g id="text_7">
      <!-- 140000 -->
      <g transform="translate(882.32297 503.144358) scale(0.1 -0.1)">
       <use xlink:href="#DejaVuSans-31"/>
       <use xlink:href="#DejaVuSans-34" x="63.623047"/>
       <use xlink:href="#DejaVuSans-30" x="127.246094"/>
       <use xlink:href="#DejaVuSans-30" x="190.869141"/>
       <use xlink:href="#DejaVuSans-30" x="254.492188"/>
       <use xlink:href="#DejaVuSans-30" x="318.115234"/>
      </g>
     </g>
    </g>
    <g id="text_8">
     <!-- Timestep -->
     <g transform="translate(543.734781 516.822482) scale(0.1 -0.1)">
      <defs>
       <path id="DejaVuSans-54" d="M -19 4666 
L 3928 4666 
L 3928 4134 
L 2272 4134 
L 2272 0 
L 1638 0 
L 1638 4134 
L -19 4134 
L -19 4666 
z
" transform="scale(0.015625)"/>
       <path id="DejaVuSans-69" d="M 603 3500 
L 1178 3500 
L 1178 0 
L 603 0 
L 603 3500 
z
M 603 4863 
L 1178 4863 
L 1178 4134 
L 603 4134 
L 603 4863 
z
" transform="scale(0.015625)"/>
       <path id="DejaVuSans-6d" d="M 3328 2828 
Q 3544 3216 3844 3400 
Q 4144 3584 4550 3584 
Q 5097 3584 5394 3201 
Q 5691 2819 5691 2113 
L 5691 0 
L 5113 0 
L 5113 2094 
Q 5113 2597 4934 2840 
Q 4756 3084 4391 3084 
Q 3944 3084 3684 2787 
Q 3425 2491 3425 1978 
L 3425 0 
L 2847 0 
L 2847 2094 
Q 2847 2600 2669 2842 
Q 2491 3084 2119 3084 
Q 1678 3084 1418 2786 
Q 1159 2488 1159 1978 
L 1159 0 
L 581 0 
L 581 3500 
L 1159 3500 
L 1159 2956 
Q 1356 3278 1631 3431 
Q 1906 3584 2284 3584 
Q 2666 3584 2933 3390 
Q 3200 3197 3328 2828 
z
" transform="scale(0.015625)"/>
       <path id="DejaVuSans-65" d="M 3597 1894 
L 3597 1613 
L 953 1613 
Q 991 1019 1311 708 
Q 1631 397 2203 397 
Q 2534 397 2845 478 
Q 3156 559 3463 722 
L 3463 178 
Q 3153 47 2828 -22 
Q 2503 -91 2169 -91 
Q 1331 -91 842 396 
Q 353 884 353 1716 
Q 353 2575 817 3079 
Q 1281 3584 2069 3584 
Q 2775 3584 3186 3129 
Q 3597 2675 3597 1894 
z
M 3022 2063 
Q 3016 2534 2758 2815 
Q 2500 3097 2075 3097 
Q 1594 3097 1305 2825 
Q 1016 2553 972 2059 
L 3022 2063 
z
" transform="scale(0.015625)"/>
       <path id="DejaVuSans-73" d="M 2834 3397 
L 2834 2853 
Q 2591 2978 2328 3040 
Q 2066 3103 1784 3103 
Q 1356 3103 1142 2972 
Q 928 2841 928 2578 
Q 928 2378 1081 2264 
Q 1234 2150 1697 2047 
L 1894 2003 
Q 2506 1872 2764 1633 
Q 3022 1394 3022 966 
Q 3022 478 2636 193 
Q 2250 -91 1575 -91 
Q 1294 -91 989 -36 
Q 684 19 347 128 
L 347 722 
Q 666 556 975 473 
Q 1284 391 1588 391 
Q 1994 391 2212 530 
Q 2431 669 2431 922 
Q 2431 1156 2273 1281 
Q 2116 1406 1581 1522 
L 1381 1569 
Q 847 1681 609 1914 
Q 372 2147 372 2553 
Q 372 3047 722 3315 
Q 1072 3584 1716 3584 
Q 2034 3584 2315 3537 
Q 2597 3491 2834 3397 
z
" transform="scale(0.015625)"/>
       <path id="DejaVuSans-74" d="M 1172 4494 
L 1172 3500 
L 2356 3500 
L 2356 3053 
L 1172 3053 
L 1172 1153 
Q 1172 725 1289 603 
Q 1406 481 1766 481 
L 2356 481 
L 2356 0 
L 1766 0 
Q 1100 0 847 248 
Q 594 497 594 1153 
L 594 3053 
L 172 3053 
L 172 3500 
L 594 3500 
L 594 4494 
L 1172 4494 
z
" transform="scale(0.015625)"/>
       <path id="DejaVuSans-70" d="M 1159 525 
L 1159 -1331 
L 581 -1331 
L 581 3500 
L 1159 3500 
L 1159 2969 
Q 1341 3281 1617 3432 
Q 1894 3584 2278 3584 
Q 2916 3584 3314 3078 
Q 3713 2572 3713 1747 
Q 3713 922 3314 415 
Q 2916 -91 2278 -91 
Q 1894 -91 1617 61 
Q 1341 213 1159 525 
z
M 3116 1747 
Q 3116 2381 2855 2742 
Q 2594 3103 2138 3103 
Q 1681 3103 1420 2742 
Q 1159 2381 1159 1747 
Q 1159 1113 1420 752 
Q 1681 391 2138 391 
Q 2594 391 2855 752 
Q 3116 1113 3116 1747 
z
" transform="scale(0.015625)"/>
      </defs>
      <use xlink:href="#DejaVuSans-54"/>
      <use xlink:href="#DejaVuSans-69" x="57.958984"/>
      <use xlink:href="#DejaVuSans-6d" x="85.742188"/>
      <use xlink:href="#DejaVuSans-65" x="183.154297"/>
      <use xlink:href="#DejaVuSans-73" x="244.677734"/>
      <use xlink:href="#DejaVuSans-74" x="296.777344"/>
      <use xlink:href="#DejaVuSans-65" x="335.986328"/>
      <use xlink:href="#DejaVuSans-70" x="397.509766"/>
     </g>
    </g>
   </g>
   <g id="matplotlib.axis_2">
    <g id="ytick_1">
     <g id="line2d_8">
      <defs>
       <path id="m5fe2bbe49c" d="M 0 0 
L -3.5 0 
" style="stroke: #000000; stroke-width: 0.8"/>
      </defs>
      <g>
       <use xlink:href="#m5fe2bbe49c" x="138.24" y="429.686862" style="stroke: #000000; stroke-width: 0.8"/>
      </g>
     </g>
     <g id="text_9">
      <!-- 100 -->
      <g transform="translate(112.1525 433.486081) scale(0.1 -0.1)">
       <use xlink:href="#DejaVuSans-31"/>
       <use xlink:href="#DejaVuSans-30" x="63.623047"/>
       <use xlink:href="#DejaVuSans-30" x="127.246094"/>
      </g>
     </g>
    </g>
    <g id="ytick_2">
     <g id="line2d_9">
      <g>
       <use xlink:href="#m5fe2bbe49c" x="138.24" y="343.536107" style="stroke: #000000; stroke-width: 0.8"/>
      </g>
     </g>
     <g id="text_10">
      <!-- 200 -->
      <g transform="translate(112.1525 347.335325) scale(0.1 -0.1)">
       <use xlink:href="#DejaVuSans-32"/>
       <use xlink:href="#DejaVuSans-30" x="63.623047"/>
       <use xlink:href="#DejaVuSans-30" x="127.246094"/>
      </g>
     </g>
    </g>
    <g id="ytick_3">
     <g id="line2d_10">
      <g>
       <use xlink:href="#m5fe2bbe49c" x="138.24" y="257.385351" style="stroke: #000000; stroke-width: 0.8"/>
      </g>
     </g>
     <g id="text_11">
      <!-- 300 -->
      <g transform="translate(112.1525 261.18457) scale(0.1 -0.1)">
       <defs>
        <path id="DejaVuSans-33" d="M 2597 2516 
Q 3050 2419 3304 2112 
Q 3559 1806 3559 1356 
Q 3559 666 3084 287 
Q 2609 -91 1734 -91 
Q 1441 -91 1130 -33 
Q 819 25 488 141 
L 488 750 
Q 750 597 1062 519 
Q 1375 441 1716 441 
Q 2309 441 2620 675 
Q 2931 909 2931 1356 
Q 2931 1769 2642 2001 
Q 2353 2234 1838 2234 
L 1294 2234 
L 1294 2753 
L 1863 2753 
Q 2328 2753 2575 2939 
Q 2822 3125 2822 3475 
Q 2822 3834 2567 4026 
Q 2313 4219 1838 4219 
Q 1578 4219 1281 4162 
Q 984 4106 628 3988 
L 628 4550 
Q 988 4650 1302 4700 
Q 1616 4750 1894 4750 
Q 2613 4750 3031 4423 
Q 3450 4097 3450 3541 
Q 3450 3153 3228 2886 
Q 3006 2619 2597 2516 
z
" transform="scale(0.015625)"/>
       </defs>
       <use xlink:href="#DejaVuSans-33"/>
       <use xlink:href="#DejaVuSans-30" x="63.623047"/>
       <use xlink:href="#DejaVuSans-30" x="127.246094"/>
      </g>
     </g>
    </g>
    <g id="ytick_4">
     <g id="line2d_11">
      <g>
       <use xlink:href="#m5fe2bbe49c" x="138.24" y="171.234596" style="stroke: #000000; stroke-width: 0.8"/>
      </g>
     </g>
     <g id="text_12">
      <!-- 400 -->
      <g transform="translate(112.1525 175.033814) scale(0.1 -0.1)">
       <use xlink:href="#DejaVuSans-34"/>
       <use xlink:href="#DejaVuSans-30" x="63.623047"/>
       <use xlink:href="#DejaVuSans-30" x="127.246094"/>
      </g>
     </g>
    </g>
    <g id="ytick_5">
     <g id="line2d_12">
      <g>
       <use xlink:href="#m5fe2bbe49c" x="138.24" y="85.08384" style="stroke: #000000; stroke-width: 0.8"/>
      </g>
     </g>
     <g id="text_13">
      <!-- 500 -->
      <g transform="translate(112.1525 88.883059) scale(0.1 -0.1)">
       <defs>
        <path id="DejaVuSans-35" d="M 691 4666 
L 3169 4666 
L 3169 4134 
L 1269 4134 
L 1269 2991 
Q 1406 3038 1543 3061 
Q 1681 3084 1819 3084 
Q 2600 3084 3056 2656 
Q 3513 2228 3513 1497 
Q 3513 744 3044 326 
Q 2575 -91 1722 -91 
Q 1428 -91 1123 -41 
Q 819 9 494 109 
L 494 744 
Q 775 591 1075 516 
Q 1375 441 1709 441 
Q 2250 441 2565 725 
Q 2881 1009 2881 1497 
Q 2881 1984 2565 2268 
Q 2250 2553 1709 2553 
Q 1456 2553 1204 2497 
Q 953 2441 691 2322 
L 691 4666 
z
" transform="scale(0.015625)"/>
       </defs>
       <use xlink:href="#DejaVuSans-35"/>
       <use xlink:href="#DejaVuSans-30" x="63.623047"/>
       <use xlink:href="#DejaVuSans-30" x="127.246094"/>
      </g>
     </g>
    </g>
    <g id="text_14">
     <!-- Duration -->
     <g transform="translate(106.072812 298.924265) rotate(-90) scale(0.1 -0.1)">
      <defs>
       <path id="DejaVuSans-44" d="M 1259 4147 
L 1259 519 
L 2022 519 
Q 2988 519 3436 956 
Q 3884 1394 3884 2338 
Q 3884 3275 3436 3711 
Q 2988 4147 2022 4147 
L 1259 4147 
z
M 628 4666 
L 1925 4666 
Q 3281 4666 3915 4102 
Q 4550 3538 4550 2338 
Q 4550 1131 3912 565 
Q 3275 0 1925 0 
L 628 0 
L 628 4666 
z
" transform="scale(0.015625)"/>
       <path id="DejaVuSans-75" d="M 544 1381 
L 544 3500 
L 1119 3500 
L 1119 1403 
Q 1119 906 1312 657 
Q 1506 409 1894 409 
Q 2359 409 2629 706 
Q 2900 1003 2900 1516 
L 2900 3500 
L 3475 3500 
L 3475 0 
L 2900 0 
L 2900 538 
Q 2691 219 2414 64 
Q 2138 -91 1772 -91 
Q 1169 -91 856 284 
Q 544 659 544 1381 
z
M 1991 3584 
L 1991 3584 
z
" transform="scale(0.015625)"/>
       <path id="DejaVuSans-72" d="M 2631 2963 
Q 2534 3019 2420 3045 
Q 2306 3072 2169 3072 
Q 1681 3072 1420 2755 
Q 1159 2438 1159 1844 
L 1159 0 
L 581 0 
L 581 3500 
L 1159 3500 
L 1159 2956 
Q 1341 3275 1631 3429 
Q 1922 3584 2338 3584 
Q 2397 3584 2469 3576 
Q 2541 3569 2628 3553 
L 2631 2963 
z
" transform="scale(0.015625)"/>
       <path id="DejaVuSans-61" d="M 2194 1759 
Q 1497 1759 1228 1600 
Q 959 1441 959 1056 
Q 959 750 1161 570 
Q 1363 391 1709 391 
Q 2188 391 2477 730 
Q 2766 1069 2766 1631 
L 2766 1759 
L 2194 1759 
z
M 3341 1997 
L 3341 0 
L 2766 0 
L 2766 531 
Q 2569 213 2275 61 
Q 1981 -91 1556 -91 
Q 1019 -91 701 211 
Q 384 513 384 1019 
Q 384 1609 779 1909 
Q 1175 2209 1959 2209 
L 2766 2209 
L 2766 2266 
Q 2766 2663 2505 2880 
Q 2244 3097 1772 3097 
Q 1472 3097 1187 3025 
Q 903 2953 641 2809 
L 641 3341 
Q 956 3463 1253 3523 
Q 1550 3584 1831 3584 
Q 2591 3584 2966 3190 
Q 3341 2797 3341 1997 
z
" transform="scale(0.015625)"/>
       <path id="DejaVuSans-6f" d="M 1959 3097 
Q 1497 3097 1228 2736 
Q 959 2375 959 1747 
Q 959 1119 1226 758 
Q 1494 397 1959 397 
Q 2419 397 2687 759 
Q 2956 1122 2956 1747 
Q 2956 2369 2687 2733 
Q 2419 3097 1959 3097 
z
M 1959 3584 
Q 2709 3584 3137 3096 
Q 3566 2609 3566 1747 
Q 3566 888 3137 398 
Q 2709 -91 1959 -91 
Q 1206 -91 779 398 
Q 353 888 353 1747 
Q 353 2609 779 3096 
Q 1206 3584 1959 3584 
z
" transform="scale(0.015625)"/>
       <path id="DejaVuSans-6e" d="M 3513 2113 
L 3513 0 
L 2938 0 
L 2938 2094 
Q 2938 2591 2744 2837 
Q 2550 3084 2163 3084 
Q 1697 3084 1428 2787 
Q 1159 2491 1159 1978 
L 1159 0 
L 581 0 
L 581 3500 
L 1159 3500 
L 1159 2956 
Q 1366 3272 1645 3428 
Q 1925 3584 2291 3584 
Q 2894 3584 3203 3211 
Q 3513 2838 3513 2113 
z
" transform="scale(0.015625)"/>
      </defs>
      <use xlink:href="#DejaVuSans-44"/>
      <use xlink:href="#DejaVuSans-75" x="77.001953"/>
      <use xlink:href="#DejaVuSans-72" x="140.380859"/>
      <use xlink:href="#DejaVuSans-61" x="181.494141"/>
      <use xlink:href="#DejaVuSans-74" x="242.773438"/>
      <use xlink:href="#DejaVuSans-69" x="281.982422"/>
      <use xlink:href="#DejaVuSans-6f" x="309.765625"/>
      <use xlink:href="#DejaVuSans-6e" x="370.947266"/>
     </g>
    </g>
   </g>
   <g id="line2d_13">
    <path d="M 177.198545 469.33344 
L 178.954424 469.33344 
L 179.086114 468.678694 
L 179.393393 468.678694 
L 179.568981 467.593195 
L 180.44692 467.593195 
L 180.578611 466.929834 
L 180.841993 466.929834 
L 180.973683 465.88741 
L 181.237065 465.88741 
L 181.368756 465.094823 
L 182.334489 465.094823 
L 182.46618 463.802561 
L 183.388016 463.802561 
L 183.607501 461.8814 
L 183.739191 461.192194 
L 184.441543 461.192194 
L 184.573233 460.313456 
L 185.099997 460.313456 
L 185.231688 459.546714 
L 186.63639 459.546714 
L 186.768081 458.642131 
L 187.294845 458.642131 
L 187.426535 457.806469 
L 188.128887 457.806469 
L 188.260578 456.531438 
L 188.962929 456.531438 
L 189.09462 455.661315 
L 189.138517 455.661315 
L 189.270207 454.722272 
L 190.367631 454.722272 
L 190.499322 453.464471 
L 190.631013 453.464471 
L 190.762704 452.456507 
L 190.938292 452.456507 
L 191.069982 451.431313 
L 192.825861 451.431313 
L 192.957551 450.483655 
L 193.177036 450.483655 
L 193.308727 449.312004 
L 193.7038 449.312004 
L 193.83549 448.304041 
L 195.415781 448.304041 
L 195.547472 447.218541 
L 195.679163 447.218541 
L 195.810853 446.021046 
L 196.118132 446.021046 
L 196.249823 445.013082 
L 197.610628 445.013082 
L 197.742319 443.832816 
L 198.708052 443.832816 
L 198.88364 441.928885 
L 199.147022 441.928885 
L 199.278713 440.895076 
L 199.89327 440.895076 
L 200.024961 439.249596 
L 200.420033 439.249596 
L 200.551724 438.448394 
L 201.034591 438.448394 
L 201.166282 437.517966 
L 201.210179 437.517966 
L 201.341869 436.690919 
L 202.746572 436.690919 
L 202.878263 435.820796 
L 203.185541 435.820796 
L 203.317232 435.036824 
L 203.887893 435.036824 
L 204.019584 434.261467 
L 204.94142 434.261467 
L 205.07311 433.3655 
L 205.775462 433.3655 
L 205.907152 432.159389 
L 206.960679 432.159389 
L 207.136267 429.979775 
L 207.663031 429.979775 
L 207.794721 428.911505 
L 208.848248 428.911505 
L 208.979939 427.851851 
L 209.243321 427.851851 
L 209.375012 426.981729 
L 209.418909 426.981729 
L 209.5506 425.904844 
L 210.296848 425.904844 
L 210.428539 424.991646 
L 211.306478 424.991646 
L 211.438169 424.043988 
L 212.008829 424.043988 
L 212.14052 423.225556 
L 212.447798 423.225556 
L 212.579489 422.320973 
L 213.676913 422.320973 
L 213.808604 421.321624 
L 213.852501 421.321624 
L 213.984192 420.623803 
L 214.115883 420.623803 
L 214.247573 419.822601 
L 215.037719 419.822601 
L 215.169409 418.874942 
L 215.652276 418.874942 
L 215.783967 417.918669 
L 217.232566 417.918669 
L 217.364257 416.910705 
L 217.803227 416.910705 
L 217.934917 415.919972 
L 218.90065 415.919972 
L 219.032341 414.860317 
L 219.383517 414.860317 
L 219.515208 414.007425 
L 220.700426 414.007425 
L 220.832116 412.853005 
L 220.91991 412.853005 
L 221.051601 411.672739 
L 221.271086 411.672739 
L 221.402777 410.707851 
L 221.92954 410.707851 
L 222.061231 409.656812 
L 222.983067 409.656812 
L 223.114758 408.778074 
L 223.9488 408.778074 
L 224.080491 407.925181 
L 224.299976 407.925181 
L 224.431666 406.986138 
L 225.572987 406.986138 
L 225.704678 406.245242 
L 225.880266 406.245242 
L 226.011957 405.176972 
L 226.143648 405.176972 
L 226.275338 404.470536 
L 226.494823 404.470536 
L 226.670411 403.522878 
L 228.777465 403.522878 
L 228.909156 403.066279 
L 230.050476 403.066279 
L 230.182167 402.540759 
L 230.57724 402.540759 
L 230.708931 403.066279 
L 231.191797 403.066279 
L 231.323488 403.290271 
L 231.58687 403.290271 
L 231.718561 403.850251 
L 232.15753 403.850251 
L 232.333118 407.003368 
L 235.625389 407.080904 
L 235.75708 408.571312 
L 236.283844 408.571312 
L 236.415535 408.976221 
L 237.381268 408.976221 
L 237.512958 411.689969 
L 239.7956 411.74166 
L 239.927291 410.406323 
L 243.482944 410.406323 
L 243.614635 409.493125 
L 243.658532 409.493125 
L 243.790223 407.563348 
L 244.141398 407.563348 
L 244.273089 405.504345 
L 244.887646 405.504345 
L 245.019337 404.496381 
L 245.282719 404.496381 
L 245.41441 403.273041 
L 246.292349 403.273041 
L 246.42404 401.774017 
L 246.687421 401.774017 
L 246.819112 401.282958 
L 251.164911 401.282958 
L 251.428292 399.043039 
L 252.701304 399.043039 
L 252.832995 398.129841 
L 253.491449 398.129841 
L 253.62314 397.604321 
L 253.886522 397.604321 
L 254.018213 396.510206 
L 255.159533 396.510206 
L 255.291224 395.459167 
L 257.354381 395.459167 
L 257.486072 394.959493 
L 257.705557 394.959493 
L 257.837247 394.59766 
L 258.188423 394.59766 
L 258.320114 392.564502 
L 259.198053 392.564502 
L 259.329744 392.038982 
L 259.724816 392.038982 
L 259.856507 390.005824 
L 260.207683 390.005824 
L 260.339374 389.549225 
L 261.83187 389.549225 
L 261.963561 388.696333 
L 263.060985 388.696333 
L 263.192676 388.825559 
L 263.324367 388.825559 
L 263.456057 388.592952 
L 264.377893 388.592952 
L 264.509584 388.188043 
L 264.904657 388.188043 
L 265.036348 387.740059 
L 266.177668 387.80898 
L 266.309359 387.447147 
L 267.275092 387.447147 
L 267.406783 386.956088 
L 269.601631 386.956088 
L 269.733322 386.63733 
L 269.865012 386.63733 
L 269.996703 386.361647 
L 271.4892 386.361647 
L 271.620891 385.939509 
L 272.937799 385.887818 
L 273.06949 384.828164 
L 273.64015 384.828164 
L 273.771841 384.595557 
L 274.474192 384.595557 
L 274.605883 384.39741 
L 276.712937 384.43187 
L 276.844628 384.121728 
L 277.283597 384.121728 
L 277.415288 384.371565 
L 278.907785 384.34572 
L 278.951682 384.630017 
L 278.995579 384.388795 
L 282.156159 384.388795 
L 282.28785 384.190648 
L 282.682923 384.190648 
L 282.814613 384.001117 
L 284.833873 384.001117 
L 284.965564 383.354986 
L 285.097255 383.354986 
L 285.228946 383.053458 
L 286.677545 383.105149 
L 286.809236 382.63132 
L 287.643278 382.63132 
L 287.774969 381.597511 
L 289.179672 381.597511 
L 289.311362 381.330443 
L 289.838126 381.330443 
L 289.969817 380.701543 
L 291.813489 380.658467 
L 291.94518 380.486166 
L 292.032974 380.486166 
L 292.164664 380.606777 
L 292.296355 380.3914 
L 295.149657 380.3914 
L 295.281348 380.184638 
L 296.334875 380.184638 
L 296.466566 379.977876 
L 298.529723 379.977876 
L 298.661413 379.581583 
L 298.837001 379.581583 
L 298.968692 379.426511 
L 299.012589 379.426511 
L 299.14428 378.677 
L 300.110013 378.677 
L 300.241704 378.203171 
L 300.856261 378.203171 
L 300.987952 376.798913 
L 301.953685 376.798913 
L 302.085376 376.643842 
L 302.436551 376.643842 
L 302.568242 376.428465 
L 305.026471 376.428465 
L 305.158162 376.075247 
L 306.123895 376.075247 
L 306.255586 375.635878 
L 307.835876 375.635878 
L 307.967567 375.429116 
L 308.406537 375.429116 
L 308.582125 374.70545 
L 309.064991 374.70545 
L 309.196682 374.429768 
L 310.557488 374.429768 
L 310.689178 374.679605 
L 313.454686 374.645145 
L 313.586377 374.438383 
L 315.166668 374.369462 
L 315.342255 374.136855 
L 315.869019 374.136855 
L 316.00071 373.757792 
L 316.264091 373.757792 
L 316.395782 373.507955 
L 318.458939 373.507955 
L 318.59063 373.171967 
L 320.083126 373.171967 
L 320.214817 372.198463 
L 321.61952 372.198463 
L 321.75121 371.741864 
L 324.692306 371.741864 
L 324.823997 371.147424 
L 327.721196 371.147424 
L 327.852887 369.54502 
L 328.160166 369.54502 
L 328.291856 368.873044 
L 331.232952 368.873044 
L 331.364643 368.580131 
L 332.462067 368.580131 
L 332.593758 366.383287 
L 332.725449 366.383287 
L 332.857139 365.435629 
L 333.515594 365.435629 
L 333.647285 363.152634 
L 334.349636 363.152634 
L 334.481327 361.576075 
L 335.754338 361.610535 
L 335.886029 361.033325 
L 337.115144 361.033325 
L 337.246835 357.862977 
L 340.583003 357.862977 
L 340.714694 357.363303 
L 343.129026 357.363303 
L 343.260717 356.717172 
L 347.518722 356.717172 
L 347.650412 355.726439 
L 355.46407 355.726439 
L 355.595761 352.616396 
L 356.298112 352.616396 
L 356.429803 350.454012 
L 356.780979 350.454012 
L 356.91267 348.48116 
L 357.702815 348.48116 
L 357.834506 345.862177 
L 359.06362 345.862177 
L 359.195311 343.105353 
L 362.531479 343.105353 
L 362.66317 340.891279 
L 365.077503 340.891279 
L 365.209194 337.936308 
L 365.384781 337.936308 
L 365.516472 337.626165 
L 366.789484 337.626165 
L 366.921175 338.143069 
L 369.467198 338.143069 
L 369.598889 334.929646 
L 377.412546 334.929646 
L 377.544237 332.534655 
L 378.729455 332.534655 
L 378.861146 330.243045 
L 384.479956 330.243045 
L 384.611647 327.133003 
L 387.025979 327.133003 
L 387.15767 324.109111 
L 387.333258 324.109111 
L 387.464949 322.334406 
L 388.73796 322.334406 
L 388.869651 319.301899 
L 391.415674 319.301899 
L 391.635159 314.563608 
L 399.361023 314.563608 
L 399.492714 311.892934 
L 400.677931 311.892934 
L 400.809622 308.636436 
L 406.428432 308.636436 
L 406.560123 305.500548 
L 408.974455 305.500548 
L 409.106146 303.002176 
L 409.281734 303.002176 
L 409.413425 300.012745 
L 410.686436 300.012745 
L 410.818127 296.937163 
L 413.364151 296.937163 
L 413.539738 290.975531 
L 421.309499 290.975531 
L 421.44119 287.899949 
L 422.626408 287.899949 
L 422.758098 284.927748 
L 428.376908 284.927748 
L 428.508599 282.015852 
L 430.922932 282.015852 
L 431.054622 279.095342 
L 431.23021 279.095342 
L 431.361901 275.933609 
L 432.634913 275.933609 
L 432.766604 273.805685 
L 435.312627 273.805685 
L 435.488215 268.205886 
L 443.257975 268.205886 
L 443.389666 265.009693 
L 444.574884 265.009693 
L 444.706575 262.097797 
L 450.325385 262.097797 
L 450.457076 258.824069 
L 452.871408 258.824069 
L 453.003099 255.714026 
L 453.178687 255.714026 
L 453.310377 252.560909 
L 454.583389 252.560909 
L 454.71508 249.28718 
L 457.261103 249.28718 
L 457.436691 243.54954 
L 465.206452 243.54954 
L 465.338142 240.413652 
L 466.52336 240.413652 
L 466.655051 237.932511 
L 472.273861 237.932511 
L 472.405552 235.098151 
L 474.819884 235.098151 
L 474.951575 232.17764 
L 475.127163 232.17764 
L 475.258854 229.231284 
L 476.531865 229.231284 
L 476.663556 226.448615 
L 479.20958 226.448615 
L 479.385167 221.141728 
L 487.154928 221.141728 
L 487.286619 218.341829 
L 488.471837 218.341829 
L 488.603527 215.0681 
L 494.222337 215.0681 
L 494.354028 211.923597 
L 496.768361 211.923597 
L 496.900051 209.028932 
L 497.075639 209.028932 
L 497.20733 205.772433 
L 498.480342 205.772433 
L 498.612033 202.851923 
L 501.158056 202.851923 
L 501.333644 197.114283 
L 509.103404 197.114283 
L 509.235095 194.254077 
L 510.420313 194.254077 
L 510.552004 191.324952 
L 516.170814 191.324952 
L 516.302504 188.817965 
L 518.716837 188.817965 
L 518.848528 186.069756 
L 519.024116 186.069756 
L 519.155806 183.493848 
L 520.428818 183.493848 
L 520.560509 180.91794 
L 523.106532 180.91794 
L 523.28212 174.835697 
L 531.051881 174.835697 
L 531.183571 171.742885 
L 532.368789 171.742885 
L 532.50048 168.632843 
L 538.11929 168.632843 
L 538.250981 165.815713 
L 540.665313 165.815713 
L 540.797004 162.877972 
L 540.972592 162.877972 
L 541.104283 160.198684 
L 542.377294 160.198684 
L 542.508985 157.390169 
L 545.055008 157.390169 
L 545.230596 151.514688 
L 553.000357 151.514688 
L 553.132048 148.292649 
L 554.317265 148.292649 
L 554.448956 145.242913 
L 560.067766 145.242913 
L 560.199457 142.374092 
L 562.61379 142.374092 
L 562.74548 139.26405 
L 562.921068 139.26405 
L 563.052759 136.283234 
L 564.325771 136.283234 
L 564.457462 133.147347 
L 567.003485 133.147347 
L 567.179073 127.392476 
L 574.948833 127.392476 
L 575.080524 124.44612 
L 576.265742 124.44612 
L 576.397433 122.008054 
L 582.016243 122.008054 
L 582.147933 119.208154 
L 584.562266 119.208154 
L 584.693957 116.632247 
L 584.869544 116.632247 
L 585.001235 115.124608 
L 586.274247 115.124608 
L 586.405938 112.721002 
L 588.951961 112.721002 
L 589.083652 108.766683 
L 596.89731 108.766683 
L 597.029 106.638759 
L 598.214218 106.638759 
L 598.345909 105.716946 
L 603.964719 105.716946 
L 604.09641 104.209308 
L 606.510742 104.209308 
L 606.642433 101.211261 
L 606.818021 101.211261 
L 606.949712 98.480282 
L 610.900437 98.480282 
L 611.076025 93.793681 
L 618.845786 93.793681 
L 618.977477 92.389424 
L 640.794262 92.389424 
L 640.925953 89.865207 
L 642.111171 89.865207 
L 642.242862 87.34099 
L 650.407695 87.34099 
L 650.539386 85.08384 
L 956.369455 85.08384 
L 956.369455 85.08384 
" clip-path="url(#pb9757850ae)" style="fill: none; stroke: #1f77b4; stroke-width: 1.5; stroke-linecap: square"/>
   </g>
   <g id="patch_3">
    <path d="M 138.24 488.54592 
L 138.24 65.87136 
" style="fill: none; stroke: #000000; stroke-width: 0.8; stroke-linejoin: miter; stroke-linecap: square"/>
   </g>
   <g id="patch_4">
    <path d="M 995.328 488.54592 
L 995.328 65.87136 
" style="fill: none; stroke: #000000; stroke-width: 0.8; stroke-linejoin: miter; stroke-linecap: square"/>
   </g>
   <g id="patch_5">
    <path d="M 138.24 488.54592 
L 995.328 488.54592 
" style="fill: none; stroke: #000000; stroke-width: 0.8; stroke-linejoin: miter; stroke-linecap: square"/>
   </g>
   <g id="patch_6">
    <path d="M 138.24 65.87136 
L 995.328 65.87136 
" style="fill: none; stroke: #000000; stroke-width: 0.8; stroke-linejoin: miter; stroke-linecap: square"/>
   </g>
   <g id="text_15">
    <!-- Result -->
    <g transform="translate(548.245875 59.87136) scale(0.12 -0.12)">
     <defs>
      <path id="DejaVuSans-52" d="M 2841 2188 
Q 3044 2119 3236 1894 
Q 3428 1669 3622 1275 
L 4263 0 
L 3584 0 
L 2988 1197 
Q 2756 1666 2539 1819 
Q 2322 1972 1947 1972 
L 1259 1972 
L 1259 0 
L 628 0 
L 628 4666 
L 2053 4666 
Q 2853 4666 3247 4331 
Q 3641 3997 3641 3322 
Q 3641 2881 3436 2590 
Q 3231 2300 2841 2188 
z
M 1259 4147 
L 1259 2491 
L 2053 2491 
Q 2509 2491 2742 2702 
Q 2975 2913 2975 3322 
Q 2975 3731 2742 3939 
Q 2509 4147 2053 4147 
L 1259 4147 
z
" transform="scale(0.015625)"/>
      <path id="DejaVuSans-6c" d="M 603 4863 
L 1178 4863 
L 1178 0 
L 603 0 
L 603 4863 
z
" transform="scale(0.015625)"/>
     </defs>
     <use xlink:href="#DejaVuSans-52"/>
     <use xlink:href="#DejaVuSans-65" x="64.982422"/>
     <use xlink:href="#DejaVuSans-73" x="126.505859"/>
     <use xlink:href="#DejaVuSans-75" x="178.605469"/>
     <use xlink:href="#DejaVuSans-6c" x="241.984375"/>
     <use xlink:href="#DejaVuSans-74" x="269.767578"/>
    </g>
   </g>
   <g id="legend_1">
    <g id="patch_7">
     <path d="M 145.24 88.82761 
L 243.369687 88.82761 
Q 245.369687 88.82761 245.369687 86.82761 
L 245.369687 72.87136 
Q 245.369687 70.87136 243.369687 70.87136 
L 145.24 70.87136 
Q 143.24 70.87136 143.24 72.87136 
L 143.24 86.82761 
Q 143.24 88.82761 145.24 88.82761 
z
" style="fill: #ffffff; opacity: 0.8; stroke: #cccccc; stroke-linejoin: miter"/>
    </g>
    <g id="line2d_14">
     <path d="M 147.24 78.969797 
L 157.24 78.969797 
L 167.24 78.969797 
" style="fill: none; stroke: #1f77b4; stroke-width: 1.5; stroke-linecap: square"/>
    </g>
    <g id="text_16">
     <!-- ep_len_mean -->
     <g transform="translate(175.24 82.469797) scale(0.1 -0.1)">
      <defs>
       <path id="DejaVuSans-5f" d="M 3263 -1063 
L 3263 -1509 
L -63 -1509 
L -63 -1063 
L 3263 -1063 
z
" transform="scale(0.015625)"/>
      </defs>
      <use xlink:href="#DejaVuSans-65"/>
      <use xlink:href="#DejaVuSans-70" x="61.523438"/>
      <use xlink:href="#DejaVuSans-5f" x="125"/>
      <use xlink:href="#DejaVuSans-6c" x="175"/>
      <use xlink:href="#DejaVuSans-65" x="202.783203"/>
      <use xlink:href="#DejaVuSans-6e" x="264.306641"/>
      <use xlink:href="#DejaVuSans-5f" x="327.685547"/>
      <use xlink:href="#DejaVuSans-6d" x="377.685547"/>
      <use xlink:href="#DejaVuSans-65" x="475.097656"/>
      <use xlink:href="#DejaVuSans-61" x="536.621094"/>
      <use xlink:href="#DejaVuSans-6e" x="597.900391"/>
     </g>
    </g>
   </g>
  </g>
 </g>
 <defs>
  <clipPath id="pb9757850ae">
   <rect x="138.24" y="65.87136" width="857.088" height="422.67456"/>
  </clipPath>
 </defs>
</svg>
