<?xml version="1.0" encoding="utf-8" standalone="no"?>
<!DOCTYPE svg PUBLIC "-//W3C//DTD SVG 1.1//EN"
  "http://www.w3.org/Graphics/SVG/1.1/DTD/svg11.dtd">
<svg xmlns:xlink="http://www.w3.org/1999/xlink" width="1105.92pt" height="548.928pt" viewBox="0 0 1105.92 548.928" xmlns="http://www.w3.org/2000/svg" version="1.1">
 <metadata>
  <rdf:RDF xmlns:dc="http://purl.org/dc/elements/1.1/" xmlns:cc="http://creativecommons.org/ns#" xmlns:rdf="http://www.w3.org/1999/02/22-rdf-syntax-ns#">
   <cc:Work>
    <dc:type rdf:resource="http://purl.org/dc/dcmitype/StillImage"/>
    <dc:date>2024-10-30T03:07:03.235046</dc:date>
    <dc:format>image/svg+xml</dc:format>
    <dc:creator>
     <cc:Agent>
      <dc:title>Matplotlib v3.9.2, https://matplotlib.org/</dc:title>
     </cc:Agent>
    </dc:creator>
   </cc:Work>
  </rdf:RDF>
 </metadata>
 <defs>
  <style type="text/css">*{stroke-linejoin: round; stroke-linecap: butt}</style>
 </defs>
 <g id="figure_1">
  <g id="patch_1">
   <path d="M 0 548.928 
L 1105.92 548.928 
L 1105.92 0 
L 0 0 
z
" style="fill: #ffffff"/>
  </g>
  <g id="axes_1">
   <g id="patch_2">
    <path d="M 138.24 257.99616 
L 995.328 257.99616 
L 995.328 65.87136 
L 138.24 65.87136 
z
" style="fill: #ffffff"/>
   </g>
   <g id="matplotlib.axis_1">
    <g id="xtick_1">
     <g id="line2d_1">
      <defs>
       <path id="m95d183ad0c" d="M 0 0 
L 0 3.5 
" style="stroke: #000000; stroke-width: 0.8"/>
      </defs>
      <g>
       <use xlink:href="#m95d183ad0c" x="177.198545" y="257.99616" style="stroke: #000000; stroke-width: 0.8"/>
      </g>
     </g>
     <g id="text_1">
      <!-- 0 -->
      <g transform="translate(174.017295 272.594597) scale(0.1 -0.1)">
       <defs>
        <path id="DejaVuSans-30" d="M 2034 4250 
Q 1547 4250 1301 3770 
Q 1056 3291 1056 2328 
Q 1056 1369 1301 889 
Q 1547 409 2034 409 
Q 2525 409 2770 889 
Q 3016 1369 3016 2328 
Q 3016 3291 2770 3770 
Q 2525 4250 2034 4250 
z
M 2034 4750 
Q 2819 4750 3233 4129 
Q 3647 3509 3647 2328 
Q 3647 1150 3233 529 
Q 2819 -91 2034 -91 
Q 1250 -91 836 529 
Q 422 1150 422 2328 
Q 422 3509 836 4129 
Q 1250 4750 2034 4750 
z
" transform="scale(0.015625)"/>
       </defs>
       <use xlink:href="#DejaVuSans-30"/>
      </g>
     </g>
    </g>
    <g id="xtick_2">
     <g id="line2d_2">
      <g>
       <use xlink:href="#m95d183ad0c" x="307.277161" y="257.99616" style="stroke: #000000; stroke-width: 0.8"/>
      </g>
     </g>
     <g id="text_2">
      <!-- 100 -->
      <g transform="translate(297.733411 272.594597) scale(0.1 -0.1)">
       <defs>
        <path id="DejaVuSans-31" d="M 794 531 
L 1825 531 
L 1825 4091 
L 703 3866 
L 703 4441 
L 1819 4666 
L 2450 4666 
L 2450 531 
L 3481 531 
L 3481 0 
L 794 0 
L 794 531 
z
" transform="scale(0.015625)"/>
       </defs>
       <use xlink:href="#DejaVuSans-31"/>
       <use xlink:href="#DejaVuSans-30" x="63.623047"/>
       <use xlink:href="#DejaVuSans-30" x="127.246094"/>
      </g>
     </g>
    </g>
    <g id="xtick_3">
     <g id="line2d_3">
      <g>
       <use xlink:href="#m95d183ad0c" x="437.355777" y="257.99616" style="stroke: #000000; stroke-width: 0.8"/>
      </g>
     </g>
     <g id="text_3">
      <!-- 200 -->
      <g transform="translate(427.812027 272.594597) scale(0.1 -0.1)">
       <defs>
        <path id="DejaVuSans-32" d="M 1228 531 
L 3431 531 
L 3431 0 
L 469 0 
L 469 531 
Q 828 903 1448 1529 
Q 2069 2156 2228 2338 
Q 2531 2678 2651 2914 
Q 2772 3150 2772 3378 
Q 2772 3750 2511 3984 
Q 2250 4219 1831 4219 
Q 1534 4219 1204 4116 
Q 875 4013 500 3803 
L 500 4441 
Q 881 4594 1212 4672 
Q 1544 4750 1819 4750 
Q 2544 4750 2975 4387 
Q 3406 4025 3406 3419 
Q 3406 3131 3298 2873 
Q 3191 2616 2906 2266 
Q 2828 2175 2409 1742 
Q 1991 1309 1228 531 
z
" transform="scale(0.015625)"/>
       </defs>
       <use xlink:href="#DejaVuSans-32"/>
       <use xlink:href="#DejaVuSans-30" x="63.623047"/>
       <use xlink:href="#DejaVuSans-30" x="127.246094"/>
      </g>
     </g>
    </g>
    <g id="xtick_4">
     <g id="line2d_4">
      <g>
       <use xlink:href="#m95d183ad0c" x="567.434393" y="257.99616" style="stroke: #000000; stroke-width: 0.8"/>
      </g>
     </g>
     <g id="text_4">
      <!-- 300 -->
      <g transform="translate(557.890643 272.594597) scale(0.1 -0.1)">
       <defs>
        <path id="DejaVuSans-33" d="M 2597 2516 
Q 3050 2419 3304 2112 
Q 3559 1806 3559 1356 
Q 3559 666 3084 287 
Q 2609 -91 1734 -91 
Q 1441 -91 1130 -33 
Q 819 25 488 141 
L 488 750 
Q 750 597 1062 519 
Q 1375 441 1716 441 
Q 2309 441 2620 675 
Q 2931 909 2931 1356 
Q 2931 1769 2642 2001 
Q 2353 2234 1838 2234 
L 1294 2234 
L 1294 2753 
L 1863 2753 
Q 2328 2753 2575 2939 
Q 2822 3125 2822 3475 
Q 2822 3834 2567 4026 
Q 2313 4219 1838 4219 
Q 1578 4219 1281 4162 
Q 984 4106 628 3988 
L 628 4550 
Q 988 4650 1302 4700 
Q 1616 4750 1894 4750 
Q 2613 4750 3031 4423 
Q 3450 4097 3450 3541 
Q 3450 3153 3228 2886 
Q 3006 2619 2597 2516 
z
" transform="scale(0.015625)"/>
       </defs>
       <use xlink:href="#DejaVuSans-33"/>
       <use xlink:href="#DejaVuSans-30" x="63.623047"/>
       <use xlink:href="#DejaVuSans-30" x="127.246094"/>
      </g>
     </g>
    </g>
    <g id="xtick_5">
     <g id="line2d_5">
      <g>
       <use xlink:href="#m95d183ad0c" x="697.513009" y="257.99616" style="stroke: #000000; stroke-width: 0.8"/>
      </g>
     </g>
     <g id="text_5">
      <!-- 400 -->
      <g transform="translate(687.969259 272.594597) scale(0.1 -0.1)">
       <defs>
        <path id="DejaVuSans-34" d="M 2419 4116 
L 825 1625 
L 2419 1625 
L 2419 4116 
z
M 2253 4666 
L 3047 4666 
L 3047 1625 
L 3713 1625 
L 3713 1100 
L 3047 1100 
L 3047 0 
L 2419 0 
L 2419 1100 
L 313 1100 
L 313 1709 
L 2253 4666 
z
" transform="scale(0.015625)"/>
       </defs>
       <use xlink:href="#DejaVuSans-34"/>
       <use xlink:href="#DejaVuSans-30" x="63.623047"/>
       <use xlink:href="#DejaVuSans-30" x="127.246094"/>
      </g>
     </g>
    </g>
    <g id="xtick_6">
     <g id="line2d_6">
      <g>
       <use xlink:href="#m95d183ad0c" x="827.591625" y="257.99616" style="stroke: #000000; stroke-width: 0.8"/>
      </g>
     </g>
     <g id="text_6">
      <!-- 500 -->
      <g transform="translate(818.047875 272.594597) scale(0.1 -0.1)">
       <defs>
        <path id="DejaVuSans-35" d="M 691 4666 
L 3169 4666 
L 3169 4134 
L 1269 4134 
L 1269 2991 
Q 1406 3038 1543 3061 
Q 1681 3084 1819 3084 
Q 2600 3084 3056 2656 
Q 3513 2228 3513 1497 
Q 3513 744 3044 326 
Q 2575 -91 1722 -91 
Q 1428 -91 1123 -41 
Q 819 9 494 109 
L 494 744 
Q 775 591 1075 516 
Q 1375 441 1709 441 
Q 2250 441 2565 725 
Q 2881 1009 2881 1497 
Q 2881 1984 2565 2268 
Q 2250 2553 1709 2553 
Q 1456 2553 1204 2497 
Q 953 2441 691 2322 
L 691 4666 
z
" transform="scale(0.015625)"/>
       </defs>
       <use xlink:href="#DejaVuSans-35"/>
       <use xlink:href="#DejaVuSans-30" x="63.623047"/>
       <use xlink:href="#DejaVuSans-30" x="127.246094"/>
      </g>
     </g>
    </g>
    <g id="xtick_7">
     <g id="line2d_7">
      <g>
       <use xlink:href="#m95d183ad0c" x="957.670241" y="257.99616" style="stroke: #000000; stroke-width: 0.8"/>
      </g>
     </g>
     <g id="text_7">
      <!-- 600 -->
      <g transform="translate(948.126491 272.594597) scale(0.1 -0.1)">
       <defs>
        <path id="DejaVuSans-36" d="M 2113 2584 
Q 1688 2584 1439 2293 
Q 1191 2003 1191 1497 
Q 1191 994 1439 701 
Q 1688 409 2113 409 
Q 2538 409 2786 701 
Q 3034 994 3034 1497 
Q 3034 2003 2786 2293 
Q 2538 2584 2113 2584 
z
M 3366 4563 
L 3366 3988 
Q 3128 4100 2886 4159 
Q 2644 4219 2406 4219 
Q 1781 4219 1451 3797 
Q 1122 3375 1075 2522 
Q 1259 2794 1537 2939 
Q 1816 3084 2150 3084 
Q 2853 3084 3261 2657 
Q 3669 2231 3669 1497 
Q 3669 778 3244 343 
Q 2819 -91 2113 -91 
Q 1303 -91 875 529 
Q 447 1150 447 2328 
Q 447 3434 972 4092 
Q 1497 4750 2381 4750 
Q 2619 4750 2861 4703 
Q 3103 4656 3366 4563 
z
" transform="scale(0.015625)"/>
       </defs>
       <use xlink:href="#DejaVuSans-36"/>
       <use xlink:href="#DejaVuSans-30" x="63.623047"/>
       <use xlink:href="#DejaVuSans-30" x="127.246094"/>
      </g>
     </g>
    </g>
    <g id="text_8">
     <!-- Episode -->
     <g transform="translate(547.1465 286.272722) scale(0.1 -0.1)">
      <defs>
       <path id="DejaVuSans-45" d="M 628 4666 
L 3578 4666 
L 3578 4134 
L 1259 4134 
L 1259 2753 
L 3481 2753 
L 3481 2222 
L 1259 2222 
L 1259 531 
L 3634 531 
L 3634 0 
L 628 0 
L 628 4666 
z
" transform="scale(0.015625)"/>
       <path id="DejaVuSans-70" d="M 1159 525 
L 1159 -1331 
L 581 -1331 
L 581 3500 
L 1159 3500 
L 1159 2969 
Q 1341 3281 1617 3432 
Q 1894 3584 2278 3584 
Q 2916 3584 3314 3078 
Q 3713 2572 3713 1747 
Q 3713 922 3314 415 
Q 2916 -91 2278 -91 
Q 1894 -91 1617 61 
Q 1341 213 1159 525 
z
M 3116 1747 
Q 3116 2381 2855 2742 
Q 2594 3103 2138 3103 
Q 1681 3103 1420 2742 
Q 1159 2381 1159 1747 
Q 1159 1113 1420 752 
Q 1681 391 2138 391 
Q 2594 391 2855 752 
Q 3116 1113 3116 1747 
z
" transform="scale(0.015625)"/>
       <path id="DejaVuSans-69" d="M 603 3500 
L 1178 3500 
L 1178 0 
L 603 0 
L 603 3500 
z
M 603 4863 
L 1178 4863 
L 1178 4134 
L 603 4134 
L 603 4863 
z
" transform="scale(0.015625)"/>
       <path id="DejaVuSans-73" d="M 2834 3397 
L 2834 2853 
Q 2591 2978 2328 3040 
Q 2066 3103 1784 3103 
Q 1356 3103 1142 2972 
Q 928 2841 928 2578 
Q 928 2378 1081 2264 
Q 1234 2150 1697 2047 
L 1894 2003 
Q 2506 1872 2764 1633 
Q 3022 1394 3022 966 
Q 3022 478 2636 193 
Q 2250 -91 1575 -91 
Q 1294 -91 989 -36 
Q 684 19 347 128 
L 347 722 
Q 666 556 975 473 
Q 1284 391 1588 391 
Q 1994 391 2212 530 
Q 2431 669 2431 922 
Q 2431 1156 2273 1281 
Q 2116 1406 1581 1522 
L 1381 1569 
Q 847 1681 609 1914 
Q 372 2147 372 2553 
Q 372 3047 722 3315 
Q 1072 3584 1716 3584 
Q 2034 3584 2315 3537 
Q 2597 3491 2834 3397 
z
" transform="scale(0.015625)"/>
       <path id="DejaVuSans-6f" d="M 1959 3097 
Q 1497 3097 1228 2736 
Q 959 2375 959 1747 
Q 959 1119 1226 758 
Q 1494 397 1959 397 
Q 2419 397 2687 759 
Q 2956 1122 2956 1747 
Q 2956 2369 2687 2733 
Q 2419 3097 1959 3097 
z
M 1959 3584 
Q 2709 3584 3137 3096 
Q 3566 2609 3566 1747 
Q 3566 888 3137 398 
Q 2709 -91 1959 -91 
Q 1206 -91 779 398 
Q 353 888 353 1747 
Q 353 2609 779 3096 
Q 1206 3584 1959 3584 
z
" transform="scale(0.015625)"/>
       <path id="DejaVuSans-64" d="M 2906 2969 
L 2906 4863 
L 3481 4863 
L 3481 0 
L 2906 0 
L 2906 525 
Q 2725 213 2448 61 
Q 2172 -91 1784 -91 
Q 1150 -91 751 415 
Q 353 922 353 1747 
Q 353 2572 751 3078 
Q 1150 3584 1784 3584 
Q 2172 3584 2448 3432 
Q 2725 3281 2906 2969 
z
M 947 1747 
Q 947 1113 1208 752 
Q 1469 391 1925 391 
Q 2381 391 2643 752 
Q 2906 1113 2906 1747 
Q 2906 2381 2643 2742 
Q 2381 3103 1925 3103 
Q 1469 3103 1208 2742 
Q 947 2381 947 1747 
z
" transform="scale(0.015625)"/>
       <path id="DejaVuSans-65" d="M 3597 1894 
L 3597 1613 
L 953 1613 
Q 991 1019 1311 708 
Q 1631 397 2203 397 
Q 2534 397 2845 478 
Q 3156 559 3463 722 
L 3463 178 
Q 3153 47 2828 -22 
Q 2503 -91 2169 -91 
Q 1331 -91 842 396 
Q 353 884 353 1716 
Q 353 2575 817 3079 
Q 1281 3584 2069 3584 
Q 2775 3584 3186 3129 
Q 3597 2675 3597 1894 
z
M 3022 2063 
Q 3016 2534 2758 2815 
Q 2500 3097 2075 3097 
Q 1594 3097 1305 2825 
Q 1016 2553 972 2059 
L 3022 2063 
z
" transform="scale(0.015625)"/>
      </defs>
      <use xlink:href="#DejaVuSans-45"/>
      <use xlink:href="#DejaVuSans-70" x="63.183594"/>
      <use xlink:href="#DejaVuSans-69" x="126.660156"/>
      <use xlink:href="#DejaVuSans-73" x="154.443359"/>
      <use xlink:href="#DejaVuSans-6f" x="206.542969"/>
      <use xlink:href="#DejaVuSans-64" x="267.724609"/>
      <use xlink:href="#DejaVuSans-65" x="331.201172"/>
     </g>
    </g>
   </g>
   <g id="matplotlib.axis_2">
    <g id="ytick_1">
     <g id="line2d_8">
      <defs>
       <path id="m932da9e011" d="M 0 0 
L -3.5 0 
" style="stroke: #000000; stroke-width: 0.8"/>
      </defs>
      <g>
       <use xlink:href="#m932da9e011" x="138.24" y="249.263215" style="stroke: #000000; stroke-width: 0.8"/>
      </g>
     </g>
     <g id="text_9">
      <!-- 0 -->
      <g transform="translate(124.8775 253.062433) scale(0.1 -0.1)">
       <use xlink:href="#DejaVuSans-30"/>
      </g>
     </g>
    </g>
    <g id="ytick_2">
     <g id="line2d_9">
      <g>
       <use xlink:href="#m932da9e011" x="138.24" y="214.331433" style="stroke: #000000; stroke-width: 0.8"/>
      </g>
     </g>
     <g id="text_10">
      <!-- 100 -->
      <g transform="translate(112.1525 218.130651) scale(0.1 -0.1)">
       <use xlink:href="#DejaVuSans-31"/>
       <use xlink:href="#DejaVuSans-30" x="63.623047"/>
       <use xlink:href="#DejaVuSans-30" x="127.246094"/>
      </g>
     </g>
    </g>
    <g id="ytick_3">
     <g id="line2d_10">
      <g>
       <use xlink:href="#m932da9e011" x="138.24" y="179.399651" style="stroke: #000000; stroke-width: 0.8"/>
      </g>
     </g>
     <g id="text_11">
      <!-- 200 -->
      <g transform="translate(112.1525 183.19887) scale(0.1 -0.1)">
       <use xlink:href="#DejaVuSans-32"/>
       <use xlink:href="#DejaVuSans-30" x="63.623047"/>
       <use xlink:href="#DejaVuSans-30" x="127.246094"/>
      </g>
     </g>
    </g>
    <g id="ytick_4">
     <g id="line2d_11">
      <g>
       <use xlink:href="#m932da9e011" x="138.24" y="144.467869" style="stroke: #000000; stroke-width: 0.8"/>
      </g>
     </g>
     <g id="text_12">
      <!-- 300 -->
      <g transform="translate(112.1525 148.267088) scale(0.1 -0.1)">
       <use xlink:href="#DejaVuSans-33"/>
       <use xlink:href="#DejaVuSans-30" x="63.623047"/>
       <use xlink:href="#DejaVuSans-30" x="127.246094"/>
      </g>
     </g>
    </g>
    <g id="ytick_5">
     <g id="line2d_12">
      <g>
       <use xlink:href="#m932da9e011" x="138.24" y="109.536087" style="stroke: #000000; stroke-width: 0.8"/>
      </g>
     </g>
     <g id="text_13">
      <!-- 400 -->
      <g transform="translate(112.1525 113.335306) scale(0.1 -0.1)">
       <use xlink:href="#DejaVuSans-34"/>
       <use xlink:href="#DejaVuSans-30" x="63.623047"/>
       <use xlink:href="#DejaVuSans-30" x="127.246094"/>
      </g>
     </g>
    </g>
    <g id="ytick_6">
     <g id="line2d_13">
      <g>
       <use xlink:href="#m932da9e011" x="138.24" y="74.604305" style="stroke: #000000; stroke-width: 0.8"/>
      </g>
     </g>
     <g id="text_14">
      <!-- 500 -->
      <g transform="translate(112.1525 78.403524) scale(0.1 -0.1)">
       <use xlink:href="#DejaVuSans-35"/>
       <use xlink:href="#DejaVuSans-30" x="63.623047"/>
       <use xlink:href="#DejaVuSans-30" x="127.246094"/>
      </g>
     </g>
    </g>
    <g id="text_15">
     <!-- Duration -->
     <g transform="translate(106.072812 183.649385) rotate(-90) scale(0.1 -0.1)">
      <defs>
       <path id="DejaVuSans-44" d="M 1259 4147 
L 1259 519 
L 2022 519 
Q 2988 519 3436 956 
Q 3884 1394 3884 2338 
Q 3884 3275 3436 3711 
Q 2988 4147 2022 4147 
L 1259 4147 
z
M 628 4666 
L 1925 4666 
Q 3281 4666 3915 4102 
Q 4550 3538 4550 2338 
Q 4550 1131 3912 565 
Q 3275 0 1925 0 
L 628 0 
L 628 4666 
z
" transform="scale(0.015625)"/>
       <path id="DejaVuSans-75" d="M 544 1381 
L 544 3500 
L 1119 3500 
L 1119 1403 
Q 1119 906 1312 657 
Q 1506 409 1894 409 
Q 2359 409 2629 706 
Q 2900 1003 2900 1516 
L 2900 3500 
L 3475 3500 
L 3475 0 
L 2900 0 
L 2900 538 
Q 2691 219 2414 64 
Q 2138 -91 1772 -91 
Q 1169 -91 856 284 
Q 544 659 544 1381 
z
M 1991 3584 
L 1991 3584 
z
" transform="scale(0.015625)"/>
       <path id="DejaVuSans-72" d="M 2631 2963 
Q 2534 3019 2420 3045 
Q 2306 3072 2169 3072 
Q 1681 3072 1420 2755 
Q 1159 2438 1159 1844 
L 1159 0 
L 581 0 
L 581 3500 
L 1159 3500 
L 1159 2956 
Q 1341 3275 1631 3429 
Q 1922 3584 2338 3584 
Q 2397 3584 2469 3576 
Q 2541 3569 2628 3553 
L 2631 2963 
z
" transform="scale(0.015625)"/>
       <path id="DejaVuSans-61" d="M 2194 1759 
Q 1497 1759 1228 1600 
Q 959 1441 959 1056 
Q 959 750 1161 570 
Q 1363 391 1709 391 
Q 2188 391 2477 730 
Q 2766 1069 2766 1631 
L 2766 1759 
L 2194 1759 
z
M 3341 1997 
L 3341 0 
L 2766 0 
L 2766 531 
Q 2569 213 2275 61 
Q 1981 -91 1556 -91 
Q 1019 -91 701 211 
Q 384 513 384 1019 
Q 384 1609 779 1909 
Q 1175 2209 1959 2209 
L 2766 2209 
L 2766 2266 
Q 2766 2663 2505 2880 
Q 2244 3097 1772 3097 
Q 1472 3097 1187 3025 
Q 903 2953 641 2809 
L 641 3341 
Q 956 3463 1253 3523 
Q 1550 3584 1831 3584 
Q 2591 3584 2966 3190 
Q 3341 2797 3341 1997 
z
" transform="scale(0.015625)"/>
       <path id="DejaVuSans-74" d="M 1172 4494 
L 1172 3500 
L 2356 3500 
L 2356 3053 
L 1172 3053 
L 1172 1153 
Q 1172 725 1289 603 
Q 1406 481 1766 481 
L 2356 481 
L 2356 0 
L 1766 0 
Q 1100 0 847 248 
Q 594 497 594 1153 
L 594 3053 
L 172 3053 
L 172 3500 
L 594 3500 
L 594 4494 
L 1172 4494 
z
" transform="scale(0.015625)"/>
       <path id="DejaVuSans-6e" d="M 3513 2113 
L 3513 0 
L 2938 0 
L 2938 2094 
Q 2938 2591 2744 2837 
Q 2550 3084 2163 3084 
Q 1697 3084 1428 2787 
Q 1159 2491 1159 1978 
L 1159 0 
L 581 0 
L 581 3500 
L 1159 3500 
L 1159 2956 
Q 1366 3272 1645 3428 
Q 1925 3584 2291 3584 
Q 2894 3584 3203 3211 
Q 3513 2838 3513 2113 
z
" transform="scale(0.015625)"/>
      </defs>
      <use xlink:href="#DejaVuSans-44"/>
      <use xlink:href="#DejaVuSans-75" x="77.001953"/>
      <use xlink:href="#DejaVuSans-72" x="140.380859"/>
      <use xlink:href="#DejaVuSans-61" x="181.494141"/>
      <use xlink:href="#DejaVuSans-74" x="242.773438"/>
      <use xlink:href="#DejaVuSans-69" x="281.982422"/>
      <use xlink:href="#DejaVuSans-6f" x="309.765625"/>
      <use xlink:href="#DejaVuSans-6e" x="370.947266"/>
     </g>
    </g>
   </g>
   <g id="line2d_14">
    <path d="M 177.198545 244.722083 
L 178.499332 241.92754 
L 179.800118 244.722083 
L 181.100904 241.228905 
L 182.40169 244.023447 
L 183.702476 244.722083 
L 185.003262 244.372765 
L 186.304049 234.591866 
L 187.604835 245.071401 
L 190.206407 243.674129 
L 191.507193 244.023447 
L 192.807979 243.324812 
L 194.108766 241.228905 
L 195.409552 244.722083 
L 196.710338 240.180951 
L 198.011124 244.722083 
L 199.31191 245.770036 
L 200.612696 244.023447 
L 201.913482 245.071401 
L 203.214269 245.420719 
L 204.515055 245.071401 
L 205.815841 244.372765 
L 207.116627 245.420719 
L 208.417413 242.276858 
L 209.718199 245.420719 
L 211.018986 244.372765 
L 212.319772 242.626176 
L 213.620558 244.722083 
L 214.921344 244.372765 
L 216.22213 238.434362 
L 217.522916 244.372765 
L 218.823703 245.770036 
L 220.124489 244.372765 
L 221.425275 240.530269 
L 222.726061 244.372765 
L 224.026847 245.770036 
L 225.327633 246.119354 
L 226.628419 243.674129 
L 227.929206 243.324812 
L 229.229992 245.420719 
L 230.530778 242.276858 
L 231.831564 242.276858 
L 233.13235 244.722083 
L 234.433136 245.770036 
L 235.733923 244.722083 
L 237.034709 245.071401 
L 238.335495 245.770036 
L 239.636281 245.420719 
L 240.937067 246.468672 
L 242.237853 245.770036 
L 243.53864 245.420719 
L 244.839426 244.722083 
L 246.140212 245.770036 
L 250.04257 245.770036 
L 251.343357 243.324812 
L 252.644143 245.420719 
L 253.944929 243.674129 
L 255.245715 245.420719 
L 256.546501 245.071401 
L 257.847287 246.119354 
L 259.148073 244.372765 
L 260.44886 244.372765 
L 261.749646 244.722083 
L 263.050432 245.770036 
L 264.351218 245.770036 
L 265.652004 246.119354 
L 268.253577 244.722083 
L 269.554363 245.770036 
L 270.855149 245.420719 
L 272.155935 245.770036 
L 273.456721 245.420719 
L 274.757507 245.770036 
L 276.058294 244.023447 
L 277.35908 245.770036 
L 278.659866 243.674129 
L 279.960652 245.071401 
L 281.261438 246.119354 
L 282.562224 244.722083 
L 283.86301 244.023447 
L 285.163797 245.420719 
L 286.464583 246.119354 
L 287.765369 245.420719 
L 289.066155 242.975494 
L 290.366941 246.119354 
L 291.667727 245.071401 
L 292.968514 245.071401 
L 294.2693 245.770036 
L 295.570086 245.071401 
L 296.870872 246.468672 
L 299.472444 245.071401 
L 300.773231 245.770036 
L 302.074017 246.119354 
L 303.374803 245.770036 
L 304.675589 245.770036 
L 305.976375 245.071401 
L 307.277161 245.420719 
L 308.577947 245.071401 
L 309.878734 245.420719 
L 311.17952 244.372765 
L 312.480306 244.722083 
L 313.781092 243.674129 
L 315.081878 244.023447 
L 316.382664 245.071401 
L 317.683451 245.420719 
L 318.984237 245.071401 
L 320.285023 245.420719 
L 322.886595 245.420719 
L 324.187381 244.372765 
L 325.488168 245.770036 
L 326.788954 244.023447 
L 328.08974 245.071401 
L 329.390526 243.324812 
L 330.691312 244.722083 
L 331.992098 243.674129 
L 333.292885 244.722083 
L 334.593671 244.023447 
L 335.894457 244.372765 
L 337.195243 243.674129 
L 338.496029 244.372765 
L 339.796815 244.722083 
L 341.097601 244.023447 
L 342.398388 242.975494 
L 343.699174 243.324812 
L 344.99996 244.023447 
L 346.300746 243.674129 
L 347.601532 244.023447 
L 348.902318 244.722083 
L 350.203105 242.626176 
L 351.503891 244.372765 
L 352.804677 243.674129 
L 354.105463 241.92754 
L 355.406249 242.975494 
L 356.707035 241.578223 
L 358.007822 243.674129 
L 359.308608 240.530269 
L 360.609394 241.578223 
L 361.91018 244.023447 
L 363.210966 244.023447 
L 364.511752 241.228905 
L 365.812538 241.228905 
L 367.113325 241.578223 
L 368.414111 241.228905 
L 369.714897 242.276858 
L 371.015683 237.386409 
L 372.316469 241.92754 
L 373.617255 241.228905 
L 374.918042 241.228905 
L 376.218828 230.74937 
L 377.519614 237.037091 
L 378.8204 241.228905 
L 380.121186 240.530269 
L 381.421972 233.893231 
L 382.722759 234.941184 
L 384.023545 231.098688 
L 385.324331 226.557556 
L 386.625117 218.173929 
L 387.925903 219.920518 
L 389.226689 216.078022 
L 390.527475 216.078022 
L 391.828262 211.53689 
L 393.129048 220.619153 
L 394.429834 210.838255 
L 395.73062 211.187572 
L 397.031406 205.598487 
L 398.332192 203.153263 
L 399.632979 203.153263 
L 400.933765 213.982115 
L 402.234551 203.851898 
L 403.535337 209.440983 
L 404.836123 196.865542 
L 406.136909 188.831232 
L 407.437696 155.995357 
L 408.738482 188.831232 
L 410.039268 206.995759 
L 411.340054 201.755991 
L 412.64084 211.53689 
L 413.941626 190.577821 
L 415.242413 203.50258 
L 416.543199 203.153263 
L 417.843985 183.242147 
L 419.144771 185.687372 
L 420.445557 182.543511 
L 421.746343 203.50258 
L 423.047129 140.625373 
L 424.347916 190.577821 
L 425.648702 215.379386 
L 426.949488 208.39303 
L 428.250274 205.598487 
L 429.55106 208.742348 
L 430.851846 184.988736 
L 433.453419 211.886208 
L 434.754205 210.139619 
L 436.054991 213.283479 
L 437.355777 212.934161 
L 438.656563 206.297123 
L 439.95735 212.235526 
L 441.258136 213.283479 
L 442.558922 210.488937 
L 443.859708 212.584844 
L 445.160494 211.53689 
L 446.46128 202.803945 
L 447.762066 209.091665 
L 449.062853 209.790301 
L 450.363639 213.632797 
L 451.664425 219.5712 
L 452.965211 207.345076 
L 454.265997 218.173929 
L 455.566783 217.824611 
L 456.86757 217.824611 
L 458.168356 215.379386 
L 459.469142 206.297123 
L 460.769928 207.345076 
L 462.070714 220.619153 
L 463.3715 218.173929 
L 464.672287 219.221882 
L 465.973073 212.584844 
L 467.273859 211.53689 
L 468.574645 220.968471 
L 469.875431 218.523247 
L 471.176217 219.221882 
L 472.477003 214.331433 
L 473.77779 217.475293 
L 475.078576 223.413696 
L 476.379362 217.824611 
L 477.680148 215.728704 
L 478.980934 222.365743 
L 480.28172 221.317789 
L 481.582507 219.920518 
L 482.883293 221.317789 
L 484.184079 217.125975 
L 485.484865 220.968471 
L 486.785651 222.365743 
L 488.086437 204.899852 
L 489.387224 211.886208 
L 490.68801 205.598487 
L 491.988796 220.619153 
L 493.289582 205.249169 
L 494.590368 211.187572 
L 495.891154 205.598487 
L 497.191941 202.454627 
L 498.492727 210.139619 
L 499.793513 187.783279 
L 501.094299 204.201216 
L 502.395085 209.790301 
L 503.695871 191.276457 
L 504.996657 193.721681 
L 506.297444 201.057356 
L 507.59823 207.694394 
L 508.899016 194.420317 
L 510.199802 204.201216 
L 511.500588 207.694394 
L 512.801374 206.995759 
L 514.102161 205.947805 
L 515.402947 165.776256 
L 516.703733 191.276457 
L 518.004519 205.598487 
L 519.305305 203.50258 
L 520.606091 203.153263 
L 521.906878 194.070999 
L 523.207664 203.851898 
L 524.50845 200.708038 
L 525.809236 188.831232 
L 527.110022 194.070999 
L 528.410808 192.673728 
L 529.711594 198.262813 
L 531.012381 160.885807 
L 532.313167 200.009402 
L 533.613953 186.735325 
L 534.914739 197.21486 
L 536.215525 202.454627 
L 537.516311 198.262813 
L 538.817098 199.310767 
L 540.117884 203.851898 
L 541.41867 193.372364 
L 542.719456 202.803945 
L 544.020242 200.009402 
L 545.321028 187.783279 
L 546.621815 194.769635 
L 547.922601 195.817588 
L 549.223387 202.803945 
L 550.524173 194.420317 
L 551.824959 210.139619 
L 553.125745 194.769635 
L 554.426531 191.625775 
L 555.727318 197.913495 
L 557.028104 196.865542 
L 558.32889 200.708038 
L 559.629676 196.166906 
L 560.930462 218.173929 
L 563.532035 213.283479 
L 564.832821 203.153263 
L 566.133607 195.817588 
L 567.434393 220.968471 
L 568.735179 198.612131 
L 570.035965 220.269836 
L 571.336752 196.865542 
L 572.637538 211.187572 
L 573.938324 174.159884 
L 575.23911 205.249169 
L 576.539896 223.763014 
L 577.840682 221.317789 
L 579.141469 195.468271 
L 580.442255 200.35872 
L 581.743041 199.310767 
L 583.043827 193.372364 
L 584.344613 217.125975 
L 585.645399 219.5712 
L 586.946185 188.481914 
L 588.246972 221.317789 
L 589.547758 220.619153 
L 590.848544 219.5712 
L 592.14933 189.879185 
L 593.450116 226.906874 
L 594.750902 216.42734 
L 596.051689 224.112332 
L 597.352475 188.481914 
L 598.653261 223.064378 
L 599.954047 218.173929 
L 601.254833 225.858921 
L 602.555619 189.879185 
L 603.856406 184.2901 
L 605.157192 217.125975 
L 606.457978 222.71506 
L 607.758764 191.975092 
L 609.05955 214.331433 
L 610.360336 187.084643 
L 611.661122 181.844876 
L 612.961909 188.831232 
L 614.262695 204.550534 
L 615.563481 183.591465 
L 616.864267 219.221882 
L 618.165053 219.221882 
L 619.465839 223.413696 
L 620.766626 180.098287 
L 622.067412 214.331433 
L 623.368198 219.920518 
L 624.668984 220.619153 
L 625.96977 217.475293 
L 627.270556 217.475293 
L 628.571343 177.653062 
L 629.872129 185.338054 
L 631.172915 212.235526 
L 632.473701 220.619153 
L 633.774487 221.317789 
L 635.075273 183.591465 
L 636.376059 176.954426 
L 637.676846 217.824611 
L 638.977632 199.310767 
L 640.278418 215.030068 
L 641.579204 208.39303 
L 642.87999 214.680751 
L 644.180776 154.248768 
L 645.481563 181.14624 
L 646.782349 184.988736 
L 648.083135 142.371962 
L 649.383921 146.913094 
L 650.684707 200.35872 
L 651.985493 217.125975 
L 653.28628 166.125574 
L 654.587066 160.187171 
L 655.887852 216.42734 
L 657.188638 177.303744 
L 658.489424 215.728704 
L 659.79021 213.632797 
L 661.090997 172.762612 
L 662.391783 203.50258 
L 663.692569 142.371962 
L 664.993355 215.030068 
L 666.294141 200.009402 
L 667.594927 214.331433 
L 670.1965 196.516224 
L 671.497286 184.639418 
L 672.798072 186.386007 
L 674.098858 169.269434 
L 675.399644 213.632797 
L 676.70043 216.42734 
L 678.001217 184.639418 
L 679.302003 184.2901 
L 680.602789 203.153263 
L 681.903575 181.844876 
L 683.204361 202.105309 
L 684.505147 193.023046 
L 685.805934 179.748969 
L 687.10672 216.42734 
L 688.407506 213.982115 
L 689.708292 169.96807 
L 691.009078 191.975092 
L 692.309864 196.516224 
L 693.61065 194.070999 
L 694.911437 200.708038 
L 696.212223 195.817588 
L 697.513009 196.166906 
L 698.813795 189.529868 
L 700.114581 156.693993 
L 701.415367 182.194193 
L 702.716154 189.529868 
L 704.01694 210.488937 
L 705.317726 192.32441 
L 706.618512 187.084643 
L 707.919298 189.879185 
L 709.220084 179.748969 
L 710.520871 131.193792 
L 711.821657 202.454627 
L 713.122443 176.255791 
L 714.423229 204.899852 
L 715.724015 194.070999 
L 717.024801 187.433961 
L 718.325587 158.440582 
L 719.626374 204.550534 
L 720.92716 188.831232 
L 722.227946 182.194193 
L 723.528732 186.735325 
L 724.829518 198.612131 
L 726.130304 143.769233 
L 727.431091 174.509201 
L 728.731877 186.386007 
L 730.032663 158.091264 
L 731.333449 186.386007 
L 732.634235 190.577821 
L 733.935021 154.947404 
L 735.235808 180.796922 
L 736.536594 173.461248 
L 737.83738 190.228503 
L 739.138166 154.947404 
L 740.438952 185.687372 
L 741.739738 117.570397 
L 743.040525 168.221481 
L 744.341311 180.447604 
L 745.642097 127.351296 
L 746.942883 155.995357 
L 748.243669 170.317388 
L 749.544455 162.981713 
L 750.845241 177.303744 
L 752.146028 151.803543 
L 753.446814 153.550132 
L 754.7476 150.406272 
L 756.048386 145.515823 
L 757.349172 139.926737 
L 758.649958 147.262412 
L 759.950745 136.782877 
L 761.251531 148.310365 
L 762.552317 158.091264 
L 763.853103 173.461248 
L 765.153889 158.091264 
L 766.454675 157.392628 
L 767.755462 157.741946 
L 769.056248 121.762211 
L 770.357034 119.316986 
L 771.65782 147.611729 
L 772.958606 95.912692 
L 774.259392 87.179747 
L 775.560178 74.604305 
L 956.369455 74.604305 
L 956.369455 74.604305 
" clip-path="url(#p1e2741322f)" style="fill: none; stroke: #1f77b4; stroke-width: 1.5; stroke-linecap: square"/>
   </g>
   <g id="line2d_15">
    <path d="M 177.198545 249.263215 
L 304.675589 249.263215 
L 305.976375 244.589342 
L 315.081878 244.659206 
L 317.683451 244.767494 
L 354.105463 244.854824 
L 361.91018 244.767494 
L 367.113325 244.645233 
L 374.918042 244.362286 
L 377.519614 244.124749 
L 381.421972 243.932625 
L 385.324331 243.513444 
L 393.129048 241.833224 
L 397.031406 240.736367 
L 402.234551 239.160943 
L 403.535337 238.801146 
L 406.136909 237.760179 
L 407.437696 236.862432 
L 408.738482 236.314003 
L 412.64084 235.157761 
L 415.242413 234.204123 
L 416.543199 233.774462 
L 420.445557 231.944036 
L 421.746343 231.528349 
L 423.047129 230.483889 
L 424.347916 229.931966 
L 426.949488 229.25429 
L 429.55106 228.489283 
L 430.851846 227.881471 
L 432.152633 227.406399 
L 454.265997 221.702038 
L 459.469142 220.493399 
L 460.769928 220.119629 
L 464.672287 219.375583 
L 468.574645 218.502288 
L 478.980934 216.476244 
L 486.785651 215.134865 
L 489.387224 214.460681 
L 490.68801 214.100882 
L 491.988796 213.866839 
L 494.590368 213.178683 
L 498.492727 212.12025 
L 499.793513 211.575315 
L 502.395085 210.92209 
L 504.996657 209.947493 
L 507.59823 209.357148 
L 510.199802 208.52577 
L 514.102161 207.732819 
L 515.402947 207.125007 
L 516.703733 206.856031 
L 529.711594 205.521637 
L 531.012381 204.990675 
L 532.313167 204.95225 
L 533.613953 204.725193 
L 534.914739 204.728687 
L 536.215525 204.86492 
L 537.516311 205.287595 
L 538.817098 205.392391 
L 545.321028 205.126909 
L 546.621815 205.043073 
L 551.824959 205.525131 
L 553.125745 206.066572 
L 554.426531 206.077054 
L 557.028104 205.787119 
L 559.629676 205.61246 
L 560.930462 205.944311 
L 562.231248 206.115479 
L 564.832821 206.059587 
L 566.133607 205.884928 
L 567.434393 205.965272 
L 568.735179 205.888422 
L 570.035965 205.968763 
L 571.336752 205.804584 
L 572.637538 205.811571 
L 573.938324 205.427322 
L 575.23911 205.364445 
L 577.840682 205.696296 
L 584.344613 205.067525 
L 585.645399 205.08499 
L 586.946185 204.791564 
L 589.547758 204.994166 
L 590.848544 205.11643 
L 592.14933 204.809028 
L 593.450116 204.896358 
L 594.750902 204.868414 
L 596.051689 204.983687 
L 597.352475 204.753139 
L 601.254833 204.836974 
L 605.157192 204.197725 
L 606.457978 204.246629 
L 607.758764 204.00909 
L 609.05955 203.928749 
L 612.961909 202.880795 
L 614.262695 202.75504 
L 615.563481 202.381268 
L 616.864267 202.34983 
L 619.465839 202.608328 
L 620.766626 202.353327 
L 622.067412 202.290447 
L 627.270556 202.800453 
L 628.571343 202.475585 
L 631.172915 202.531477 
L 632.473701 202.639765 
L 633.774487 202.940178 
L 635.075273 202.838879 
L 636.376059 202.597848 
L 640.278418 202.85634 
L 642.87999 202.940178 
L 644.180776 202.42319 
L 645.481563 202.57689 
L 646.782349 202.51401 
L 649.383921 201.315853 
L 650.684707 201.287907 
L 651.985493 201.518458 
L 654.587066 200.735984 
L 655.887852 201.011943 
L 657.188638 200.844272 
L 659.79021 201.228523 
L 662.391783 201.382219 
L 663.692569 200.938589 
L 664.993355 201.116739 
L 666.294141 201.09229 
L 668.895713 201.312356 
L 672.798072 200.987493 
L 674.098858 200.680092 
L 676.70043 201.155164 
L 679.302003 200.858242 
L 680.602789 200.945571 
L 681.903575 200.662625 
L 684.505147 200.749954 
L 685.805934 200.568313 
L 688.407506 200.896667 
L 692.309864 200.18057 
L 693.61065 199.988444 
L 696.212223 199.963989 
L 697.513009 199.715976 
L 698.813795 199.62515 
L 700.114581 198.989395 
L 702.716154 198.626101 
L 704.01694 198.989395 
L 705.317726 198.860149 
L 707.919298 198.178975 
L 709.220084 198.021783 
L 710.520871 197.330135 
L 711.821657 197.361572 
L 715.724015 196.813146 
L 717.024801 196.802667 
L 718.325587 196.173894 
L 719.626374 196.013205 
L 720.92716 195.705804 
L 722.227946 195.628959 
L 723.528732 195.22724 
L 724.829518 195.04909 
L 726.130304 194.245658 
L 727.431091 194.105933 
L 728.731877 193.739148 
L 730.032663 193.138321 
L 731.333449 192.74359 
L 732.634235 192.750578 
L 735.235808 192.093859 
L 736.536594 191.60132 
L 737.83738 191.583858 
L 739.138166 190.990014 
L 740.438952 190.976043 
L 741.739738 190.3333 
L 744.341311 189.886173 
L 749.544455 187.598141 
L 750.845241 187.570194 
L 754.7476 185.579084 
L 757.349172 184.084004 
L 758.649958 183.780094 
L 759.950745 183.294542 
L 762.552317 182.030014 
L 763.853103 181.55145 
L 766.454675 181.100827 
L 767.755462 180.5 
L 769.056248 179.724514 
L 770.357034 178.767387 
L 771.65782 178.159572 
L 772.958606 176.971893 
L 774.259392 176.301204 
L 776.860965 174.131938 
L 779.462537 172.731175 
L 780.763323 171.473629 
L 782.064109 170.048411 
L 784.665682 168.277373 
L 785.966468 166.859143 
L 787.267254 165.832148 
L 789.868826 163.030618 
L 791.169612 162.049036 
L 792.470399 160.760052 
L 793.771185 160.082374 
L 797.673543 156.026794 
L 800.275115 153.501223 
L 804.177474 150.336404 
L 806.779046 147.527897 
L 809.380619 145.330685 
L 810.681405 144.045198 
L 811.982191 142.972789 
L 814.583763 140.513589 
L 815.884549 139.462149 
L 818.486122 136.650135 
L 819.786908 135.696504 
L 823.689266 132.109003 
L 827.591625 128.420208 
L 828.892411 127.270949 
L 830.193197 126.450061 
L 832.794769 124.224897 
L 834.095556 122.866056 
L 837.997914 119.411298 
L 839.2987 118.359859 
L 840.599486 117.793966 
L 841.900273 116.515461 
L 843.201059 115.498945 
L 845.802631 113.001325 
L 847.103417 111.873024 
L 848.404203 111.034664 
L 849.70499 109.735201 
L 854.908134 105.155639 
L 856.20892 104.463996 
L 861.412065 100.394435 
L 862.712851 99.234708 
L 864.013637 98.431271 
L 867.915996 95.224536 
L 869.216782 94.421109 
L 870.517568 93.31027 
L 871.818354 92.880616 
L 874.419927 90.886004 
L 875.720713 90.358541 
L 877.021499 89.544625 
L 880.923857 86.676728 
L 886.127002 83.648149 
L 890.02936 81.646554 
L 892.630933 80.074624 
L 893.931719 79.086048 
L 897.834077 76.591925 
L 900.43565 75.673217 
L 901.736436 74.943144 
L 904.338008 74.604305 
L 956.369455 74.604305 
L 956.369455 74.604305 
" clip-path="url(#p1e2741322f)" style="fill: none; stroke: #ff7f0e; stroke-width: 1.5; stroke-linecap: square"/>
   </g>
   <g id="patch_3">
    <path d="M 138.24 257.99616 
L 138.24 65.87136 
" style="fill: none; stroke: #000000; stroke-width: 0.8; stroke-linejoin: miter; stroke-linecap: square"/>
   </g>
   <g id="patch_4">
    <path d="M 995.328 257.99616 
L 995.328 65.87136 
" style="fill: none; stroke: #000000; stroke-width: 0.8; stroke-linejoin: miter; stroke-linecap: square"/>
   </g>
   <g id="patch_5">
    <path d="M 138.24 257.99616 
L 995.328 257.99616 
" style="fill: none; stroke: #000000; stroke-width: 0.8; stroke-linejoin: miter; stroke-linecap: square"/>
   </g>
   <g id="patch_6">
    <path d="M 138.24 65.87136 
L 995.328 65.87136 
" style="fill: none; stroke: #000000; stroke-width: 0.8; stroke-linejoin: miter; stroke-linecap: square"/>
   </g>
  </g>
  <g id="axes_2">
   <g id="patch_7">
    <path d="M 138.24 488.54592 
L 995.328 488.54592 
L 995.328 296.42112 
L 138.24 296.42112 
z
" style="fill: #ffffff"/>
   </g>
   <g id="matplotlib.axis_3">
    <g id="xtick_8">
     <g id="line2d_16">
      <g>
       <use xlink:href="#m95d183ad0c" x="177.198545" y="488.54592" style="stroke: #000000; stroke-width: 0.8"/>
      </g>
     </g>
     <g id="text_16">
      <!-- 0 -->
      <g transform="translate(174.017295 503.144358) scale(0.1 -0.1)">
       <use xlink:href="#DejaVuSans-30"/>
      </g>
     </g>
    </g>
    <g id="xtick_9">
     <g id="line2d_17">
      <g>
       <use xlink:href="#m95d183ad0c" x="308.539039" y="488.54592" style="stroke: #000000; stroke-width: 0.8"/>
      </g>
     </g>
     <g id="text_17">
      <!-- 20000 -->
      <g transform="translate(292.632789 503.144358) scale(0.1 -0.1)">
       <use xlink:href="#DejaVuSans-32"/>
       <use xlink:href="#DejaVuSans-30" x="63.623047"/>
       <use xlink:href="#DejaVuSans-30" x="127.246094"/>
       <use xlink:href="#DejaVuSans-30" x="190.869141"/>
       <use xlink:href="#DejaVuSans-30" x="254.492188"/>
      </g>
     </g>
    </g>
    <g id="xtick_10">
     <g id="line2d_18">
      <g>
       <use xlink:href="#m95d183ad0c" x="439.879532" y="488.54592" style="stroke: #000000; stroke-width: 0.8"/>
      </g>
     </g>
     <g id="text_18">
      <!-- 40000 -->
      <g transform="translate(423.973282 503.144358) scale(0.1 -0.1)">
       <use xlink:href="#DejaVuSans-34"/>
       <use xlink:href="#DejaVuSans-30" x="63.623047"/>
       <use xlink:href="#DejaVuSans-30" x="127.246094"/>
       <use xlink:href="#DejaVuSans-30" x="190.869141"/>
       <use xlink:href="#DejaVuSans-30" x="254.492188"/>
      </g>
     </g>
    </g>
    <g id="xtick_11">
     <g id="line2d_19">
      <g>
       <use xlink:href="#m95d183ad0c" x="571.220025" y="488.54592" style="stroke: #000000; stroke-width: 0.8"/>
      </g>
     </g>
     <g id="text_19">
      <!-- 60000 -->
      <g transform="translate(555.313775 503.144358) scale(0.1 -0.1)">
       <use xlink:href="#DejaVuSans-36"/>
       <use xlink:href="#DejaVuSans-30" x="63.623047"/>
       <use xlink:href="#DejaVuSans-30" x="127.246094"/>
       <use xlink:href="#DejaVuSans-30" x="190.869141"/>
       <use xlink:href="#DejaVuSans-30" x="254.492188"/>
      </g>
     </g>
    </g>
    <g id="xtick_12">
     <g id="line2d_20">
      <g>
       <use xlink:href="#m95d183ad0c" x="702.560518" y="488.54592" style="stroke: #000000; stroke-width: 0.8"/>
      </g>
     </g>
     <g id="text_20">
      <!-- 80000 -->
      <g transform="translate(686.654268 503.144358) scale(0.1 -0.1)">
       <defs>
        <path id="DejaVuSans-38" d="M 2034 2216 
Q 1584 2216 1326 1975 
Q 1069 1734 1069 1313 
Q 1069 891 1326 650 
Q 1584 409 2034 409 
Q 2484 409 2743 651 
Q 3003 894 3003 1313 
Q 3003 1734 2745 1975 
Q 2488 2216 2034 2216 
z
M 1403 2484 
Q 997 2584 770 2862 
Q 544 3141 544 3541 
Q 544 4100 942 4425 
Q 1341 4750 2034 4750 
Q 2731 4750 3128 4425 
Q 3525 4100 3525 3541 
Q 3525 3141 3298 2862 
Q 3072 2584 2669 2484 
Q 3125 2378 3379 2068 
Q 3634 1759 3634 1313 
Q 3634 634 3220 271 
Q 2806 -91 2034 -91 
Q 1263 -91 848 271 
Q 434 634 434 1313 
Q 434 1759 690 2068 
Q 947 2378 1403 2484 
z
M 1172 3481 
Q 1172 3119 1398 2916 
Q 1625 2713 2034 2713 
Q 2441 2713 2670 2916 
Q 2900 3119 2900 3481 
Q 2900 3844 2670 4047 
Q 2441 4250 2034 4250 
Q 1625 4250 1398 4047 
Q 1172 3844 1172 3481 
z
" transform="scale(0.015625)"/>
       </defs>
       <use xlink:href="#DejaVuSans-38"/>
       <use xlink:href="#DejaVuSans-30" x="63.623047"/>
       <use xlink:href="#DejaVuSans-30" x="127.246094"/>
       <use xlink:href="#DejaVuSans-30" x="190.869141"/>
       <use xlink:href="#DejaVuSans-30" x="254.492188"/>
      </g>
     </g>
    </g>
    <g id="xtick_13">
     <g id="line2d_21">
      <g>
       <use xlink:href="#m95d183ad0c" x="833.901012" y="488.54592" style="stroke: #000000; stroke-width: 0.8"/>
      </g>
     </g>
     <g id="text_21">
      <!-- 100000 -->
      <g transform="translate(814.813512 503.144358) scale(0.1 -0.1)">
       <use xlink:href="#DejaVuSans-31"/>
       <use xlink:href="#DejaVuSans-30" x="63.623047"/>
       <use xlink:href="#DejaVuSans-30" x="127.246094"/>
       <use xlink:href="#DejaVuSans-30" x="190.869141"/>
       <use xlink:href="#DejaVuSans-30" x="254.492188"/>
       <use xlink:href="#DejaVuSans-30" x="318.115234"/>
      </g>
     </g>
    </g>
    <g id="xtick_14">
     <g id="line2d_22">
      <g>
       <use xlink:href="#m95d183ad0c" x="965.241505" y="488.54592" style="stroke: #000000; stroke-width: 0.8"/>
      </g>
     </g>
     <g id="text_22">
      <!-- 120000 -->
      <g transform="translate(946.154005 503.144358) scale(0.1 -0.1)">
       <use xlink:href="#DejaVuSans-31"/>
       <use xlink:href="#DejaVuSans-32" x="63.623047"/>
       <use xlink:href="#DejaVuSans-30" x="127.246094"/>
       <use xlink:href="#DejaVuSans-30" x="190.869141"/>
       <use xlink:href="#DejaVuSans-30" x="254.492188"/>
       <use xlink:href="#DejaVuSans-30" x="318.115234"/>
      </g>
     </g>
    </g>
    <g id="text_23">
     <!-- Timestep -->
     <g transform="translate(543.734781 516.822482) scale(0.1 -0.1)">
      <defs>
       <path id="DejaVuSans-54" d="M -19 4666 
L 3928 4666 
L 3928 4134 
L 2272 4134 
L 2272 0 
L 1638 0 
L 1638 4134 
L -19 4134 
L -19 4666 
z
" transform="scale(0.015625)"/>
       <path id="DejaVuSans-6d" d="M 3328 2828 
Q 3544 3216 3844 3400 
Q 4144 3584 4550 3584 
Q 5097 3584 5394 3201 
Q 5691 2819 5691 2113 
L 5691 0 
L 5113 0 
L 5113 2094 
Q 5113 2597 4934 2840 
Q 4756 3084 4391 3084 
Q 3944 3084 3684 2787 
Q 3425 2491 3425 1978 
L 3425 0 
L 2847 0 
L 2847 2094 
Q 2847 2600 2669 2842 
Q 2491 3084 2119 3084 
Q 1678 3084 1418 2786 
Q 1159 2488 1159 1978 
L 1159 0 
L 581 0 
L 581 3500 
L 1159 3500 
L 1159 2956 
Q 1356 3278 1631 3431 
Q 1906 3584 2284 3584 
Q 2666 3584 2933 3390 
Q 3200 3197 3328 2828 
z
" transform="scale(0.015625)"/>
      </defs>
      <use xlink:href="#DejaVuSans-54"/>
      <use xlink:href="#DejaVuSans-69" x="57.958984"/>
      <use xlink:href="#DejaVuSans-6d" x="85.742188"/>
      <use xlink:href="#DejaVuSans-65" x="183.154297"/>
      <use xlink:href="#DejaVuSans-73" x="244.677734"/>
      <use xlink:href="#DejaVuSans-74" x="296.777344"/>
      <use xlink:href="#DejaVuSans-65" x="335.986328"/>
      <use xlink:href="#DejaVuSans-70" x="397.509766"/>
     </g>
    </g>
   </g>
   <g id="matplotlib.axis_4">
    <g id="ytick_7">
     <g id="line2d_23">
      <g>
       <use xlink:href="#m932da9e011" x="138.24" y="479.812975" style="stroke: #000000; stroke-width: 0.8"/>
      </g>
     </g>
     <g id="text_24">
      <!-- 0 -->
      <g transform="translate(124.8775 483.612193) scale(0.1 -0.1)">
       <use xlink:href="#DejaVuSans-30"/>
      </g>
     </g>
    </g>
    <g id="ytick_8">
     <g id="line2d_24">
      <g>
       <use xlink:href="#m932da9e011" x="138.24" y="444.881193" style="stroke: #000000; stroke-width: 0.8"/>
      </g>
     </g>
     <g id="text_25">
      <!-- 100 -->
      <g transform="translate(112.1525 448.680411) scale(0.1 -0.1)">
       <use xlink:href="#DejaVuSans-31"/>
       <use xlink:href="#DejaVuSans-30" x="63.623047"/>
       <use xlink:href="#DejaVuSans-30" x="127.246094"/>
      </g>
     </g>
    </g>
    <g id="ytick_9">
     <g id="line2d_25">
      <g>
       <use xlink:href="#m932da9e011" x="138.24" y="409.949411" style="stroke: #000000; stroke-width: 0.8"/>
      </g>
     </g>
     <g id="text_26">
      <!-- 200 -->
      <g transform="translate(112.1525 413.74863) scale(0.1 -0.1)">
       <use xlink:href="#DejaVuSans-32"/>
       <use xlink:href="#DejaVuSans-30" x="63.623047"/>
       <use xlink:href="#DejaVuSans-30" x="127.246094"/>
      </g>
     </g>
    </g>
    <g id="ytick_10">
     <g id="line2d_26">
      <g>
       <use xlink:href="#m932da9e011" x="138.24" y="375.017629" style="stroke: #000000; stroke-width: 0.8"/>
      </g>
     </g>
     <g id="text_27">
      <!-- 300 -->
      <g transform="translate(112.1525 378.816848) scale(0.1 -0.1)">
       <use xlink:href="#DejaVuSans-33"/>
       <use xlink:href="#DejaVuSans-30" x="63.623047"/>
       <use xlink:href="#DejaVuSans-30" x="127.246094"/>
      </g>
     </g>
    </g>
    <g id="ytick_11">
     <g id="line2d_27">
      <g>
       <use xlink:href="#m932da9e011" x="138.24" y="340.085847" style="stroke: #000000; stroke-width: 0.8"/>
      </g>
     </g>
     <g id="text_28">
      <!-- 400 -->
      <g transform="translate(112.1525 343.885066) scale(0.1 -0.1)">
       <use xlink:href="#DejaVuSans-34"/>
       <use xlink:href="#DejaVuSans-30" x="63.623047"/>
       <use xlink:href="#DejaVuSans-30" x="127.246094"/>
      </g>
     </g>
    </g>
    <g id="ytick_12">
     <g id="line2d_28">
      <g>
       <use xlink:href="#m932da9e011" x="138.24" y="305.154065" style="stroke: #000000; stroke-width: 0.8"/>
      </g>
     </g>
     <g id="text_29">
      <!-- 500 -->
      <g transform="translate(112.1525 308.953284) scale(0.1 -0.1)">
       <use xlink:href="#DejaVuSans-35"/>
       <use xlink:href="#DejaVuSans-30" x="63.623047"/>
       <use xlink:href="#DejaVuSans-30" x="127.246094"/>
      </g>
     </g>
    </g>
    <g id="text_30">
     <!-- Duration -->
     <g transform="translate(106.072812 414.199145) rotate(-90) scale(0.1 -0.1)">
      <use xlink:href="#DejaVuSans-44"/>
      <use xlink:href="#DejaVuSans-75" x="77.001953"/>
      <use xlink:href="#DejaVuSans-72" x="140.380859"/>
      <use xlink:href="#DejaVuSans-61" x="181.494141"/>
      <use xlink:href="#DejaVuSans-74" x="242.773438"/>
      <use xlink:href="#DejaVuSans-69" x="281.982422"/>
      <use xlink:href="#DejaVuSans-6f" x="309.765625"/>
      <use xlink:href="#DejaVuSans-6e" x="370.947266"/>
     </g>
    </g>
   </g>
   <g id="line2d_29">
    <path d="M 177.198545 475.271843 
L 177.336453 472.4773 
L 177.421824 475.271843 
L 177.572866 471.778665 
L 177.756743 475.271843 
L 177.848681 474.922525 
L 178.124496 465.141626 
L 178.2033 475.621161 
L 178.295239 474.922525 
L 178.400311 474.223889 
L 178.498816 474.573207 
L 178.610456 473.874572 
L 178.761497 471.778665 
L 178.846869 475.271843 
L 179.017611 470.730711 
L 179.168653 476.319796 
L 179.267158 474.573207 
L 179.4182 475.970479 
L 179.588942 474.922525 
L 179.66118 475.970479 
L 179.79252 472.826618 
L 179.864757 475.970479 
L 180.081469 473.175936 
L 180.166841 475.271843 
L 180.258779 474.922525 
L 180.462357 468.984122 
L 180.619965 476.319796 
L 180.876079 471.080029 
L 181.092791 476.669114 
L 181.309503 473.874572 
L 181.38174 475.970479 
L 181.513081 472.826618 
L 181.644421 472.826618 
L 181.795463 476.319796 
L 181.880834 475.271843 
L 181.959638 475.621161 
L 182.150082 477.018432 
L 182.373361 475.271843 
L 182.504701 476.319796 
L 182.636042 476.319796 
L 182.747681 473.874572 
L 182.819919 475.970479 
L 182.924991 474.223889 
L 183.135136 476.669114 
L 183.319012 474.922525 
L 183.404384 475.271843 
L 183.594827 476.669114 
L 183.752436 475.271843 
L 183.818106 476.319796 
L 183.890344 475.970479 
L 183.956014 476.319796 
L 184.028251 475.970479 
L 184.093921 476.319796 
L 184.192427 474.573207 
L 184.258097 476.319796 
L 184.363169 474.223889 
L 184.501077 476.669114 
L 184.684954 474.573207 
L 184.816294 476.669114 
L 184.888531 475.970479 
L 185.006738 473.525254 
L 185.065841 476.669114 
L 185.144645 475.621161 
L 185.22345 475.621161 
L 185.28912 476.319796 
L 185.367924 475.621161 
L 185.42046 477.018432 
L 185.486131 476.319796 
L 185.564935 475.621161 
L 185.689708 476.669114 
L 185.899853 475.621161 
L 185.97209 475.970479 
L 186.050895 475.621161 
L 186.123132 475.970479 
L 186.21507 474.922525 
L 186.300442 475.271843 
L 186.405514 474.223889 
L 186.504019 474.573207 
L 186.655061 475.970479 
L 186.733865 475.621161 
L 186.87834 475.970479 
L 186.950577 475.970479 
L 187.042515 474.922525 
L 187.108186 476.319796 
L 187.206691 474.573207 
L 187.285495 475.621161 
L 187.397135 473.874572 
L 187.482506 475.271843 
L 187.587578 474.223889 
L 187.67295 475.271843 
L 187.771455 474.573207 
L 187.863394 474.922525 
L 187.968466 474.223889 
L 188.145776 475.271843 
L 188.362487 473.525254 
L 188.474127 473.874572 
L 188.572632 474.573207 
L 188.677705 474.223889 
L 188.861581 475.271843 
L 188.986355 473.175936 
L 189.078293 474.922525 
L 189.183365 474.223889 
L 189.321273 472.4773 
L 189.439479 473.525254 
L 189.583954 472.127983 
L 189.689026 474.223889 
L 189.853202 471.080029 
L 189.997677 472.127983 
L 190.194687 474.573207 
L 190.345729 471.778665 
L 190.49677 471.778665 
L 190.641245 472.127983 
L 190.792287 471.778665 
L 190.923627 472.826618 
L 191.146906 467.936169 
L 191.284813 472.4773 
L 191.435855 471.778665 
L 191.586896 471.778665 
L 191.934949 461.29913 
L 192.315836 471.778665 
L 192.480012 471.080029 
L 192.768961 464.442991 
L 193.038209 465.490944 
L 193.806551 457.107316 
L 194.391016 448.723689 
L 194.942646 450.470278 
L 195.566513 446.627782 
L 196.190381 446.627782 
L 196.899619 442.08665 
L 197.438115 451.168913 
L 198.160488 441.388015 
L 198.876294 441.737332 
L 199.697172 436.148247 
L 200.564019 433.703023 
L 201.430866 433.703023 
L 202.094136 444.531875 
L 202.947849 434.401658 
L 203.69649 439.990743 
L 204.681544 427.415302 
L 205.817639 419.380992 
L 207.571035 386.545117 
L 208.70713 419.380992 
L 209.50174 437.545519 
L 210.394855 432.305751 
L 211.104094 442.08665 
L 212.207354 421.127581 
L 213.067634 434.05234 
L 213.934481 433.703023 
L 215.175649 413.791907 
L 216.370848 416.237132 
L 217.625149 413.093271 
L 218.48543 434.05234 
L 220.527774 371.175133 
L 222.268036 445.929146 
L 223.036378 438.94279 
L 223.857256 436.148247 
L 224.619031 439.292108 
L 225.827363 415.538496 
L 226.779582 429.161891 
L 227.482253 442.435968 
L 228.21776 440.689379 
L 228.894164 443.833239 
L 229.577134 443.483921 
L 230.384878 436.846883 
L 231.080983 442.785286 
L 231.757386 443.833239 
L 232.486326 441.038697 
L 233.175864 443.134604 
L 233.885102 442.08665 
L 234.758517 433.353705 
L 235.513724 439.641425 
L 236.255798 440.340061 
L 236.925635 444.182557 
L 237.483832 450.12096 
L 238.271875 437.894836 
L 238.85634 448.723689 
L 239.447372 448.374371 
L 240.038404 448.374371 
L 240.675406 445.929146 
L 241.48315 436.846883 
L 242.271193 437.894836 
L 242.809689 451.168913 
L 243.394154 448.723689 
L 243.958918 449.771642 
L 244.648456 443.134604 
L 245.357694 442.08665 
L 245.889623 451.518231 
L 246.467522 449.073007 
L 247.032286 449.771642 
L 247.688988 444.881193 
L 248.286587 448.025053 
L 248.772547 453.963456 
L 249.363579 448.374371 
L 249.994014 446.278464 
L 250.499675 452.915503 
L 251.025037 451.867549 
L 251.576667 450.470278 
L 252.102029 451.867549 
L 252.706195 447.675735 
L 253.238124 451.518231 
L 253.743785 452.915503 
L 254.577797 435.449612 
L 255.280469 442.435968 
L 256.101347 436.148247 
L 256.639843 451.168913 
L 257.467288 435.798929 
L 258.183094 441.737332 
L 259.003972 436.148247 
L 259.883953 433.004387 
L 260.61946 440.689379 
L 261.775256 418.333039 
L 262.622402 434.750976 
L 263.364476 440.340061 
L 264.454602 421.826217 
L 265.498759 424.271441 
L 267.186484 438.244154 
L 268.217507 424.970077 
L 269.064653 434.750976 
L 269.846129 438.244154 
L 270.640739 437.545519 
L 271.45505 436.497565 
L 273.024569 396.326016 
L 274.114695 421.826217 
L 274.935573 436.148247 
L 275.795854 434.05234 
L 276.662701 433.703023 
L 277.700291 424.620759 
L 278.554004 434.401658 
L 279.466821 431.257798 
L 280.602916 419.380992 
L 281.640506 424.620759 
L 282.704364 423.223488 
L 283.663149 428.812573 
L 285.324607 391.435567 
L 286.250557 430.559162 
L 287.426054 417.285085 
L 288.404541 427.76462 
L 289.284522 433.004387 
L 290.243308 428.812573 
L 291.182393 429.860527 
L 292.036106 434.401658 
L 293.08683 423.922124 
L 293.960244 433.353705 
L 294.886194 430.559162 
L 296.041991 418.333039 
L 297.066447 425.319395 
L 298.071201 426.367348 
L 298.944616 433.353705 
L 299.975639 424.970077 
L 300.711145 440.689379 
L 301.735601 425.319395 
L 302.81916 422.175535 
L 303.784513 428.463255 
L 304.769567 427.415302 
L 305.682383 431.257798 
L 306.680571 426.716666 
L 307.265036 448.723689 
L 308.571874 443.833239 
L 309.438721 433.703023 
L 310.443476 426.367348 
L 310.975405 451.518231 
L 311.927623 429.161891 
L 312.472686 450.819596 
L 313.45774 427.415302 
L 314.173546 441.737332 
L 315.585456 404.709644 
L 316.892294 454.312774 
L 317.417656 451.867549 
L 318.428978 426.018031 
L 319.348361 430.90848 
L 320.287446 429.860527 
L 321.33817 423.922124 
L 321.942336 447.675735 
L 322.500533 450.12096 
L 323.643195 419.031674 
L 324.168557 451.867549 
L 324.707053 451.168913 
L 325.265251 450.12096 
L 326.381645 420.428945 
L 326.801934 457.456634 
L 327.419235 446.9771 
L 327.89206 454.662092 
L 329.034723 419.031674 
L 329.52725 453.614138 
L 330.111715 448.723689 
L 330.551705 456.408681 
L 331.6681 420.428945 
L 332.889566 414.83986 
L 333.493732 447.675735 
L 333.992826 453.26482 
L 335.069818 422.524852 
L 335.726521 444.881193 
L 336.895451 417.634403 
L 338.162887 412.394636 
L 339.298982 419.380992 
L 340.139561 435.100294 
L 341.374162 414.141225 
L 341.938926 449.771642 
L 342.50369 449.771642 
L 342.98965 453.963456 
L 344.289921 410.648047 
L 344.946623 444.881193 
L 345.498253 450.470278 
L 346.03675 451.168913 
L 346.634349 448.025053 
L 347.231948 448.025053 
L 348.578188 408.202822 
L 349.779954 415.887814 
L 350.476058 442.785286 
L 351.014554 451.168913 
L 351.539916 451.867549 
L 352.774517 414.141225 
L 354.133891 407.504186 
L 354.724923 448.374371 
L 355.664008 429.860527 
L 356.307576 445.579828 
L 357.075918 438.94279 
L 357.726053 445.230511 
L 359.512284 384.798528 
L 360.792854 411.696 
L 362.001186 415.538496 
L 364.010696 372.921722 
L 365.934834 377.462854 
L 366.854218 430.90848 
L 367.458384 447.675735 
L 369.021336 396.675334 
L 370.695927 390.736931 
L 371.313227 446.9771 
L 372.666035 407.853504 
L 373.296469 446.278464 
L 373.966305 444.182557 
L 375.404484 403.312372 
L 376.264764 434.05234 
L 378.274274 372.921722 
L 378.917842 445.579828 
L 379.843792 430.559162 
L 380.500495 444.881193 
L 381.32794 435.798929 
L 382.319561 427.065984 
L 383.53446 415.189178 
L 384.716525 416.935767 
L 386.220373 399.819194 
L 386.89021 444.182557 
L 387.50751 446.9771 
L 388.72241 415.189178 
L 389.943876 414.83986 
L 390.810724 433.703023 
L 392.078159 412.394636 
L 392.964708 432.655069 
L 394.021999 423.572806 
L 395.328837 410.298729 
L 395.946137 446.9771 
L 396.609406 444.531875 
L 398.100121 400.51783 
L 399.177113 422.524852 
L 400.168734 427.065984 
L 401.206324 424.620759 
L 402.11914 431.257798 
L 403.123895 426.367348 
L 404.122083 426.716666 
L 405.245044 420.079628 
L 406.985305 387.243753 
L 408.246174 412.743953 
L 409.369135 420.079628 
L 410.098075 441.038697 
L 411.1685 422.87417 
L 412.33743 417.634403 
L 413.453825 420.428945 
L 414.760663 410.298729 
L 416.980317 361.743552 
L 417.860298 433.004387 
L 419.232806 406.805551 
L 420.066819 435.449612 
L 421.104408 424.620759 
L 422.266772 417.983721 
L 423.974198 388.990342 
L 424.814777 435.100294 
L 425.950873 419.380992 
L 427.211741 412.743953 
L 428.387239 417.285085 
L 429.339457 429.161891 
L 431.322699 374.318993 
L 432.728042 405.058961 
L 433.910107 416.935767 
L 435.6241 388.641024 
L 436.806164 416.935767 
L 437.909425 421.127581 
L 439.682521 385.497164 
L 440.969658 411.346682 
L 442.394702 404.011008 
L 443.50453 420.778263 
L 445.277626 385.497164 
L 446.472825 416.237132 
L 448.948593 348.120157 
L 450.472143 398.771241 
L 451.765847 410.997364 
L 454.057738 357.901056 
L 455.811134 386.545117 
L 457.295281 400.867148 
L 458.917336 393.531473 
L 460.270143 407.853504 
L 462.102343 382.353303 
L 463.901708 384.099892 
L 465.760176 380.956032 
L 467.710582 376.065583 
L 469.766061 370.476497 
L 471.683632 377.812172 
L 473.798214 367.332637 
L 477.410078 388.641024 
L 478.835122 404.011008 
L 480.549116 388.641024 
L 482.276243 387.942388 
L 483.996804 388.291706 
L 486.393768 352.311971 
L 488.836701 349.866746 
L 490.747705 378.161489 
L 493.630629 326.462452 
L 496.677728 317.729507 
L 499.961241 305.154065 
L 956.369455 305.154065 
L 956.369455 305.154065 
" clip-path="url(#pad6379e998)" style="fill: none; stroke: #1f77b4; stroke-width: 1.5; stroke-linecap: square"/>
   </g>
   <g id="line2d_30">
    <path d="M 177.198545 479.812975 
L 185.821049 479.812975 
L 185.899853 475.139102 
L 185.97209 475.146089 
L 186.405514 475.212459 
L 186.582824 475.313761 
L 187.108186 475.418556 
L 187.397135 475.436022 
L 188.362487 475.408077 
L 188.986355 475.41157 
L 189.183365 475.443009 
L 189.997677 475.299788 
L 190.345729 475.264856 
L 191.586896 474.912046 
L 198.876294 471.684349 
L 218.48543 462.078109 
L 226.779582 457.956159 
L 238.85634 452.251798 
L 245.357694 449.286091 
L 265.498759 440.497253 
L 267.186484 439.906908 
L 269.846129 438.813541 
L 274.114695 437.405791 
L 280.602916 436.340373 
L 283.663149 436.071397 
L 285.324607 435.540435 
L 286.250557 435.50201 
L 287.426054 435.274953 
L 288.404541 435.278447 
L 289.284522 435.41468 
L 290.243308 435.837355 
L 291.182393 435.942151 
L 296.041991 435.676669 
L 297.066447 435.592833 
L 300.711145 436.074891 
L 301.735601 436.616332 
L 302.81916 436.626814 
L 304.769567 436.336879 
L 306.680571 436.16222 
L 307.265036 436.494071 
L 307.89547 436.665239 
L 309.438721 436.609347 
L 310.443476 436.434688 
L 310.975405 436.515032 
L 311.927623 436.438182 
L 312.472686 436.518523 
L 313.45774 436.354344 
L 314.173546 436.361331 
L 315.585456 435.977082 
L 316.412901 435.914205 
L 317.417656 436.246056 
L 324.168557 435.400707 
L 325.265251 435.66619 
L 326.381645 435.358788 
L 326.801934 435.446118 
L 327.419235 435.418174 
L 327.89206 435.533447 
L 329.034723 435.302899 
L 330.551705 435.386734 
L 333.493732 434.747485 
L 333.992826 434.796389 
L 336.895451 434.136179 
L 339.298982 433.430555 
L 340.139561 433.3048 
L 341.374162 432.931028 
L 341.938926 432.89959 
L 342.98965 433.158088 
L 344.946623 432.840207 
L 347.231948 433.350213 
L 348.578188 433.025345 
L 350.476058 433.081237 
L 351.014554 433.189525 
L 351.539916 433.489938 
L 352.774517 433.388639 
L 354.133891 433.147608 
L 355.664008 433.297813 
L 356.307576 433.4061 
L 357.726053 433.489938 
L 359.512284 432.97295 
L 360.792854 433.12665 
L 362.001186 433.06377 
L 365.934834 431.865613 
L 366.854218 431.837667 
L 367.458384 432.068218 
L 370.695927 431.285744 
L 371.313227 431.561703 
L 372.666035 431.394032 
L 373.966305 431.778283 
L 376.264764 431.931979 
L 378.274274 431.488349 
L 378.917842 431.666499 
L 379.843792 431.64205 
L 380.500495 431.802733 
L 381.32794 431.862116 
L 384.716525 431.537253 
L 386.220373 431.229852 
L 387.50751 431.704924 
L 392.964708 431.285744 
L 394.021999 431.299714 
L 395.328837 431.118073 
L 396.609406 431.446427 
L 402.11914 430.513749 
L 403.123895 430.513749 
L 404.122083 430.265736 
L 405.245044 430.17491 
L 406.985305 429.539155 
L 409.369135 429.175861 
L 410.098075 429.539155 
L 411.1685 429.409909 
L 413.453825 428.728735 
L 414.760663 428.571543 
L 416.980317 427.879895 
L 417.860298 427.911332 
L 420.066819 427.617907 
L 421.104408 427.362906 
L 422.266772 427.352427 
L 423.974198 426.723654 
L 429.339457 425.59885 
L 431.322699 424.795418 
L 432.728042 424.655693 
L 436.806164 423.29335 
L 437.909425 423.300338 
L 439.682521 423.006913 
L 442.394702 422.15108 
L 443.50453 422.133618 
L 445.277626 421.539774 
L 446.472825 421.525803 
L 448.948593 420.88306 
L 451.765847 420.435933 
L 454.057738 419.873531 
L 458.917336 418.147901 
L 460.270143 418.119954 
L 463.901708 416.830971 
L 469.766061 414.633764 
L 471.683632 414.329854 
L 473.798214 413.844302 
L 478.835122 412.10121 
L 482.276243 411.650587 
L 490.747705 408.709332 
L 493.630629 407.521653 
L 496.677728 406.850964 
L 503.244753 404.681698 
L 509.811778 403.280935 
L 513.09529 402.023389 
L 516.378802 400.598171 
L 522.945827 398.827133 
L 526.229339 397.408903 
L 529.512852 396.381908 
L 536.079876 393.580378 
L 539.363389 392.598796 
L 542.646901 391.309812 
L 545.930413 390.632134 
L 549.213926 389.227875 
L 552.497438 387.973826 
L 559.064463 385.270109 
L 562.347975 384.050983 
L 568.915 381.832823 
L 572.198512 380.886164 
L 578.765536 378.077657 
L 585.332561 375.880445 
L 588.616073 374.594958 
L 591.899586 373.522549 
L 598.46661 371.063349 
L 601.750123 370.011909 
L 608.317147 367.199895 
L 611.60066 366.246264 
L 621.451197 362.658763 
L 631.301734 358.969968 
L 634.585246 357.820709 
L 637.868758 356.999821 
L 644.435783 354.774657 
L 647.719295 353.415816 
L 657.569832 349.961058 
L 660.853345 348.909619 
L 664.136857 348.343726 
L 667.420369 347.065221 
L 670.703882 346.048705 
L 677.270906 343.551085 
L 680.554419 342.422784 
L 683.837931 341.584424 
L 687.121443 340.284961 
L 700.255493 335.705399 
L 703.539005 335.013756 
L 706.822517 334.014702 
L 710.10603 332.896891 
L 713.389542 332.062017 
L 719.956567 329.784468 
L 723.240079 328.981031 
L 733.090616 325.774296 
L 736.374128 324.970869 
L 739.657641 323.86003 
L 742.941153 323.430376 
L 746.224665 322.494207 
L 749.508178 321.435764 
L 752.79169 320.908301 
L 756.075202 320.094385 
L 765.925739 317.226488 
L 779.059789 314.197909 
L 788.910326 312.196314 
L 795.47735 310.624384 
L 798.760863 309.635808 
L 808.6114 307.141685 
L 815.178424 306.222977 
L 818.461937 305.492904 
L 825.028961 305.154065 
L 956.369455 305.154065 
L 956.369455 305.154065 
" clip-path="url(#pad6379e998)" style="fill: none; stroke: #ff7f0e; stroke-width: 1.5; stroke-linecap: square"/>
   </g>
   <g id="patch_8">
    <path d="M 138.24 488.54592 
L 138.24 296.42112 
" style="fill: none; stroke: #000000; stroke-width: 0.8; stroke-linejoin: miter; stroke-linecap: square"/>
   </g>
   <g id="patch_9">
    <path d="M 995.328 488.54592 
L 995.328 296.42112 
" style="fill: none; stroke: #000000; stroke-width: 0.8; stroke-linejoin: miter; stroke-linecap: square"/>
   </g>
   <g id="patch_10">
    <path d="M 138.24 488.54592 
L 995.328 488.54592 
" style="fill: none; stroke: #000000; stroke-width: 0.8; stroke-linejoin: miter; stroke-linecap: square"/>
   </g>
   <g id="patch_11">
    <path d="M 138.24 296.42112 
L 995.328 296.42112 
" style="fill: none; stroke: #000000; stroke-width: 0.8; stroke-linejoin: miter; stroke-linecap: square"/>
   </g>
  </g>
  <g id="text_31">
   <!-- Result -->
   <g transform="translate(534.421875 20.096685) scale(0.12 -0.12)">
    <defs>
     <path id="DejaVuSans-52" d="M 2841 2188 
Q 3044 2119 3236 1894 
Q 3428 1669 3622 1275 
L 4263 0 
L 3584 0 
L 2988 1197 
Q 2756 1666 2539 1819 
Q 2322 1972 1947 1972 
L 1259 1972 
L 1259 0 
L 628 0 
L 628 4666 
L 2053 4666 
Q 2853 4666 3247 4331 
Q 3641 3997 3641 3322 
Q 3641 2881 3436 2590 
Q 3231 2300 2841 2188 
z
M 1259 4147 
L 1259 2491 
L 2053 2491 
Q 2509 2491 2742 2702 
Q 2975 2913 2975 3322 
Q 2975 3731 2742 3939 
Q 2509 4147 2053 4147 
L 1259 4147 
z
" transform="scale(0.015625)"/>
     <path id="DejaVuSans-6c" d="M 603 4863 
L 1178 4863 
L 1178 0 
L 603 0 
L 603 4863 
z
" transform="scale(0.015625)"/>
    </defs>
    <use xlink:href="#DejaVuSans-52"/>
    <use xlink:href="#DejaVuSans-65" x="64.982422"/>
    <use xlink:href="#DejaVuSans-73" x="126.505859"/>
    <use xlink:href="#DejaVuSans-75" x="178.605469"/>
    <use xlink:href="#DejaVuSans-6c" x="241.984375"/>
    <use xlink:href="#DejaVuSans-74" x="269.767578"/>
   </g>
  </g>
 </g>
 <defs>
  <clipPath id="p1e2741322f">
   <rect x="138.24" y="65.87136" width="857.088" height="192.1248"/>
  </clipPath>
  <clipPath id="pad6379e998">
   <rect x="138.24" y="296.42112" width="857.088" height="192.1248"/>
  </clipPath>
 </defs>
</svg>
