<?xml version="1.0" encoding="utf-8" standalone="no"?>
<!DOCTYPE svg PUBLIC "-//W3C//DTD SVG 1.1//EN"
  "http://www.w3.org/Graphics/SVG/1.1/DTD/svg11.dtd">
<svg xmlns:xlink="http://www.w3.org/1999/xlink" width="1105.92pt" height="548.928pt" viewBox="0 0 1105.92 548.928" xmlns="http://www.w3.org/2000/svg" version="1.1">
 <metadata>
  <rdf:RDF xmlns:dc="http://purl.org/dc/elements/1.1/" xmlns:cc="http://creativecommons.org/ns#" xmlns:rdf="http://www.w3.org/1999/02/22-rdf-syntax-ns#">
   <cc:Work>
    <dc:type rdf:resource="http://purl.org/dc/dcmitype/StillImage"/>
    <dc:date>2024-10-30T03:07:20.706429</dc:date>
    <dc:format>image/svg+xml</dc:format>
    <dc:creator>
     <cc:Agent>
      <dc:title>Matplotlib v3.9.2, https://matplotlib.org/</dc:title>
     </cc:Agent>
    </dc:creator>
   </cc:Work>
  </rdf:RDF>
 </metadata>
 <defs>
  <style type="text/css">*{stroke-linejoin: round; stroke-linecap: butt}</style>
 </defs>
 <g id="figure_1">
  <g id="patch_1">
   <path d="M 0 548.928 
L 1105.92 548.928 
L 1105.92 0 
L 0 0 
z
" style="fill: #ffffff"/>
  </g>
  <g id="axes_1">
   <g id="patch_2">
    <path d="M 138.24 488.54592 
L 995.328 488.54592 
L 995.328 65.87136 
L 138.24 65.87136 
z
" style="fill: #ffffff"/>
   </g>
   <g id="matplotlib.axis_1">
    <g id="xtick_1">
     <g id="line2d_1">
      <defs>
       <path id="meead166e01" d="M 0 0 
L 0 3.5 
" style="stroke: #000000; stroke-width: 0.8"/>
      </defs>
      <g>
       <use xlink:href="#meead166e01" x="177.198545" y="488.54592" style="stroke: #000000; stroke-width: 0.8"/>
      </g>
     </g>
     <g id="text_1">
      <!-- 0 -->
      <g transform="translate(174.017295 503.144358) scale(0.1 -0.1)">
       <defs>
        <path id="DejaVuSans-30" d="M 2034 4250 
Q 1547 4250 1301 3770 
Q 1056 3291 1056 2328 
Q 1056 1369 1301 889 
Q 1547 409 2034 409 
Q 2525 409 2770 889 
Q 3016 1369 3016 2328 
Q 3016 3291 2770 3770 
Q 2525 4250 2034 4250 
z
M 2034 4750 
Q 2819 4750 3233 4129 
Q 3647 3509 3647 2328 
Q 3647 1150 3233 529 
Q 2819 -91 2034 -91 
Q 1250 -91 836 529 
Q 422 1150 422 2328 
Q 422 3509 836 4129 
Q 1250 4750 2034 4750 
z
" transform="scale(0.015625)"/>
       </defs>
       <use xlink:href="#DejaVuSans-30"/>
      </g>
     </g>
    </g>
    <g id="xtick_2">
     <g id="line2d_2">
      <g>
       <use xlink:href="#meead166e01" x="307.277161" y="488.54592" style="stroke: #000000; stroke-width: 0.8"/>
      </g>
     </g>
     <g id="text_2">
      <!-- 100 -->
      <g transform="translate(297.733411 503.144358) scale(0.1 -0.1)">
       <defs>
        <path id="DejaVuSans-31" d="M 794 531 
L 1825 531 
L 1825 4091 
L 703 3866 
L 703 4441 
L 1819 4666 
L 2450 4666 
L 2450 531 
L 3481 531 
L 3481 0 
L 794 0 
L 794 531 
z
" transform="scale(0.015625)"/>
       </defs>
       <use xlink:href="#DejaVuSans-31"/>
       <use xlink:href="#DejaVuSans-30" x="63.623047"/>
       <use xlink:href="#DejaVuSans-30" x="127.246094"/>
      </g>
     </g>
    </g>
    <g id="xtick_3">
     <g id="line2d_3">
      <g>
       <use xlink:href="#meead166e01" x="437.355777" y="488.54592" style="stroke: #000000; stroke-width: 0.8"/>
      </g>
     </g>
     <g id="text_3">
      <!-- 200 -->
      <g transform="translate(427.812027 503.144358) scale(0.1 -0.1)">
       <defs>
        <path id="DejaVuSans-32" d="M 1228 531 
L 3431 531 
L 3431 0 
L 469 0 
L 469 531 
Q 828 903 1448 1529 
Q 2069 2156 2228 2338 
Q 2531 2678 2651 2914 
Q 2772 3150 2772 3378 
Q 2772 3750 2511 3984 
Q 2250 4219 1831 4219 
Q 1534 4219 1204 4116 
Q 875 4013 500 3803 
L 500 4441 
Q 881 4594 1212 4672 
Q 1544 4750 1819 4750 
Q 2544 4750 2975 4387 
Q 3406 4025 3406 3419 
Q 3406 3131 3298 2873 
Q 3191 2616 2906 2266 
Q 2828 2175 2409 1742 
Q 1991 1309 1228 531 
z
" transform="scale(0.015625)"/>
       </defs>
       <use xlink:href="#DejaVuSans-32"/>
       <use xlink:href="#DejaVuSans-30" x="63.623047"/>
       <use xlink:href="#DejaVuSans-30" x="127.246094"/>
      </g>
     </g>
    </g>
    <g id="xtick_4">
     <g id="line2d_4">
      <g>
       <use xlink:href="#meead166e01" x="567.434393" y="488.54592" style="stroke: #000000; stroke-width: 0.8"/>
      </g>
     </g>
     <g id="text_4">
      <!-- 300 -->
      <g transform="translate(557.890643 503.144358) scale(0.1 -0.1)">
       <defs>
        <path id="DejaVuSans-33" d="M 2597 2516 
Q 3050 2419 3304 2112 
Q 3559 1806 3559 1356 
Q 3559 666 3084 287 
Q 2609 -91 1734 -91 
Q 1441 -91 1130 -33 
Q 819 25 488 141 
L 488 750 
Q 750 597 1062 519 
Q 1375 441 1716 441 
Q 2309 441 2620 675 
Q 2931 909 2931 1356 
Q 2931 1769 2642 2001 
Q 2353 2234 1838 2234 
L 1294 2234 
L 1294 2753 
L 1863 2753 
Q 2328 2753 2575 2939 
Q 2822 3125 2822 3475 
Q 2822 3834 2567 4026 
Q 2313 4219 1838 4219 
Q 1578 4219 1281 4162 
Q 984 4106 628 3988 
L 628 4550 
Q 988 4650 1302 4700 
Q 1616 4750 1894 4750 
Q 2613 4750 3031 4423 
Q 3450 4097 3450 3541 
Q 3450 3153 3228 2886 
Q 3006 2619 2597 2516 
z
" transform="scale(0.015625)"/>
       </defs>
       <use xlink:href="#DejaVuSans-33"/>
       <use xlink:href="#DejaVuSans-30" x="63.623047"/>
       <use xlink:href="#DejaVuSans-30" x="127.246094"/>
      </g>
     </g>
    </g>
    <g id="xtick_5">
     <g id="line2d_5">
      <g>
       <use xlink:href="#meead166e01" x="697.513009" y="488.54592" style="stroke: #000000; stroke-width: 0.8"/>
      </g>
     </g>
     <g id="text_5">
      <!-- 400 -->
      <g transform="translate(687.969259 503.144358) scale(0.1 -0.1)">
       <defs>
        <path id="DejaVuSans-34" d="M 2419 4116 
L 825 1625 
L 2419 1625 
L 2419 4116 
z
M 2253 4666 
L 3047 4666 
L 3047 1625 
L 3713 1625 
L 3713 1100 
L 3047 1100 
L 3047 0 
L 2419 0 
L 2419 1100 
L 313 1100 
L 313 1709 
L 2253 4666 
z
" transform="scale(0.015625)"/>
       </defs>
       <use xlink:href="#DejaVuSans-34"/>
       <use xlink:href="#DejaVuSans-30" x="63.623047"/>
       <use xlink:href="#DejaVuSans-30" x="127.246094"/>
      </g>
     </g>
    </g>
    <g id="xtick_6">
     <g id="line2d_6">
      <g>
       <use xlink:href="#meead166e01" x="827.591625" y="488.54592" style="stroke: #000000; stroke-width: 0.8"/>
      </g>
     </g>
     <g id="text_6">
      <!-- 500 -->
      <g transform="translate(818.047875 503.144358) scale(0.1 -0.1)">
       <defs>
        <path id="DejaVuSans-35" d="M 691 4666 
L 3169 4666 
L 3169 4134 
L 1269 4134 
L 1269 2991 
Q 1406 3038 1543 3061 
Q 1681 3084 1819 3084 
Q 2600 3084 3056 2656 
Q 3513 2228 3513 1497 
Q 3513 744 3044 326 
Q 2575 -91 1722 -91 
Q 1428 -91 1123 -41 
Q 819 9 494 109 
L 494 744 
Q 775 591 1075 516 
Q 1375 441 1709 441 
Q 2250 441 2565 725 
Q 2881 1009 2881 1497 
Q 2881 1984 2565 2268 
Q 2250 2553 1709 2553 
Q 1456 2553 1204 2497 
Q 953 2441 691 2322 
L 691 4666 
z
" transform="scale(0.015625)"/>
       </defs>
       <use xlink:href="#DejaVuSans-35"/>
       <use xlink:href="#DejaVuSans-30" x="63.623047"/>
       <use xlink:href="#DejaVuSans-30" x="127.246094"/>
      </g>
     </g>
    </g>
    <g id="xtick_7">
     <g id="line2d_7">
      <g>
       <use xlink:href="#meead166e01" x="957.670241" y="488.54592" style="stroke: #000000; stroke-width: 0.8"/>
      </g>
     </g>
     <g id="text_7">
      <!-- 600 -->
      <g transform="translate(948.126491 503.144358) scale(0.1 -0.1)">
       <defs>
        <path id="DejaVuSans-36" d="M 2113 2584 
Q 1688 2584 1439 2293 
Q 1191 2003 1191 1497 
Q 1191 994 1439 701 
Q 1688 409 2113 409 
Q 2538 409 2786 701 
Q 3034 994 3034 1497 
Q 3034 2003 2786 2293 
Q 2538 2584 2113 2584 
z
M 3366 4563 
L 3366 3988 
Q 3128 4100 2886 4159 
Q 2644 4219 2406 4219 
Q 1781 4219 1451 3797 
Q 1122 3375 1075 2522 
Q 1259 2794 1537 2939 
Q 1816 3084 2150 3084 
Q 2853 3084 3261 2657 
Q 3669 2231 3669 1497 
Q 3669 778 3244 343 
Q 2819 -91 2113 -91 
Q 1303 -91 875 529 
Q 447 1150 447 2328 
Q 447 3434 972 4092 
Q 1497 4750 2381 4750 
Q 2619 4750 2861 4703 
Q 3103 4656 3366 4563 
z
" transform="scale(0.015625)"/>
       </defs>
       <use xlink:href="#DejaVuSans-36"/>
       <use xlink:href="#DejaVuSans-30" x="63.623047"/>
       <use xlink:href="#DejaVuSans-30" x="127.246094"/>
      </g>
     </g>
    </g>
    <g id="text_8">
     <!-- Episode -->
     <g transform="translate(547.1465 516.822482) scale(0.1 -0.1)">
      <defs>
       <path id="DejaVuSans-45" d="M 628 4666 
L 3578 4666 
L 3578 4134 
L 1259 4134 
L 1259 2753 
L 3481 2753 
L 3481 2222 
L 1259 2222 
L 1259 531 
L 3634 531 
L 3634 0 
L 628 0 
L 628 4666 
z
" transform="scale(0.015625)"/>
       <path id="DejaVuSans-70" d="M 1159 525 
L 1159 -1331 
L 581 -1331 
L 581 3500 
L 1159 3500 
L 1159 2969 
Q 1341 3281 1617 3432 
Q 1894 3584 2278 3584 
Q 2916 3584 3314 3078 
Q 3713 2572 3713 1747 
Q 3713 922 3314 415 
Q 2916 -91 2278 -91 
Q 1894 -91 1617 61 
Q 1341 213 1159 525 
z
M 3116 1747 
Q 3116 2381 2855 2742 
Q 2594 3103 2138 3103 
Q 1681 3103 1420 2742 
Q 1159 2381 1159 1747 
Q 1159 1113 1420 752 
Q 1681 391 2138 391 
Q 2594 391 2855 752 
Q 3116 1113 3116 1747 
z
" transform="scale(0.015625)"/>
       <path id="DejaVuSans-69" d="M 603 3500 
L 1178 3500 
L 1178 0 
L 603 0 
L 603 3500 
z
M 603 4863 
L 1178 4863 
L 1178 4134 
L 603 4134 
L 603 4863 
z
" transform="scale(0.015625)"/>
       <path id="DejaVuSans-73" d="M 2834 3397 
L 2834 2853 
Q 2591 2978 2328 3040 
Q 2066 3103 1784 3103 
Q 1356 3103 1142 2972 
Q 928 2841 928 2578 
Q 928 2378 1081 2264 
Q 1234 2150 1697 2047 
L 1894 2003 
Q 2506 1872 2764 1633 
Q 3022 1394 3022 966 
Q 3022 478 2636 193 
Q 2250 -91 1575 -91 
Q 1294 -91 989 -36 
Q 684 19 347 128 
L 347 722 
Q 666 556 975 473 
Q 1284 391 1588 391 
Q 1994 391 2212 530 
Q 2431 669 2431 922 
Q 2431 1156 2273 1281 
Q 2116 1406 1581 1522 
L 1381 1569 
Q 847 1681 609 1914 
Q 372 2147 372 2553 
Q 372 3047 722 3315 
Q 1072 3584 1716 3584 
Q 2034 3584 2315 3537 
Q 2597 3491 2834 3397 
z
" transform="scale(0.015625)"/>
       <path id="DejaVuSans-6f" d="M 1959 3097 
Q 1497 3097 1228 2736 
Q 959 2375 959 1747 
Q 959 1119 1226 758 
Q 1494 397 1959 397 
Q 2419 397 2687 759 
Q 2956 1122 2956 1747 
Q 2956 2369 2687 2733 
Q 2419 3097 1959 3097 
z
M 1959 3584 
Q 2709 3584 3137 3096 
Q 3566 2609 3566 1747 
Q 3566 888 3137 398 
Q 2709 -91 1959 -91 
Q 1206 -91 779 398 
Q 353 888 353 1747 
Q 353 2609 779 3096 
Q 1206 3584 1959 3584 
z
" transform="scale(0.015625)"/>
       <path id="DejaVuSans-64" d="M 2906 2969 
L 2906 4863 
L 3481 4863 
L 3481 0 
L 2906 0 
L 2906 525 
Q 2725 213 2448 61 
Q 2172 -91 1784 -91 
Q 1150 -91 751 415 
Q 353 922 353 1747 
Q 353 2572 751 3078 
Q 1150 3584 1784 3584 
Q 2172 3584 2448 3432 
Q 2725 3281 2906 2969 
z
M 947 1747 
Q 947 1113 1208 752 
Q 1469 391 1925 391 
Q 2381 391 2643 752 
Q 2906 1113 2906 1747 
Q 2906 2381 2643 2742 
Q 2381 3103 1925 3103 
Q 1469 3103 1208 2742 
Q 947 2381 947 1747 
z
" transform="scale(0.015625)"/>
       <path id="DejaVuSans-65" d="M 3597 1894 
L 3597 1613 
L 953 1613 
Q 991 1019 1311 708 
Q 1631 397 2203 397 
Q 2534 397 2845 478 
Q 3156 559 3463 722 
L 3463 178 
Q 3153 47 2828 -22 
Q 2503 -91 2169 -91 
Q 1331 -91 842 396 
Q 353 884 353 1716 
Q 353 2575 817 3079 
Q 1281 3584 2069 3584 
Q 2775 3584 3186 3129 
Q 3597 2675 3597 1894 
z
M 3022 2063 
Q 3016 2534 2758 2815 
Q 2500 3097 2075 3097 
Q 1594 3097 1305 2825 
Q 1016 2553 972 2059 
L 3022 2063 
z
" transform="scale(0.015625)"/>
      </defs>
      <use xlink:href="#DejaVuSans-45"/>
      <use xlink:href="#DejaVuSans-70" x="63.183594"/>
      <use xlink:href="#DejaVuSans-69" x="126.660156"/>
      <use xlink:href="#DejaVuSans-73" x="154.443359"/>
      <use xlink:href="#DejaVuSans-6f" x="206.542969"/>
      <use xlink:href="#DejaVuSans-64" x="267.724609"/>
      <use xlink:href="#DejaVuSans-65" x="331.201172"/>
     </g>
    </g>
   </g>
   <g id="matplotlib.axis_2">
    <g id="ytick_1">
     <g id="line2d_8">
      <defs>
       <path id="mf0d82a1cf4" d="M 0 0 
L -3.5 0 
" style="stroke: #000000; stroke-width: 0.8"/>
      </defs>
      <g>
       <use xlink:href="#mf0d82a1cf4" x="138.24" y="469.33344" style="stroke: #000000; stroke-width: 0.8"/>
      </g>
     </g>
     <g id="text_9">
      <!-- 0 -->
      <g transform="translate(124.8775 473.132659) scale(0.1 -0.1)">
       <use xlink:href="#DejaVuSans-30"/>
      </g>
     </g>
    </g>
    <g id="ytick_2">
     <g id="line2d_9">
      <g>
       <use xlink:href="#mf0d82a1cf4" x="138.24" y="392.48352" style="stroke: #000000; stroke-width: 0.8"/>
      </g>
     </g>
     <g id="text_10">
      <!-- 100 -->
      <g transform="translate(112.1525 396.282739) scale(0.1 -0.1)">
       <use xlink:href="#DejaVuSans-31"/>
       <use xlink:href="#DejaVuSans-30" x="63.623047"/>
       <use xlink:href="#DejaVuSans-30" x="127.246094"/>
      </g>
     </g>
    </g>
    <g id="ytick_3">
     <g id="line2d_10">
      <g>
       <use xlink:href="#mf0d82a1cf4" x="138.24" y="315.6336" style="stroke: #000000; stroke-width: 0.8"/>
      </g>
     </g>
     <g id="text_11">
      <!-- 200 -->
      <g transform="translate(112.1525 319.432819) scale(0.1 -0.1)">
       <use xlink:href="#DejaVuSans-32"/>
       <use xlink:href="#DejaVuSans-30" x="63.623047"/>
       <use xlink:href="#DejaVuSans-30" x="127.246094"/>
      </g>
     </g>
    </g>
    <g id="ytick_4">
     <g id="line2d_11">
      <g>
       <use xlink:href="#mf0d82a1cf4" x="138.24" y="238.78368" style="stroke: #000000; stroke-width: 0.8"/>
      </g>
     </g>
     <g id="text_12">
      <!-- 300 -->
      <g transform="translate(112.1525 242.582899) scale(0.1 -0.1)">
       <use xlink:href="#DejaVuSans-33"/>
       <use xlink:href="#DejaVuSans-30" x="63.623047"/>
       <use xlink:href="#DejaVuSans-30" x="127.246094"/>
      </g>
     </g>
    </g>
    <g id="ytick_5">
     <g id="line2d_12">
      <g>
       <use xlink:href="#mf0d82a1cf4" x="138.24" y="161.93376" style="stroke: #000000; stroke-width: 0.8"/>
      </g>
     </g>
     <g id="text_13">
      <!-- 400 -->
      <g transform="translate(112.1525 165.732979) scale(0.1 -0.1)">
       <use xlink:href="#DejaVuSans-34"/>
       <use xlink:href="#DejaVuSans-30" x="63.623047"/>
       <use xlink:href="#DejaVuSans-30" x="127.246094"/>
      </g>
     </g>
    </g>
    <g id="ytick_6">
     <g id="line2d_13">
      <g>
       <use xlink:href="#mf0d82a1cf4" x="138.24" y="85.08384" style="stroke: #000000; stroke-width: 0.8"/>
      </g>
     </g>
     <g id="text_14">
      <!-- 500 -->
      <g transform="translate(112.1525 88.883059) scale(0.1 -0.1)">
       <use xlink:href="#DejaVuSans-35"/>
       <use xlink:href="#DejaVuSans-30" x="63.623047"/>
       <use xlink:href="#DejaVuSans-30" x="127.246094"/>
      </g>
     </g>
    </g>
    <g id="text_15">
     <!-- Duration -->
     <g transform="translate(106.072812 298.924265) rotate(-90) scale(0.1 -0.1)">
      <defs>
       <path id="DejaVuSans-44" d="M 1259 4147 
L 1259 519 
L 2022 519 
Q 2988 519 3436 956 
Q 3884 1394 3884 2338 
Q 3884 3275 3436 3711 
Q 2988 4147 2022 4147 
L 1259 4147 
z
M 628 4666 
L 1925 4666 
Q 3281 4666 3915 4102 
Q 4550 3538 4550 2338 
Q 4550 1131 3912 565 
Q 3275 0 1925 0 
L 628 0 
L 628 4666 
z
" transform="scale(0.015625)"/>
       <path id="DejaVuSans-75" d="M 544 1381 
L 544 3500 
L 1119 3500 
L 1119 1403 
Q 1119 906 1312 657 
Q 1506 409 1894 409 
Q 2359 409 2629 706 
Q 2900 1003 2900 1516 
L 2900 3500 
L 3475 3500 
L 3475 0 
L 2900 0 
L 2900 538 
Q 2691 219 2414 64 
Q 2138 -91 1772 -91 
Q 1169 -91 856 284 
Q 544 659 544 1381 
z
M 1991 3584 
L 1991 3584 
z
" transform="scale(0.015625)"/>
       <path id="DejaVuSans-72" d="M 2631 2963 
Q 2534 3019 2420 3045 
Q 2306 3072 2169 3072 
Q 1681 3072 1420 2755 
Q 1159 2438 1159 1844 
L 1159 0 
L 581 0 
L 581 3500 
L 1159 3500 
L 1159 2956 
Q 1341 3275 1631 3429 
Q 1922 3584 2338 3584 
Q 2397 3584 2469 3576 
Q 2541 3569 2628 3553 
L 2631 2963 
z
" transform="scale(0.015625)"/>
       <path id="DejaVuSans-61" d="M 2194 1759 
Q 1497 1759 1228 1600 
Q 959 1441 959 1056 
Q 959 750 1161 570 
Q 1363 391 1709 391 
Q 2188 391 2477 730 
Q 2766 1069 2766 1631 
L 2766 1759 
L 2194 1759 
z
M 3341 1997 
L 3341 0 
L 2766 0 
L 2766 531 
Q 2569 213 2275 61 
Q 1981 -91 1556 -91 
Q 1019 -91 701 211 
Q 384 513 384 1019 
Q 384 1609 779 1909 
Q 1175 2209 1959 2209 
L 2766 2209 
L 2766 2266 
Q 2766 2663 2505 2880 
Q 2244 3097 1772 3097 
Q 1472 3097 1187 3025 
Q 903 2953 641 2809 
L 641 3341 
Q 956 3463 1253 3523 
Q 1550 3584 1831 3584 
Q 2591 3584 2966 3190 
Q 3341 2797 3341 1997 
z
" transform="scale(0.015625)"/>
       <path id="DejaVuSans-74" d="M 1172 4494 
L 1172 3500 
L 2356 3500 
L 2356 3053 
L 1172 3053 
L 1172 1153 
Q 1172 725 1289 603 
Q 1406 481 1766 481 
L 2356 481 
L 2356 0 
L 1766 0 
Q 1100 0 847 248 
Q 594 497 594 1153 
L 594 3053 
L 172 3053 
L 172 3500 
L 594 3500 
L 594 4494 
L 1172 4494 
z
" transform="scale(0.015625)"/>
       <path id="DejaVuSans-6e" d="M 3513 2113 
L 3513 0 
L 2938 0 
L 2938 2094 
Q 2938 2591 2744 2837 
Q 2550 3084 2163 3084 
Q 1697 3084 1428 2787 
Q 1159 2491 1159 1978 
L 1159 0 
L 581 0 
L 581 3500 
L 1159 3500 
L 1159 2956 
Q 1366 3272 1645 3428 
Q 1925 3584 2291 3584 
Q 2894 3584 3203 3211 
Q 3513 2838 3513 2113 
z
" transform="scale(0.015625)"/>
      </defs>
      <use xlink:href="#DejaVuSans-44"/>
      <use xlink:href="#DejaVuSans-75" x="77.001953"/>
      <use xlink:href="#DejaVuSans-72" x="140.380859"/>
      <use xlink:href="#DejaVuSans-61" x="181.494141"/>
      <use xlink:href="#DejaVuSans-74" x="242.773438"/>
      <use xlink:href="#DejaVuSans-69" x="281.982422"/>
      <use xlink:href="#DejaVuSans-6f" x="309.765625"/>
      <use xlink:href="#DejaVuSans-6e" x="370.947266"/>
     </g>
    </g>
   </g>
   <g id="line2d_14">
    <path d="M 177.198545 459.34295 
L 178.499332 453.194957 
L 179.800118 459.34295 
L 181.100904 451.657958 
L 182.40169 457.805952 
L 183.702476 459.34295 
L 185.003262 458.574451 
L 186.304049 437.056474 
L 187.604835 460.11145 
L 190.206407 457.037453 
L 191.507193 457.805952 
L 192.807979 456.268954 
L 194.108766 451.657958 
L 195.409552 459.34295 
L 196.710338 449.352461 
L 198.011124 459.34295 
L 199.31191 461.648448 
L 200.612696 457.805952 
L 201.913482 460.11145 
L 203.214269 460.879949 
L 204.515055 460.11145 
L 205.815841 458.574451 
L 207.116627 460.879949 
L 208.417413 453.963456 
L 209.718199 460.879949 
L 211.018986 458.574451 
L 212.319772 454.731955 
L 213.620558 459.34295 
L 214.921344 458.574451 
L 216.22213 445.509965 
L 217.522916 458.574451 
L 218.823703 461.648448 
L 220.124489 458.574451 
L 221.425275 450.12096 
L 222.726061 458.574451 
L 224.026847 461.648448 
L 225.327633 462.416947 
L 226.628419 457.037453 
L 227.929206 456.268954 
L 229.229992 460.879949 
L 230.530778 453.963456 
L 231.831564 453.963456 
L 233.13235 459.34295 
L 234.433136 461.648448 
L 235.733923 459.34295 
L 237.034709 460.11145 
L 238.335495 461.648448 
L 239.636281 460.879949 
L 240.937067 463.185446 
L 242.237853 461.648448 
L 243.53864 460.879949 
L 244.839426 459.34295 
L 246.140212 461.648448 
L 250.04257 461.648448 
L 251.343357 456.268954 
L 252.644143 460.879949 
L 253.944929 457.037453 
L 255.245715 460.879949 
L 256.546501 460.11145 
L 257.847287 462.416947 
L 259.148073 458.574451 
L 260.44886 458.574451 
L 261.749646 459.34295 
L 263.050432 461.648448 
L 264.351218 461.648448 
L 265.652004 462.416947 
L 268.253577 459.34295 
L 269.554363 461.648448 
L 270.855149 460.879949 
L 272.155935 461.648448 
L 273.456721 460.879949 
L 274.757507 461.648448 
L 276.058294 457.805952 
L 277.35908 461.648448 
L 278.659866 457.037453 
L 279.960652 460.11145 
L 281.261438 462.416947 
L 282.562224 459.34295 
L 283.86301 457.805952 
L 285.163797 460.879949 
L 286.464583 462.416947 
L 287.765369 460.879949 
L 289.066155 455.500454 
L 290.366941 462.416947 
L 291.667727 460.11145 
L 292.968514 460.11145 
L 294.2693 461.648448 
L 295.570086 460.11145 
L 296.870872 463.185446 
L 299.472444 460.11145 
L 300.773231 461.648448 
L 302.074017 462.416947 
L 303.374803 461.648448 
L 304.675589 461.648448 
L 305.976375 460.11145 
L 307.277161 460.879949 
L 308.577947 460.11145 
L 309.878734 460.879949 
L 311.17952 458.574451 
L 312.480306 459.34295 
L 313.781092 457.037453 
L 315.081878 457.805952 
L 316.382664 460.11145 
L 317.683451 460.879949 
L 318.984237 460.11145 
L 320.285023 460.879949 
L 322.886595 460.879949 
L 324.187381 458.574451 
L 325.488168 461.648448 
L 326.788954 457.805952 
L 328.08974 460.11145 
L 329.390526 456.268954 
L 330.691312 459.34295 
L 331.992098 457.037453 
L 333.292885 459.34295 
L 334.593671 457.805952 
L 335.894457 458.574451 
L 337.195243 457.037453 
L 338.496029 458.574451 
L 339.796815 459.34295 
L 341.097601 457.805952 
L 342.398388 455.500454 
L 343.699174 456.268954 
L 344.99996 457.805952 
L 346.300746 457.037453 
L 347.601532 457.805952 
L 348.902318 459.34295 
L 350.203105 454.731955 
L 351.503891 458.574451 
L 352.804677 457.037453 
L 354.105463 453.194957 
L 355.406249 455.500454 
L 356.707035 452.426458 
L 358.007822 457.037453 
L 359.308608 450.12096 
L 360.609394 452.426458 
L 361.91018 457.805952 
L 363.210966 457.805952 
L 364.511752 451.657958 
L 365.812538 451.657958 
L 367.113325 452.426458 
L 368.414111 451.657958 
L 369.714897 453.963456 
L 371.015683 443.204467 
L 372.316469 453.194957 
L 373.617255 451.657958 
L 374.918042 451.657958 
L 376.218828 428.602982 
L 377.519614 442.435968 
L 378.8204 451.657958 
L 380.121186 450.12096 
L 381.421972 435.519475 
L 382.722759 437.824973 
L 384.023545 429.371482 
L 385.324331 419.380992 
L 386.625117 400.937011 
L 387.925903 404.779507 
L 389.226689 396.326016 
L 390.527475 396.326016 
L 391.828262 386.335526 
L 393.129048 406.316506 
L 394.429834 384.798528 
L 395.73062 385.567027 
L 397.031406 373.27104 
L 398.332192 367.891546 
L 399.632979 367.891546 
L 400.933765 391.715021 
L 402.234551 369.428544 
L 403.535337 381.724531 
L 404.836123 354.05856 
L 406.136909 336.383078 
L 407.437696 264.144154 
L 408.738482 336.383078 
L 410.039268 376.345037 
L 411.340054 364.817549 
L 412.64084 386.335526 
L 413.941626 340.225574 
L 415.242413 368.660045 
L 416.543199 367.891546 
L 417.843985 324.087091 
L 419.144771 329.466586 
L 420.445557 322.550093 
L 421.746343 368.660045 
L 423.047129 230.330189 
L 424.347916 340.225574 
L 425.648702 394.789018 
L 426.949488 379.419034 
L 428.250274 373.27104 
L 429.55106 380.187533 
L 430.851846 327.929587 
L 433.453419 387.104026 
L 434.754205 383.26153 
L 436.054991 390.178022 
L 437.355777 389.409523 
L 438.656563 374.808038 
L 439.95735 387.872525 
L 441.258136 390.178022 
L 442.558922 384.030029 
L 443.859708 388.641024 
L 445.160494 386.335526 
L 446.46128 367.123046 
L 447.762066 380.956032 
L 449.062853 382.49303 
L 450.363639 390.946522 
L 451.664425 404.011008 
L 452.965211 377.113536 
L 454.265997 400.937011 
L 455.566783 400.168512 
L 456.86757 400.168512 
L 458.168356 394.789018 
L 459.469142 374.808038 
L 460.769928 377.113536 
L 462.070714 406.316506 
L 463.3715 400.937011 
L 464.672287 403.242509 
L 465.973073 388.641024 
L 467.273859 386.335526 
L 468.574645 407.085005 
L 469.875431 401.70551 
L 471.176217 403.242509 
L 472.477003 392.48352 
L 473.77779 399.400013 
L 475.078576 412.464499 
L 476.379362 400.168512 
L 477.680148 395.557517 
L 478.980934 410.159002 
L 480.28172 407.853504 
L 481.582507 404.779507 
L 482.883293 407.853504 
L 484.184079 398.631514 
L 485.484865 407.085005 
L 486.785651 410.159002 
L 488.086437 371.734042 
L 489.387224 387.104026 
L 490.68801 373.27104 
L 491.988796 406.316506 
L 493.289582 372.502541 
L 494.590368 385.567027 
L 495.891154 373.27104 
L 497.191941 366.354547 
L 498.492727 383.26153 
L 499.793513 334.077581 
L 501.094299 370.197043 
L 502.395085 382.49303 
L 503.695871 341.762573 
L 504.996657 347.142067 
L 506.297444 363.28055 
L 507.59823 377.882035 
L 508.899016 348.679066 
L 510.199802 370.197043 
L 511.500588 377.882035 
L 512.801374 376.345037 
L 514.102161 374.039539 
L 515.402947 285.662131 
L 516.703733 341.762573 
L 518.004519 373.27104 
L 519.305305 368.660045 
L 520.606091 367.891546 
L 521.906878 347.910566 
L 523.207664 369.428544 
L 524.50845 362.512051 
L 525.809236 336.383078 
L 527.110022 347.910566 
L 528.410808 344.83657 
L 529.711594 357.132557 
L 531.012381 274.903142 
L 532.313167 360.975053 
L 533.613953 331.772083 
L 534.914739 354.827059 
L 536.215525 366.354547 
L 537.516311 357.132557 
L 538.817098 359.438054 
L 540.117884 369.428544 
L 541.41867 346.373568 
L 542.719456 367.123046 
L 544.020242 360.975053 
L 545.321028 334.077581 
L 546.621815 349.447565 
L 547.922601 351.753062 
L 549.223387 367.123046 
L 550.524173 348.679066 
L 551.824959 383.26153 
L 553.125745 349.447565 
L 554.426531 342.531072 
L 555.727318 356.364058 
L 557.028104 354.05856 
L 558.32889 362.512051 
L 559.629676 352.521562 
L 560.930462 400.937011 
L 563.532035 390.178022 
L 564.832821 367.891546 
L 566.133607 351.753062 
L 567.434393 407.085005 
L 568.735179 357.901056 
L 570.035965 405.548006 
L 571.336752 354.05856 
L 572.637538 385.567027 
L 573.938324 304.106112 
L 575.23911 372.502541 
L 576.539896 413.232998 
L 577.840682 407.853504 
L 579.141469 350.984563 
L 580.442255 361.743552 
L 581.743041 359.438054 
L 583.043827 346.373568 
L 584.344613 398.631514 
L 585.645399 404.011008 
L 586.946185 335.614579 
L 588.246972 407.853504 
L 589.547758 406.316506 
L 590.848544 404.011008 
L 592.14933 338.688576 
L 593.450116 420.149491 
L 594.750902 397.094515 
L 596.051689 414.001498 
L 597.352475 335.614579 
L 598.653261 411.696 
L 599.954047 400.937011 
L 601.254833 417.843994 
L 602.555619 338.688576 
L 603.856406 326.392589 
L 605.157192 398.631514 
L 606.457978 410.927501 
L 607.758764 343.299571 
L 609.05955 392.48352 
L 610.360336 332.540582 
L 611.661122 321.013094 
L 612.961909 336.383078 
L 614.262695 370.965542 
L 615.563481 324.85559 
L 616.864267 403.242509 
L 618.165053 403.242509 
L 619.465839 412.464499 
L 620.766626 317.170598 
L 622.067412 392.48352 
L 623.368198 404.779507 
L 624.668984 406.316506 
L 625.96977 399.400013 
L 627.270556 399.400013 
L 628.571343 311.791104 
L 629.872129 328.698086 
L 631.172915 387.872525 
L 632.473701 406.316506 
L 633.774487 407.853504 
L 635.075273 324.85559 
L 636.376059 310.254106 
L 637.676846 400.168512 
L 638.977632 359.438054 
L 640.278418 394.020518 
L 641.579204 379.419034 
L 642.87999 393.252019 
L 644.180776 260.301658 
L 645.481563 319.476096 
L 646.782349 327.929587 
L 648.083135 234.172685 
L 649.383921 244.163174 
L 650.684707 361.743552 
L 651.985493 398.631514 
L 653.28628 286.43063 
L 654.587066 273.366144 
L 655.887852 397.094515 
L 657.188638 311.022605 
L 658.489424 395.557517 
L 659.79021 390.946522 
L 661.090997 301.032115 
L 662.391783 368.660045 
L 663.692569 234.172685 
L 664.993355 394.020518 
L 666.294141 360.975053 
L 667.594927 392.48352 
L 670.1965 353.290061 
L 671.497286 327.161088 
L 672.798072 331.003584 
L 674.098858 293.347123 
L 675.399644 390.946522 
L 676.70043 397.094515 
L 678.001217 327.161088 
L 679.302003 326.392589 
L 680.602789 367.891546 
L 681.903575 321.013094 
L 683.204361 365.586048 
L 684.505147 345.605069 
L 685.805934 316.402099 
L 687.10672 397.094515 
L 688.407506 391.715021 
L 689.708292 294.884122 
L 691.009078 343.299571 
L 692.309864 353.290061 
L 693.61065 347.910566 
L 694.911437 362.512051 
L 696.212223 351.753062 
L 697.513009 352.521562 
L 698.813795 337.920077 
L 700.114581 265.681152 
L 701.415367 321.781594 
L 702.716154 337.920077 
L 704.01694 384.030029 
L 705.317726 344.06807 
L 706.618512 332.540582 
L 707.919298 338.688576 
L 709.220084 316.402099 
L 710.520871 209.58071 
L 711.821657 366.354547 
L 713.122443 308.717107 
L 714.423229 371.734042 
L 715.724015 347.910566 
L 717.024801 333.309082 
L 718.325587 269.523648 
L 719.626374 370.965542 
L 720.92716 336.383078 
L 722.227946 321.781594 
L 723.528732 331.772083 
L 724.829518 357.901056 
L 726.130304 237.246682 
L 727.431091 304.874611 
L 728.731877 331.003584 
L 730.032663 268.755149 
L 731.333449 331.003584 
L 732.634235 340.225574 
L 733.935021 261.838656 
L 735.235808 318.707597 
L 736.536594 302.569114 
L 737.83738 339.457075 
L 739.138166 261.838656 
L 740.438952 329.466586 
L 741.739738 179.609242 
L 743.040525 291.041626 
L 744.341311 317.939098 
L 745.642097 201.127219 
L 746.942883 264.144154 
L 748.243669 295.652621 
L 749.544455 279.514138 
L 750.845241 311.022605 
L 752.146028 254.922163 
L 753.446814 258.764659 
L 754.7476 251.848166 
L 756.048386 241.089178 
L 757.349172 228.79319 
L 758.649958 244.931674 
L 759.950745 221.876698 
L 761.251531 247.237171 
L 762.552317 268.755149 
L 763.853103 302.569114 
L 765.153889 268.755149 
L 766.454675 267.21815 
L 767.755462 267.98665 
L 769.056248 188.831232 
L 770.357034 183.451738 
L 771.65782 245.700173 
L 772.958606 131.962291 
L 774.259392 112.749811 
L 775.560178 85.08384 
L 956.369455 85.08384 
L 956.369455 85.08384 
" clip-path="url(#p4e4e4ef84e)" style="fill: none; stroke: #1f77b4; stroke-width: 1.5; stroke-linecap: square"/>
   </g>
   <g id="line2d_15">
    <path d="M 177.198545 469.33344 
L 304.675589 469.33344 
L 305.976375 459.050921 
L 315.081878 459.20462 
L 316.382664 459.43517 
L 322.886595 459.5735 
L 328.08974 459.75794 
L 331.992098 459.688775 
L 344.99996 459.60424 
L 346.300746 459.719515 
L 355.406249 459.565815 
L 361.91018 459.442855 
L 364.511752 459.32758 
L 369.714897 459.004811 
L 371.015683 458.805001 
L 374.918042 458.551396 
L 376.218828 458.220942 
L 378.8204 457.928912 
L 381.421972 457.606142 
L 384.023545 457.098933 
L 385.324331 456.683944 
L 390.527475 454.270855 
L 391.828262 453.540782 
L 393.129048 452.987462 
L 397.031406 450.574375 
L 399.632979 448.722292 
L 400.933765 448.030643 
L 404.836123 445.24099 
L 406.136909 444.026761 
L 407.437696 442.051718 
L 408.738482 440.845175 
L 410.039268 440.007511 
L 411.340054 439.031516 
L 412.64084 438.301441 
L 413.941626 437.125639 
L 416.543199 435.258185 
L 420.445557 431.231248 
L 421.746343 430.316735 
L 423.047129 428.018924 
L 424.347916 426.804694 
L 425.648702 426.151471 
L 429.55106 423.630792 
L 430.851846 422.293605 
L 432.152633 421.248445 
L 446.46128 412.956338 
L 450.363639 410.681581 
L 451.664425 410.112894 
L 452.965211 409.275226 
L 458.168356 406.854453 
L 460.769928 405.217552 
L 464.672287 403.58065 
L 467.273859 402.174295 
L 471.176217 400.537394 
L 473.77779 399.338531 
L 476.379362 398.316426 
L 477.680148 397.693944 
L 486.785651 394.251071 
L 488.086437 393.398036 
L 489.387224 392.767867 
L 490.68801 391.976308 
L 491.988796 391.461415 
L 493.289582 390.60838 
L 495.891154 389.163604 
L 497.191941 388.302882 
L 498.492727 387.618919 
L 499.793513 386.420062 
L 502.395085 384.982966 
L 504.996657 382.838853 
L 507.59823 381.540093 
L 508.899016 380.510301 
L 510.199802 379.711061 
L 514.102161 377.966571 
L 515.402947 376.629384 
L 516.703733 376.037636 
L 524.50845 374.185556 
L 525.809236 373.693717 
L 528.410808 373.209559 
L 529.711594 373.101969 
L 531.012381 371.933853 
L 532.313167 371.849318 
L 533.613953 371.349792 
L 534.914739 371.357479 
L 536.215525 371.657193 
L 537.516311 372.587076 
L 538.817098 372.817628 
L 540.117884 372.74846 
L 542.719456 372.371897 
L 544.020242 372.57939 
L 545.321028 372.233567 
L 546.621815 372.049129 
L 551.824959 373.109656 
L 553.125745 374.300826 
L 554.426531 374.323886 
L 555.727318 373.939636 
L 557.028104 373.68603 
L 558.32889 373.578441 
L 559.629676 373.301781 
L 560.930462 374.031853 
L 562.231248 374.408421 
L 563.532035 374.439156 
L 564.832821 374.285459 
L 566.133607 373.901209 
L 567.434393 374.077967 
L 568.735179 373.908896 
L 570.035965 374.085647 
L 571.336752 373.724452 
L 572.637538 373.739825 
L 573.938324 372.894477 
L 575.23911 372.756147 
L 576.539896 373.217245 
L 577.840682 373.486219 
L 583.043827 372.125978 
L 585.645399 372.141345 
L 586.946185 371.495809 
L 588.246972 371.626452 
L 590.848544 372.210513 
L 592.14933 371.53423 
L 593.450116 371.726355 
L 594.750902 371.664879 
L 596.051689 371.91848 
L 597.352475 371.411273 
L 601.254833 371.595712 
L 602.555619 371.057764 
L 603.856406 370.327687 
L 605.157192 370.189362 
L 606.457978 370.296952 
L 607.758764 369.774366 
L 609.05955 369.597615 
L 612.961909 367.292117 
L 614.262695 367.015457 
L 615.563481 366.193157 
L 616.864267 366.123995 
L 619.465839 366.692689 
L 620.766626 366.131688 
L 622.067412 365.993352 
L 623.368198 366.31612 
L 625.96977 366.784905 
L 627.270556 367.115366 
L 628.571343 366.400655 
L 629.872129 366.346866 
L 632.473701 366.761851 
L 633.774487 367.422761 
L 635.075273 367.199901 
L 636.376059 366.669635 
L 637.676846 366.892494 
L 638.977632 367.000084 
L 640.278418 367.238317 
L 641.579204 367.25369 
L 642.87999 367.422761 
L 644.180776 366.285385 
L 645.481563 366.623527 
L 646.782349 366.485191 
L 649.383921 363.849244 
L 650.684707 363.787763 
L 651.985493 364.294975 
L 654.587066 362.573533 
L 655.887852 363.180642 
L 657.188638 362.811765 
L 658.489424 363.318978 
L 661.090997 363.918406 
L 662.391783 363.995249 
L 663.692569 363.019263 
L 664.993355 363.411194 
L 666.294141 363.357405 
L 667.594927 363.710908 
L 668.895713 363.841552 
L 671.497286 363.488048 
L 672.798072 363.126853 
L 674.098858 362.45057 
L 676.70043 363.495729 
L 678.001217 363.249816 
L 679.302003 362.8425 
L 680.602789 363.034625 
L 681.903575 362.412143 
L 683.204361 362.573533 
L 684.505147 362.604267 
L 685.805934 362.204656 
L 687.10672 362.635014 
L 688.407506 362.927036 
L 691.009078 361.774287 
L 693.61065 360.928945 
L 696.212223 360.875144 
L 697.513009 360.329516 
L 698.813795 360.129699 
L 700.114581 358.731037 
L 701.415367 358.408268 
L 702.716154 357.931791 
L 704.01694 358.731037 
L 705.317726 358.446696 
L 707.919298 356.948113 
L 709.220084 356.60229 
L 710.520871 355.080665 
L 711.821657 355.149827 
L 715.724015 353.94329 
L 717.024801 353.920236 
L 718.325587 352.536935 
L 719.626374 352.18342 
L 720.92716 351.507137 
L 722.227946 351.338078 
L 723.528732 350.454297 
L 724.829518 350.062367 
L 726.130304 348.294816 
L 727.431091 347.987421 
L 728.731877 347.180495 
L 730.032663 345.858675 
L 731.333449 344.990267 
L 732.634235 345.00564 
L 733.935021 344.360104 
L 735.235808 343.560858 
L 736.536594 342.477271 
L 737.83738 342.438856 
L 739.138166 341.132398 
L 740.438952 341.101663 
L 741.739738 339.687627 
L 744.341311 338.703949 
L 745.642097 337.466665 
L 746.942883 336.075683 
L 748.243669 334.999777 
L 749.544455 333.670277 
L 750.845241 333.608796 
L 753.446814 330.773032 
L 756.048386 327.645246 
L 757.349172 325.939177 
L 758.649958 325.270575 
L 759.950745 324.202361 
L 762.552317 321.420398 
L 763.853103 320.367558 
L 765.153889 319.806545 
L 766.454675 319.376187 
L 767.755462 318.054368 
L 769.056248 316.348299 
L 770.357034 314.242618 
L 771.65782 312.905425 
L 772.958606 310.292533 
L 774.259392 308.817016 
L 776.860965 304.044631 
L 779.462537 300.962953 
L 780.763323 298.196351 
L 782.064109 295.060873 
L 784.665682 291.164588 
L 785.966468 288.044483 
L 787.267254 285.785094 
L 789.868826 279.621727 
L 791.169612 277.462246 
L 792.470399 274.626482 
L 793.771185 273.135592 
L 795.071971 270.046222 
L 796.372757 267.287313 
L 798.974329 261.339136 
L 800.275115 258.657058 
L 802.876688 253.777107 
L 804.177474 251.694457 
L 806.779046 245.51574 
L 809.380619 240.681874 
L 810.681405 237.853803 
L 811.982191 235.494504 
L 814.583763 230.084263 
L 815.884549 227.771097 
L 818.486122 221.584664 
L 819.786908 219.486676 
L 823.689266 211.594175 
L 827.591625 203.478825 
L 828.892411 200.950456 
L 830.193197 199.144502 
L 832.794769 194.249142 
L 834.095556 191.259692 
L 837.997914 183.659224 
L 839.2987 181.346057 
L 840.599486 180.101092 
L 841.900273 177.288382 
L 843.201059 175.052047 
L 845.802631 169.557282 
L 847.103417 167.075022 
L 848.404203 165.230628 
L 849.70499 162.37181 
L 854.908134 152.296773 
L 856.20892 150.77516 
L 857.509706 148.57724 
L 858.810493 146.118057 
L 860.111279 144.281332 
L 862.712851 139.270726 
L 864.013637 137.503164 
L 867.915996 130.448347 
L 869.216782 128.680808 
L 870.517568 126.236963 
L 871.818354 125.291724 
L 873.11914 123.232152 
L 874.419927 120.903576 
L 875.720713 119.743159 
L 877.021499 117.952542 
L 880.923857 111.64317 
L 886.127002 104.980296 
L 890.02936 100.576787 
L 891.330147 98.955241 
L 892.630933 97.11854 
L 893.931719 94.943674 
L 897.834077 89.456602 
L 900.43565 87.435446 
L 901.736436 85.829285 
L 903.037222 85.360488 
L 904.338008 85.08384 
L 956.369455 85.08384 
L 956.369455 85.08384 
" clip-path="url(#p4e4e4ef84e)" style="fill: none; stroke: #ff7f0e; stroke-width: 1.5; stroke-linecap: square"/>
   </g>
   <g id="patch_3">
    <path d="M 138.24 488.54592 
L 138.24 65.87136 
" style="fill: none; stroke: #000000; stroke-width: 0.8; stroke-linejoin: miter; stroke-linecap: square"/>
   </g>
   <g id="patch_4">
    <path d="M 995.328 488.54592 
L 995.328 65.87136 
" style="fill: none; stroke: #000000; stroke-width: 0.8; stroke-linejoin: miter; stroke-linecap: square"/>
   </g>
   <g id="patch_5">
    <path d="M 138.24 488.54592 
L 995.328 488.54592 
" style="fill: none; stroke: #000000; stroke-width: 0.8; stroke-linejoin: miter; stroke-linecap: square"/>
   </g>
   <g id="patch_6">
    <path d="M 138.24 65.87136 
L 995.328 65.87136 
" style="fill: none; stroke: #000000; stroke-width: 0.8; stroke-linejoin: miter; stroke-linecap: square"/>
   </g>
  </g>
  <g id="text_16">
   <!-- Result -->
   <g transform="translate(534.421875 20.096685) scale(0.12 -0.12)">
    <defs>
     <path id="DejaVuSans-52" d="M 2841 2188 
Q 3044 2119 3236 1894 
Q 3428 1669 3622 1275 
L 4263 0 
L 3584 0 
L 2988 1197 
Q 2756 1666 2539 1819 
Q 2322 1972 1947 1972 
L 1259 1972 
L 1259 0 
L 628 0 
L 628 4666 
L 2053 4666 
Q 2853 4666 3247 4331 
Q 3641 3997 3641 3322 
Q 3641 2881 3436 2590 
Q 3231 2300 2841 2188 
z
M 1259 4147 
L 1259 2491 
L 2053 2491 
Q 2509 2491 2742 2702 
Q 2975 2913 2975 3322 
Q 2975 3731 2742 3939 
Q 2509 4147 2053 4147 
L 1259 4147 
z
" transform="scale(0.015625)"/>
     <path id="DejaVuSans-6c" d="M 603 4863 
L 1178 4863 
L 1178 0 
L 603 0 
L 603 4863 
z
" transform="scale(0.015625)"/>
    </defs>
    <use xlink:href="#DejaVuSans-52"/>
    <use xlink:href="#DejaVuSans-65" x="64.982422"/>
    <use xlink:href="#DejaVuSans-73" x="126.505859"/>
    <use xlink:href="#DejaVuSans-75" x="178.605469"/>
    <use xlink:href="#DejaVuSans-6c" x="241.984375"/>
    <use xlink:href="#DejaVuSans-74" x="269.767578"/>
   </g>
  </g>
 </g>
 <defs>
  <clipPath id="p4e4e4ef84e">
   <rect x="138.24" y="65.87136" width="857.088" height="422.67456"/>
  </clipPath>
 </defs>
</svg>
