<?xml version="1.0" encoding="utf-8" standalone="no"?>
<!DOCTYPE svg PUBLIC "-//W3C//DTD SVG 1.1//EN"
  "http://www.w3.org/Graphics/SVG/1.1/DTD/svg11.dtd">
<svg xmlns:xlink="http://www.w3.org/1999/xlink" width="1105.92pt" height="548.928pt" viewBox="0 0 1105.92 548.928" xmlns="http://www.w3.org/2000/svg" version="1.1">
 <metadata>
  <rdf:RDF xmlns:dc="http://purl.org/dc/elements/1.1/" xmlns:cc="http://creativecommons.org/ns#" xmlns:rdf="http://www.w3.org/1999/02/22-rdf-syntax-ns#">
   <cc:Work>
    <dc:type rdf:resource="http://purl.org/dc/dcmitype/StillImage"/>
    <dc:date>2024-10-30T03:07:33.268308</dc:date>
    <dc:format>image/svg+xml</dc:format>
    <dc:creator>
     <cc:Agent>
      <dc:title>Matplotlib v3.9.2, https://matplotlib.org/</dc:title>
     </cc:Agent>
    </dc:creator>
   </cc:Work>
  </rdf:RDF>
 </metadata>
 <defs>
  <style type="text/css">*{stroke-linejoin: round; stroke-linecap: butt}</style>
 </defs>
 <g id="figure_1">
  <g id="patch_1">
   <path d="M 0 548.928 
L 1105.92 548.928 
L 1105.92 0 
L 0 0 
z
" style="fill: #ffffff"/>
  </g>
  <g id="axes_1">
   <g id="patch_2">
    <path d="M 138.24 488.54592 
L 995.328 488.54592 
L 995.328 65.87136 
L 138.24 65.87136 
z
" style="fill: #ffffff"/>
   </g>
   <g id="matplotlib.axis_1">
    <g id="xtick_1">
     <g id="line2d_1">
      <defs>
       <path id="md370ba4984" d="M 0 0 
L 0 3.5 
" style="stroke: #000000; stroke-width: 0.8"/>
      </defs>
      <g>
       <use xlink:href="#md370ba4984" x="177.198545" y="488.54592" style="stroke: #000000; stroke-width: 0.8"/>
      </g>
     </g>
     <g id="text_1">
      <!-- 0 -->
      <g transform="translate(174.017295 503.144358) scale(0.1 -0.1)">
       <defs>
        <path id="DejaVuSans-30" d="M 2034 4250 
Q 1547 4250 1301 3770 
Q 1056 3291 1056 2328 
Q 1056 1369 1301 889 
Q 1547 409 2034 409 
Q 2525 409 2770 889 
Q 3016 1369 3016 2328 
Q 3016 3291 2770 3770 
Q 2525 4250 2034 4250 
z
M 2034 4750 
Q 2819 4750 3233 4129 
Q 3647 3509 3647 2328 
Q 3647 1150 3233 529 
Q 2819 -91 2034 -91 
Q 1250 -91 836 529 
Q 422 1150 422 2328 
Q 422 3509 836 4129 
Q 1250 4750 2034 4750 
z
" transform="scale(0.015625)"/>
       </defs>
       <use xlink:href="#DejaVuSans-30"/>
      </g>
     </g>
    </g>
    <g id="xtick_2">
     <g id="line2d_2">
      <g>
       <use xlink:href="#md370ba4984" x="308.539039" y="488.54592" style="stroke: #000000; stroke-width: 0.8"/>
      </g>
     </g>
     <g id="text_2">
      <!-- 20000 -->
      <g transform="translate(292.632789 503.144358) scale(0.1 -0.1)">
       <defs>
        <path id="DejaVuSans-32" d="M 1228 531 
L 3431 531 
L 3431 0 
L 469 0 
L 469 531 
Q 828 903 1448 1529 
Q 2069 2156 2228 2338 
Q 2531 2678 2651 2914 
Q 2772 3150 2772 3378 
Q 2772 3750 2511 3984 
Q 2250 4219 1831 4219 
Q 1534 4219 1204 4116 
Q 875 4013 500 3803 
L 500 4441 
Q 881 4594 1212 4672 
Q 1544 4750 1819 4750 
Q 2544 4750 2975 4387 
Q 3406 4025 3406 3419 
Q 3406 3131 3298 2873 
Q 3191 2616 2906 2266 
Q 2828 2175 2409 1742 
Q 1991 1309 1228 531 
z
" transform="scale(0.015625)"/>
       </defs>
       <use xlink:href="#DejaVuSans-32"/>
       <use xlink:href="#DejaVuSans-30" x="63.623047"/>
       <use xlink:href="#DejaVuSans-30" x="127.246094"/>
       <use xlink:href="#DejaVuSans-30" x="190.869141"/>
       <use xlink:href="#DejaVuSans-30" x="254.492188"/>
      </g>
     </g>
    </g>
    <g id="xtick_3">
     <g id="line2d_3">
      <g>
       <use xlink:href="#md370ba4984" x="439.879532" y="488.54592" style="stroke: #000000; stroke-width: 0.8"/>
      </g>
     </g>
     <g id="text_3">
      <!-- 40000 -->
      <g transform="translate(423.973282 503.144358) scale(0.1 -0.1)">
       <defs>
        <path id="DejaVuSans-34" d="M 2419 4116 
L 825 1625 
L 2419 1625 
L 2419 4116 
z
M 2253 4666 
L 3047 4666 
L 3047 1625 
L 3713 1625 
L 3713 1100 
L 3047 1100 
L 3047 0 
L 2419 0 
L 2419 1100 
L 313 1100 
L 313 1709 
L 2253 4666 
z
" transform="scale(0.015625)"/>
       </defs>
       <use xlink:href="#DejaVuSans-34"/>
       <use xlink:href="#DejaVuSans-30" x="63.623047"/>
       <use xlink:href="#DejaVuSans-30" x="127.246094"/>
       <use xlink:href="#DejaVuSans-30" x="190.869141"/>
       <use xlink:href="#DejaVuSans-30" x="254.492188"/>
      </g>
     </g>
    </g>
    <g id="xtick_4">
     <g id="line2d_4">
      <g>
       <use xlink:href="#md370ba4984" x="571.220025" y="488.54592" style="stroke: #000000; stroke-width: 0.8"/>
      </g>
     </g>
     <g id="text_4">
      <!-- 60000 -->
      <g transform="translate(555.313775 503.144358) scale(0.1 -0.1)">
       <defs>
        <path id="DejaVuSans-36" d="M 2113 2584 
Q 1688 2584 1439 2293 
Q 1191 2003 1191 1497 
Q 1191 994 1439 701 
Q 1688 409 2113 409 
Q 2538 409 2786 701 
Q 3034 994 3034 1497 
Q 3034 2003 2786 2293 
Q 2538 2584 2113 2584 
z
M 3366 4563 
L 3366 3988 
Q 3128 4100 2886 4159 
Q 2644 4219 2406 4219 
Q 1781 4219 1451 3797 
Q 1122 3375 1075 2522 
Q 1259 2794 1537 2939 
Q 1816 3084 2150 3084 
Q 2853 3084 3261 2657 
Q 3669 2231 3669 1497 
Q 3669 778 3244 343 
Q 2819 -91 2113 -91 
Q 1303 -91 875 529 
Q 447 1150 447 2328 
Q 447 3434 972 4092 
Q 1497 4750 2381 4750 
Q 2619 4750 2861 4703 
Q 3103 4656 3366 4563 
z
" transform="scale(0.015625)"/>
       </defs>
       <use xlink:href="#DejaVuSans-36"/>
       <use xlink:href="#DejaVuSans-30" x="63.623047"/>
       <use xlink:href="#DejaVuSans-30" x="127.246094"/>
       <use xlink:href="#DejaVuSans-30" x="190.869141"/>
       <use xlink:href="#DejaVuSans-30" x="254.492188"/>
      </g>
     </g>
    </g>
    <g id="xtick_5">
     <g id="line2d_5">
      <g>
       <use xlink:href="#md370ba4984" x="702.560518" y="488.54592" style="stroke: #000000; stroke-width: 0.8"/>
      </g>
     </g>
     <g id="text_5">
      <!-- 80000 -->
      <g transform="translate(686.654268 503.144358) scale(0.1 -0.1)">
       <defs>
        <path id="DejaVuSans-38" d="M 2034 2216 
Q 1584 2216 1326 1975 
Q 1069 1734 1069 1313 
Q 1069 891 1326 650 
Q 1584 409 2034 409 
Q 2484 409 2743 651 
Q 3003 894 3003 1313 
Q 3003 1734 2745 1975 
Q 2488 2216 2034 2216 
z
M 1403 2484 
Q 997 2584 770 2862 
Q 544 3141 544 3541 
Q 544 4100 942 4425 
Q 1341 4750 2034 4750 
Q 2731 4750 3128 4425 
Q 3525 4100 3525 3541 
Q 3525 3141 3298 2862 
Q 3072 2584 2669 2484 
Q 3125 2378 3379 2068 
Q 3634 1759 3634 1313 
Q 3634 634 3220 271 
Q 2806 -91 2034 -91 
Q 1263 -91 848 271 
Q 434 634 434 1313 
Q 434 1759 690 2068 
Q 947 2378 1403 2484 
z
M 1172 3481 
Q 1172 3119 1398 2916 
Q 1625 2713 2034 2713 
Q 2441 2713 2670 2916 
Q 2900 3119 2900 3481 
Q 2900 3844 2670 4047 
Q 2441 4250 2034 4250 
Q 1625 4250 1398 4047 
Q 1172 3844 1172 3481 
z
" transform="scale(0.015625)"/>
       </defs>
       <use xlink:href="#DejaVuSans-38"/>
       <use xlink:href="#DejaVuSans-30" x="63.623047"/>
       <use xlink:href="#DejaVuSans-30" x="127.246094"/>
       <use xlink:href="#DejaVuSans-30" x="190.869141"/>
       <use xlink:href="#DejaVuSans-30" x="254.492188"/>
      </g>
     </g>
    </g>
    <g id="xtick_6">
     <g id="line2d_6">
      <g>
       <use xlink:href="#md370ba4984" x="833.901012" y="488.54592" style="stroke: #000000; stroke-width: 0.8"/>
      </g>
     </g>
     <g id="text_6">
      <!-- 100000 -->
      <g transform="translate(814.813512 503.144358) scale(0.1 -0.1)">
       <defs>
        <path id="DejaVuSans-31" d="M 794 531 
L 1825 531 
L 1825 4091 
L 703 3866 
L 703 4441 
L 1819 4666 
L 2450 4666 
L 2450 531 
L 3481 531 
L 3481 0 
L 794 0 
L 794 531 
z
" transform="scale(0.015625)"/>
       </defs>
       <use xlink:href="#DejaVuSans-31"/>
       <use xlink:href="#DejaVuSans-30" x="63.623047"/>
       <use xlink:href="#DejaVuSans-30" x="127.246094"/>
       <use xlink:href="#DejaVuSans-30" x="190.869141"/>
       <use xlink:href="#DejaVuSans-30" x="254.492188"/>
       <use xlink:href="#DejaVuSans-30" x="318.115234"/>
      </g>
     </g>
    </g>
    <g id="xtick_7">
     <g id="line2d_7">
      <g>
       <use xlink:href="#md370ba4984" x="965.241505" y="488.54592" style="stroke: #000000; stroke-width: 0.8"/>
      </g>
     </g>
     <g id="text_7">
      <!-- 120000 -->
      <g transform="translate(946.154005 503.144358) scale(0.1 -0.1)">
       <use xlink:href="#DejaVuSans-31"/>
       <use xlink:href="#DejaVuSans-32" x="63.623047"/>
       <use xlink:href="#DejaVuSans-30" x="127.246094"/>
       <use xlink:href="#DejaVuSans-30" x="190.869141"/>
       <use xlink:href="#DejaVuSans-30" x="254.492188"/>
       <use xlink:href="#DejaVuSans-30" x="318.115234"/>
      </g>
     </g>
    </g>
    <g id="text_8">
     <!-- Timestep -->
     <g transform="translate(543.734781 516.822482) scale(0.1 -0.1)">
      <defs>
       <path id="DejaVuSans-54" d="M -19 4666 
L 3928 4666 
L 3928 4134 
L 2272 4134 
L 2272 0 
L 1638 0 
L 1638 4134 
L -19 4134 
L -19 4666 
z
" transform="scale(0.015625)"/>
       <path id="DejaVuSans-69" d="M 603 3500 
L 1178 3500 
L 1178 0 
L 603 0 
L 603 3500 
z
M 603 4863 
L 1178 4863 
L 1178 4134 
L 603 4134 
L 603 4863 
z
" transform="scale(0.015625)"/>
       <path id="DejaVuSans-6d" d="M 3328 2828 
Q 3544 3216 3844 3400 
Q 4144 3584 4550 3584 
Q 5097 3584 5394 3201 
Q 5691 2819 5691 2113 
L 5691 0 
L 5113 0 
L 5113 2094 
Q 5113 2597 4934 2840 
Q 4756 3084 4391 3084 
Q 3944 3084 3684 2787 
Q 3425 2491 3425 1978 
L 3425 0 
L 2847 0 
L 2847 2094 
Q 2847 2600 2669 2842 
Q 2491 3084 2119 3084 
Q 1678 3084 1418 2786 
Q 1159 2488 1159 1978 
L 1159 0 
L 581 0 
L 581 3500 
L 1159 3500 
L 1159 2956 
Q 1356 3278 1631 3431 
Q 1906 3584 2284 3584 
Q 2666 3584 2933 3390 
Q 3200 3197 3328 2828 
z
" transform="scale(0.015625)"/>
       <path id="DejaVuSans-65" d="M 3597 1894 
L 3597 1613 
L 953 1613 
Q 991 1019 1311 708 
Q 1631 397 2203 397 
Q 2534 397 2845 478 
Q 3156 559 3463 722 
L 3463 178 
Q 3153 47 2828 -22 
Q 2503 -91 2169 -91 
Q 1331 -91 842 396 
Q 353 884 353 1716 
Q 353 2575 817 3079 
Q 1281 3584 2069 3584 
Q 2775 3584 3186 3129 
Q 3597 2675 3597 1894 
z
M 3022 2063 
Q 3016 2534 2758 2815 
Q 2500 3097 2075 3097 
Q 1594 3097 1305 2825 
Q 1016 2553 972 2059 
L 3022 2063 
z
" transform="scale(0.015625)"/>
       <path id="DejaVuSans-73" d="M 2834 3397 
L 2834 2853 
Q 2591 2978 2328 3040 
Q 2066 3103 1784 3103 
Q 1356 3103 1142 2972 
Q 928 2841 928 2578 
Q 928 2378 1081 2264 
Q 1234 2150 1697 2047 
L 1894 2003 
Q 2506 1872 2764 1633 
Q 3022 1394 3022 966 
Q 3022 478 2636 193 
Q 2250 -91 1575 -91 
Q 1294 -91 989 -36 
Q 684 19 347 128 
L 347 722 
Q 666 556 975 473 
Q 1284 391 1588 391 
Q 1994 391 2212 530 
Q 2431 669 2431 922 
Q 2431 1156 2273 1281 
Q 2116 1406 1581 1522 
L 1381 1569 
Q 847 1681 609 1914 
Q 372 2147 372 2553 
Q 372 3047 722 3315 
Q 1072 3584 1716 3584 
Q 2034 3584 2315 3537 
Q 2597 3491 2834 3397 
z
" transform="scale(0.015625)"/>
       <path id="DejaVuSans-74" d="M 1172 4494 
L 1172 3500 
L 2356 3500 
L 2356 3053 
L 1172 3053 
L 1172 1153 
Q 1172 725 1289 603 
Q 1406 481 1766 481 
L 2356 481 
L 2356 0 
L 1766 0 
Q 1100 0 847 248 
Q 594 497 594 1153 
L 594 3053 
L 172 3053 
L 172 3500 
L 594 3500 
L 594 4494 
L 1172 4494 
z
" transform="scale(0.015625)"/>
       <path id="DejaVuSans-70" d="M 1159 525 
L 1159 -1331 
L 581 -1331 
L 581 3500 
L 1159 3500 
L 1159 2969 
Q 1341 3281 1617 3432 
Q 1894 3584 2278 3584 
Q 2916 3584 3314 3078 
Q 3713 2572 3713 1747 
Q 3713 922 3314 415 
Q 2916 -91 2278 -91 
Q 1894 -91 1617 61 
Q 1341 213 1159 525 
z
M 3116 1747 
Q 3116 2381 2855 2742 
Q 2594 3103 2138 3103 
Q 1681 3103 1420 2742 
Q 1159 2381 1159 1747 
Q 1159 1113 1420 752 
Q 1681 391 2138 391 
Q 2594 391 2855 752 
Q 3116 1113 3116 1747 
z
" transform="scale(0.015625)"/>
      </defs>
      <use xlink:href="#DejaVuSans-54"/>
      <use xlink:href="#DejaVuSans-69" x="57.958984"/>
      <use xlink:href="#DejaVuSans-6d" x="85.742188"/>
      <use xlink:href="#DejaVuSans-65" x="183.154297"/>
      <use xlink:href="#DejaVuSans-73" x="244.677734"/>
      <use xlink:href="#DejaVuSans-74" x="296.777344"/>
      <use xlink:href="#DejaVuSans-65" x="335.986328"/>
      <use xlink:href="#DejaVuSans-70" x="397.509766"/>
     </g>
    </g>
   </g>
   <g id="matplotlib.axis_2">
    <g id="ytick_1">
     <g id="line2d_8">
      <defs>
       <path id="m3252884e7e" d="M 0 0 
L -3.5 0 
" style="stroke: #000000; stroke-width: 0.8"/>
      </defs>
      <g>
       <use xlink:href="#m3252884e7e" x="138.24" y="469.33344" style="stroke: #000000; stroke-width: 0.8"/>
      </g>
     </g>
     <g id="text_9">
      <!-- 0 -->
      <g transform="translate(124.8775 473.132659) scale(0.1 -0.1)">
       <use xlink:href="#DejaVuSans-30"/>
      </g>
     </g>
    </g>
    <g id="ytick_2">
     <g id="line2d_9">
      <g>
       <use xlink:href="#m3252884e7e" x="138.24" y="392.48352" style="stroke: #000000; stroke-width: 0.8"/>
      </g>
     </g>
     <g id="text_10">
      <!-- 100 -->
      <g transform="translate(112.1525 396.282739) scale(0.1 -0.1)">
       <use xlink:href="#DejaVuSans-31"/>
       <use xlink:href="#DejaVuSans-30" x="63.623047"/>
       <use xlink:href="#DejaVuSans-30" x="127.246094"/>
      </g>
     </g>
    </g>
    <g id="ytick_3">
     <g id="line2d_10">
      <g>
       <use xlink:href="#m3252884e7e" x="138.24" y="315.6336" style="stroke: #000000; stroke-width: 0.8"/>
      </g>
     </g>
     <g id="text_11">
      <!-- 200 -->
      <g transform="translate(112.1525 319.432819) scale(0.1 -0.1)">
       <use xlink:href="#DejaVuSans-32"/>
       <use xlink:href="#DejaVuSans-30" x="63.623047"/>
       <use xlink:href="#DejaVuSans-30" x="127.246094"/>
      </g>
     </g>
    </g>
    <g id="ytick_4">
     <g id="line2d_11">
      <g>
       <use xlink:href="#m3252884e7e" x="138.24" y="238.78368" style="stroke: #000000; stroke-width: 0.8"/>
      </g>
     </g>
     <g id="text_12">
      <!-- 300 -->
      <g transform="translate(112.1525 242.582899) scale(0.1 -0.1)">
       <defs>
        <path id="DejaVuSans-33" d="M 2597 2516 
Q 3050 2419 3304 2112 
Q 3559 1806 3559 1356 
Q 3559 666 3084 287 
Q 2609 -91 1734 -91 
Q 1441 -91 1130 -33 
Q 819 25 488 141 
L 488 750 
Q 750 597 1062 519 
Q 1375 441 1716 441 
Q 2309 441 2620 675 
Q 2931 909 2931 1356 
Q 2931 1769 2642 2001 
Q 2353 2234 1838 2234 
L 1294 2234 
L 1294 2753 
L 1863 2753 
Q 2328 2753 2575 2939 
Q 2822 3125 2822 3475 
Q 2822 3834 2567 4026 
Q 2313 4219 1838 4219 
Q 1578 4219 1281 4162 
Q 984 4106 628 3988 
L 628 4550 
Q 988 4650 1302 4700 
Q 1616 4750 1894 4750 
Q 2613 4750 3031 4423 
Q 3450 4097 3450 3541 
Q 3450 3153 3228 2886 
Q 3006 2619 2597 2516 
z
" transform="scale(0.015625)"/>
       </defs>
       <use xlink:href="#DejaVuSans-33"/>
       <use xlink:href="#DejaVuSans-30" x="63.623047"/>
       <use xlink:href="#DejaVuSans-30" x="127.246094"/>
      </g>
     </g>
    </g>
    <g id="ytick_5">
     <g id="line2d_12">
      <g>
       <use xlink:href="#m3252884e7e" x="138.24" y="161.93376" style="stroke: #000000; stroke-width: 0.8"/>
      </g>
     </g>
     <g id="text_13">
      <!-- 400 -->
      <g transform="translate(112.1525 165.732979) scale(0.1 -0.1)">
       <use xlink:href="#DejaVuSans-34"/>
       <use xlink:href="#DejaVuSans-30" x="63.623047"/>
       <use xlink:href="#DejaVuSans-30" x="127.246094"/>
      </g>
     </g>
    </g>
    <g id="ytick_6">
     <g id="line2d_13">
      <g>
       <use xlink:href="#m3252884e7e" x="138.24" y="85.08384" style="stroke: #000000; stroke-width: 0.8"/>
      </g>
     </g>
     <g id="text_14">
      <!-- 500 -->
      <g transform="translate(112.1525 88.883059) scale(0.1 -0.1)">
       <defs>
        <path id="DejaVuSans-35" d="M 691 4666 
L 3169 4666 
L 3169 4134 
L 1269 4134 
L 1269 2991 
Q 1406 3038 1543 3061 
Q 1681 3084 1819 3084 
Q 2600 3084 3056 2656 
Q 3513 2228 3513 1497 
Q 3513 744 3044 326 
Q 2575 -91 1722 -91 
Q 1428 -91 1123 -41 
Q 819 9 494 109 
L 494 744 
Q 775 591 1075 516 
Q 1375 441 1709 441 
Q 2250 441 2565 725 
Q 2881 1009 2881 1497 
Q 2881 1984 2565 2268 
Q 2250 2553 1709 2553 
Q 1456 2553 1204 2497 
Q 953 2441 691 2322 
L 691 4666 
z
" transform="scale(0.015625)"/>
       </defs>
       <use xlink:href="#DejaVuSans-35"/>
       <use xlink:href="#DejaVuSans-30" x="63.623047"/>
       <use xlink:href="#DejaVuSans-30" x="127.246094"/>
      </g>
     </g>
    </g>
    <g id="text_15">
     <!-- Duration -->
     <g transform="translate(106.072812 298.924265) rotate(-90) scale(0.1 -0.1)">
      <defs>
       <path id="DejaVuSans-44" d="M 1259 4147 
L 1259 519 
L 2022 519 
Q 2988 519 3436 956 
Q 3884 1394 3884 2338 
Q 3884 3275 3436 3711 
Q 2988 4147 2022 4147 
L 1259 4147 
z
M 628 4666 
L 1925 4666 
Q 3281 4666 3915 4102 
Q 4550 3538 4550 2338 
Q 4550 1131 3912 565 
Q 3275 0 1925 0 
L 628 0 
L 628 4666 
z
" transform="scale(0.015625)"/>
       <path id="DejaVuSans-75" d="M 544 1381 
L 544 3500 
L 1119 3500 
L 1119 1403 
Q 1119 906 1312 657 
Q 1506 409 1894 409 
Q 2359 409 2629 706 
Q 2900 1003 2900 1516 
L 2900 3500 
L 3475 3500 
L 3475 0 
L 2900 0 
L 2900 538 
Q 2691 219 2414 64 
Q 2138 -91 1772 -91 
Q 1169 -91 856 284 
Q 544 659 544 1381 
z
M 1991 3584 
L 1991 3584 
z
" transform="scale(0.015625)"/>
       <path id="DejaVuSans-72" d="M 2631 2963 
Q 2534 3019 2420 3045 
Q 2306 3072 2169 3072 
Q 1681 3072 1420 2755 
Q 1159 2438 1159 1844 
L 1159 0 
L 581 0 
L 581 3500 
L 1159 3500 
L 1159 2956 
Q 1341 3275 1631 3429 
Q 1922 3584 2338 3584 
Q 2397 3584 2469 3576 
Q 2541 3569 2628 3553 
L 2631 2963 
z
" transform="scale(0.015625)"/>
       <path id="DejaVuSans-61" d="M 2194 1759 
Q 1497 1759 1228 1600 
Q 959 1441 959 1056 
Q 959 750 1161 570 
Q 1363 391 1709 391 
Q 2188 391 2477 730 
Q 2766 1069 2766 1631 
L 2766 1759 
L 2194 1759 
z
M 3341 1997 
L 3341 0 
L 2766 0 
L 2766 531 
Q 2569 213 2275 61 
Q 1981 -91 1556 -91 
Q 1019 -91 701 211 
Q 384 513 384 1019 
Q 384 1609 779 1909 
Q 1175 2209 1959 2209 
L 2766 2209 
L 2766 2266 
Q 2766 2663 2505 2880 
Q 2244 3097 1772 3097 
Q 1472 3097 1187 3025 
Q 903 2953 641 2809 
L 641 3341 
Q 956 3463 1253 3523 
Q 1550 3584 1831 3584 
Q 2591 3584 2966 3190 
Q 3341 2797 3341 1997 
z
" transform="scale(0.015625)"/>
       <path id="DejaVuSans-6f" d="M 1959 3097 
Q 1497 3097 1228 2736 
Q 959 2375 959 1747 
Q 959 1119 1226 758 
Q 1494 397 1959 397 
Q 2419 397 2687 759 
Q 2956 1122 2956 1747 
Q 2956 2369 2687 2733 
Q 2419 3097 1959 3097 
z
M 1959 3584 
Q 2709 3584 3137 3096 
Q 3566 2609 3566 1747 
Q 3566 888 3137 398 
Q 2709 -91 1959 -91 
Q 1206 -91 779 398 
Q 353 888 353 1747 
Q 353 2609 779 3096 
Q 1206 3584 1959 3584 
z
" transform="scale(0.015625)"/>
       <path id="DejaVuSans-6e" d="M 3513 2113 
L 3513 0 
L 2938 0 
L 2938 2094 
Q 2938 2591 2744 2837 
Q 2550 3084 2163 3084 
Q 1697 3084 1428 2787 
Q 1159 2491 1159 1978 
L 1159 0 
L 581 0 
L 581 3500 
L 1159 3500 
L 1159 2956 
Q 1366 3272 1645 3428 
Q 1925 3584 2291 3584 
Q 2894 3584 3203 3211 
Q 3513 2838 3513 2113 
z
" transform="scale(0.015625)"/>
      </defs>
      <use xlink:href="#DejaVuSans-44"/>
      <use xlink:href="#DejaVuSans-75" x="77.001953"/>
      <use xlink:href="#DejaVuSans-72" x="140.380859"/>
      <use xlink:href="#DejaVuSans-61" x="181.494141"/>
      <use xlink:href="#DejaVuSans-74" x="242.773438"/>
      <use xlink:href="#DejaVuSans-69" x="281.982422"/>
      <use xlink:href="#DejaVuSans-6f" x="309.765625"/>
      <use xlink:href="#DejaVuSans-6e" x="370.947266"/>
     </g>
    </g>
   </g>
   <g id="line2d_14">
    <path d="M 177.198545 459.34295 
L 177.336453 453.194957 
L 177.421824 459.34295 
L 177.572866 451.657958 
L 177.756743 459.34295 
L 177.848681 458.574451 
L 178.124496 437.056474 
L 178.2033 460.11145 
L 178.295239 458.574451 
L 178.400311 457.037453 
L 178.498816 457.805952 
L 178.610456 456.268954 
L 178.761497 451.657958 
L 178.846869 459.34295 
L 179.017611 449.352461 
L 179.168653 461.648448 
L 179.267158 457.805952 
L 179.4182 460.879949 
L 179.588942 458.574451 
L 179.66118 460.879949 
L 179.79252 453.963456 
L 179.864757 460.879949 
L 180.081469 454.731955 
L 180.166841 459.34295 
L 180.258779 458.574451 
L 180.462357 445.509965 
L 180.619965 461.648448 
L 180.876079 450.12096 
L 181.092791 462.416947 
L 181.309503 456.268954 
L 181.38174 460.879949 
L 181.513081 453.963456 
L 181.644421 453.963456 
L 181.795463 461.648448 
L 181.880834 459.34295 
L 181.959638 460.11145 
L 182.150082 463.185446 
L 182.373361 459.34295 
L 182.504701 461.648448 
L 182.636042 461.648448 
L 182.747681 456.268954 
L 182.819919 460.879949 
L 182.924991 457.037453 
L 183.135136 462.416947 
L 183.319012 458.574451 
L 183.404384 459.34295 
L 183.594827 462.416947 
L 183.752436 459.34295 
L 183.818106 461.648448 
L 183.890344 460.879949 
L 183.956014 461.648448 
L 184.028251 460.879949 
L 184.093921 461.648448 
L 184.192427 457.805952 
L 184.258097 461.648448 
L 184.363169 457.037453 
L 184.501077 462.416947 
L 184.684954 457.805952 
L 184.816294 462.416947 
L 184.888531 460.879949 
L 185.006738 455.500454 
L 185.065841 462.416947 
L 185.144645 460.11145 
L 185.22345 460.11145 
L 185.28912 461.648448 
L 185.367924 460.11145 
L 185.42046 463.185446 
L 185.486131 461.648448 
L 185.564935 460.11145 
L 185.689708 462.416947 
L 185.899853 460.11145 
L 185.97209 460.879949 
L 186.050895 460.11145 
L 186.123132 460.879949 
L 186.21507 458.574451 
L 186.300442 459.34295 
L 186.405514 457.037453 
L 186.504019 457.805952 
L 186.655061 460.879949 
L 186.733865 460.11145 
L 186.87834 460.879949 
L 186.950577 460.879949 
L 187.042515 458.574451 
L 187.108186 461.648448 
L 187.206691 457.805952 
L 187.285495 460.11145 
L 187.397135 456.268954 
L 187.482506 459.34295 
L 187.587578 457.037453 
L 187.67295 459.34295 
L 187.771455 457.805952 
L 187.863394 458.574451 
L 187.968466 457.037453 
L 188.145776 459.34295 
L 188.362487 455.500454 
L 188.474127 456.268954 
L 188.572632 457.805952 
L 188.677705 457.037453 
L 188.861581 459.34295 
L 188.986355 454.731955 
L 189.078293 458.574451 
L 189.183365 457.037453 
L 189.321273 453.194957 
L 189.439479 455.500454 
L 189.583954 452.426458 
L 189.689026 457.037453 
L 189.853202 450.12096 
L 189.997677 452.426458 
L 190.194687 457.805952 
L 190.345729 451.657958 
L 190.49677 451.657958 
L 190.641245 452.426458 
L 190.792287 451.657958 
L 190.923627 453.963456 
L 191.146906 443.204467 
L 191.284813 453.194957 
L 191.435855 451.657958 
L 191.586896 451.657958 
L 191.934949 428.602982 
L 192.315836 451.657958 
L 192.480012 450.12096 
L 192.768961 435.519475 
L 193.038209 437.824973 
L 193.806551 419.380992 
L 194.391016 400.937011 
L 194.942646 404.779507 
L 195.566513 396.326016 
L 196.190381 396.326016 
L 196.899619 386.335526 
L 197.438115 406.316506 
L 198.160488 384.798528 
L 198.876294 385.567027 
L 199.697172 373.27104 
L 200.564019 367.891546 
L 201.430866 367.891546 
L 202.094136 391.715021 
L 202.947849 369.428544 
L 203.69649 381.724531 
L 204.681544 354.05856 
L 205.817639 336.383078 
L 207.571035 264.144154 
L 208.70713 336.383078 
L 209.50174 376.345037 
L 210.394855 364.817549 
L 211.104094 386.335526 
L 212.207354 340.225574 
L 213.067634 368.660045 
L 213.934481 367.891546 
L 215.175649 324.087091 
L 216.370848 329.466586 
L 217.625149 322.550093 
L 218.48543 368.660045 
L 220.527774 230.330189 
L 222.268036 394.789018 
L 223.036378 379.419034 
L 223.857256 373.27104 
L 224.619031 380.187533 
L 225.827363 327.929587 
L 226.779582 357.901056 
L 227.482253 387.104026 
L 228.21776 383.26153 
L 228.894164 390.178022 
L 229.577134 389.409523 
L 230.384878 374.808038 
L 231.080983 387.872525 
L 231.757386 390.178022 
L 232.486326 384.030029 
L 233.175864 388.641024 
L 233.885102 386.335526 
L 234.758517 367.123046 
L 235.513724 380.956032 
L 236.255798 382.49303 
L 236.925635 390.946522 
L 237.483832 404.011008 
L 238.271875 377.113536 
L 238.85634 400.937011 
L 239.447372 400.168512 
L 240.038404 400.168512 
L 240.675406 394.789018 
L 241.48315 374.808038 
L 242.271193 377.113536 
L 242.809689 406.316506 
L 243.394154 400.937011 
L 243.958918 403.242509 
L 244.648456 388.641024 
L 245.357694 386.335526 
L 245.889623 407.085005 
L 246.467522 401.70551 
L 247.032286 403.242509 
L 247.688988 392.48352 
L 248.286587 399.400013 
L 248.772547 412.464499 
L 249.363579 400.168512 
L 249.994014 395.557517 
L 250.499675 410.159002 
L 251.025037 407.853504 
L 251.576667 404.779507 
L 252.102029 407.853504 
L 252.706195 398.631514 
L 253.238124 407.085005 
L 253.743785 410.159002 
L 254.577797 371.734042 
L 255.280469 387.104026 
L 256.101347 373.27104 
L 256.639843 406.316506 
L 257.467288 372.502541 
L 258.183094 385.567027 
L 259.003972 373.27104 
L 259.883953 366.354547 
L 260.61946 383.26153 
L 261.775256 334.077581 
L 262.622402 370.197043 
L 263.364476 382.49303 
L 264.454602 341.762573 
L 265.498759 347.142067 
L 267.186484 377.882035 
L 268.217507 348.679066 
L 269.064653 370.197043 
L 269.846129 377.882035 
L 270.640739 376.345037 
L 271.45505 374.039539 
L 273.024569 285.662131 
L 274.114695 341.762573 
L 274.935573 373.27104 
L 275.795854 368.660045 
L 276.662701 367.891546 
L 277.700291 347.910566 
L 278.554004 369.428544 
L 279.466821 362.512051 
L 280.602916 336.383078 
L 281.640506 347.910566 
L 282.704364 344.83657 
L 283.663149 357.132557 
L 285.324607 274.903142 
L 286.250557 360.975053 
L 287.426054 331.772083 
L 288.404541 354.827059 
L 289.284522 366.354547 
L 290.243308 357.132557 
L 291.182393 359.438054 
L 292.036106 369.428544 
L 293.08683 346.373568 
L 293.960244 367.123046 
L 294.886194 360.975053 
L 296.041991 334.077581 
L 297.066447 349.447565 
L 298.071201 351.753062 
L 298.944616 367.123046 
L 299.975639 348.679066 
L 300.711145 383.26153 
L 301.735601 349.447565 
L 302.81916 342.531072 
L 303.784513 356.364058 
L 304.769567 354.05856 
L 305.682383 362.512051 
L 306.680571 352.521562 
L 307.265036 400.937011 
L 308.571874 390.178022 
L 309.438721 367.891546 
L 310.443476 351.753062 
L 310.975405 407.085005 
L 311.927623 357.901056 
L 312.472686 405.548006 
L 313.45774 354.05856 
L 314.173546 385.567027 
L 315.585456 304.106112 
L 316.892294 413.232998 
L 317.417656 407.853504 
L 318.428978 350.984563 
L 319.348361 361.743552 
L 320.287446 359.438054 
L 321.33817 346.373568 
L 321.942336 398.631514 
L 322.500533 404.011008 
L 323.643195 335.614579 
L 324.168557 407.853504 
L 324.707053 406.316506 
L 325.265251 404.011008 
L 326.381645 338.688576 
L 326.801934 420.149491 
L 327.419235 397.094515 
L 327.89206 414.001498 
L 329.034723 335.614579 
L 329.52725 411.696 
L 330.111715 400.937011 
L 330.551705 417.843994 
L 331.6681 338.688576 
L 332.889566 326.392589 
L 333.493732 398.631514 
L 333.992826 410.927501 
L 335.069818 343.299571 
L 335.726521 392.48352 
L 336.895451 332.540582 
L 338.162887 321.013094 
L 339.298982 336.383078 
L 340.139561 370.965542 
L 341.374162 324.85559 
L 341.938926 403.242509 
L 342.50369 403.242509 
L 342.98965 412.464499 
L 344.289921 317.170598 
L 344.946623 392.48352 
L 345.498253 404.779507 
L 346.03675 406.316506 
L 346.634349 399.400013 
L 347.231948 399.400013 
L 348.578188 311.791104 
L 349.779954 328.698086 
L 350.476058 387.872525 
L 351.014554 406.316506 
L 351.539916 407.853504 
L 352.774517 324.85559 
L 354.133891 310.254106 
L 354.724923 400.168512 
L 355.664008 359.438054 
L 356.307576 394.020518 
L 357.075918 379.419034 
L 357.726053 393.252019 
L 359.512284 260.301658 
L 360.792854 319.476096 
L 362.001186 327.929587 
L 364.010696 234.172685 
L 365.934834 244.163174 
L 366.854218 361.743552 
L 367.458384 398.631514 
L 369.021336 286.43063 
L 370.695927 273.366144 
L 371.313227 397.094515 
L 372.666035 311.022605 
L 373.296469 395.557517 
L 373.966305 390.946522 
L 375.404484 301.032115 
L 376.264764 368.660045 
L 378.274274 234.172685 
L 378.917842 394.020518 
L 379.843792 360.975053 
L 380.500495 392.48352 
L 381.32794 372.502541 
L 382.319561 353.290061 
L 383.53446 327.161088 
L 384.716525 331.003584 
L 386.220373 293.347123 
L 386.89021 390.946522 
L 387.50751 397.094515 
L 388.72241 327.161088 
L 389.943876 326.392589 
L 390.810724 367.891546 
L 392.078159 321.013094 
L 392.964708 365.586048 
L 394.021999 345.605069 
L 395.328837 316.402099 
L 395.946137 397.094515 
L 396.609406 391.715021 
L 398.100121 294.884122 
L 399.177113 343.299571 
L 400.168734 353.290061 
L 401.206324 347.910566 
L 402.11914 362.512051 
L 403.123895 351.753062 
L 404.122083 352.521562 
L 405.245044 337.920077 
L 406.985305 265.681152 
L 408.246174 321.781594 
L 409.369135 337.920077 
L 410.098075 384.030029 
L 411.1685 344.06807 
L 412.33743 332.540582 
L 413.453825 338.688576 
L 414.760663 316.402099 
L 416.980317 209.58071 
L 417.860298 366.354547 
L 419.232806 308.717107 
L 420.066819 371.734042 
L 421.104408 347.910566 
L 422.266772 333.309082 
L 423.974198 269.523648 
L 424.814777 370.965542 
L 425.950873 336.383078 
L 427.211741 321.781594 
L 428.387239 331.772083 
L 429.339457 357.901056 
L 431.322699 237.246682 
L 432.728042 304.874611 
L 433.910107 331.003584 
L 435.6241 268.755149 
L 436.806164 331.003584 
L 437.909425 340.225574 
L 439.682521 261.838656 
L 440.969658 318.707597 
L 442.394702 302.569114 
L 443.50453 339.457075 
L 445.277626 261.838656 
L 446.472825 329.466586 
L 448.948593 179.609242 
L 450.472143 291.041626 
L 451.765847 317.939098 
L 454.057738 201.127219 
L 455.811134 264.144154 
L 457.295281 295.652621 
L 458.917336 279.514138 
L 460.270143 311.022605 
L 462.102343 254.922163 
L 463.901708 258.764659 
L 465.760176 251.848166 
L 467.710582 241.089178 
L 469.766061 228.79319 
L 471.683632 244.931674 
L 473.798214 221.876698 
L 477.410078 268.755149 
L 478.835122 302.569114 
L 480.549116 268.755149 
L 482.276243 267.21815 
L 483.996804 267.98665 
L 486.393768 188.831232 
L 488.836701 183.451738 
L 490.747705 245.700173 
L 493.630629 131.962291 
L 496.677728 112.749811 
L 499.961241 85.08384 
L 956.369455 85.08384 
L 956.369455 85.08384 
" clip-path="url(#p6eab0738a3)" style="fill: none; stroke: #1f77b4; stroke-width: 1.5; stroke-linecap: square"/>
   </g>
   <g id="line2d_15">
    <path d="M 177.198545 469.33344 
L 185.821049 469.33344 
L 185.899853 459.050921 
L 185.97209 459.066291 
L 186.300442 459.23536 
L 186.504019 459.20462 
L 186.655061 459.442855 
L 186.950577 459.5735 
L 187.285495 459.75794 
L 187.67295 459.673405 
L 188.244281 459.63498 
L 189.321273 459.63498 
L 189.853202 459.419801 
L 190.49677 459.250731 
L 191.586896 458.551396 
L 192.480012 457.813637 
L 193.379694 457.098933 
L 196.899619 453.540782 
L 200.564019 449.65986 
L 232.486326 415.28489 
L 235.513724 412.157098 
L 242.271193 405.217552 
L 245.889623 401.659402 
L 250.499675 397.202105 
L 253.743785 394.251071 
L 256.101347 391.976308 
L 266.405008 382.18563 
L 267.186484 381.540093 
L 269.064653 379.711061 
L 271.45505 377.966571 
L 273.024569 376.629384 
L 274.114695 376.037636 
L 278.554004 374.408421 
L 279.466821 374.185556 
L 280.602916 373.693717 
L 282.704364 373.209559 
L 283.663149 373.101969 
L 285.324607 371.933853 
L 286.250557 371.849318 
L 287.426054 371.349792 
L 288.404541 371.357479 
L 289.284522 371.657193 
L 290.243308 372.587076 
L 291.182393 372.817628 
L 293.08683 372.564022 
L 293.960244 372.371897 
L 294.886194 372.57939 
L 296.041991 372.233567 
L 297.066447 372.049129 
L 298.071201 372.325783 
L 298.944616 372.702352 
L 300.711145 373.109656 
L 301.735601 374.300826 
L 302.81916 374.323886 
L 303.784513 373.939636 
L 304.769567 373.68603 
L 305.682383 373.578441 
L 306.680571 373.301781 
L 307.265036 374.031853 
L 307.89547 374.408421 
L 308.571874 374.439156 
L 309.438721 374.285459 
L 310.443476 373.901209 
L 310.975405 374.077967 
L 311.927623 373.908896 
L 312.472686 374.085647 
L 313.45774 373.724452 
L 314.173546 373.739825 
L 315.585456 372.894477 
L 316.412901 372.756147 
L 316.892294 373.217245 
L 317.417656 373.486219 
L 319.348361 372.879104 
L 320.287446 372.433379 
L 321.33817 372.125978 
L 322.500533 372.141345 
L 323.643195 371.495809 
L 324.168557 371.626452 
L 325.265251 372.210513 
L 326.381645 371.53423 
L 326.801934 371.726355 
L 327.419235 371.664879 
L 327.89206 371.91848 
L 329.034723 371.411273 
L 330.551705 371.595712 
L 331.6681 371.057764 
L 332.889566 370.327687 
L 333.493732 370.189362 
L 333.992826 370.296952 
L 335.069818 369.774366 
L 335.726521 369.597615 
L 339.298982 367.292117 
L 340.139561 367.015457 
L 341.374162 366.193157 
L 341.938926 366.123995 
L 342.98965 366.692689 
L 344.289921 366.131688 
L 344.946623 365.993352 
L 346.03675 366.523618 
L 347.231948 367.115366 
L 348.578188 366.400655 
L 349.779954 366.346866 
L 351.014554 366.761851 
L 351.539916 367.422761 
L 352.774517 367.199901 
L 354.133891 366.669635 
L 354.724923 366.892494 
L 355.664008 367.000084 
L 356.307576 367.238317 
L 357.075918 367.25369 
L 357.726053 367.422761 
L 359.512284 366.285385 
L 360.792854 366.623527 
L 362.001186 366.485191 
L 365.934834 363.849244 
L 366.854218 363.787763 
L 367.458384 364.294975 
L 370.695927 362.573533 
L 371.313227 363.180642 
L 372.666035 362.811765 
L 373.296469 363.318978 
L 373.966305 363.657119 
L 376.264764 363.995249 
L 378.274274 363.019263 
L 378.917842 363.411194 
L 379.843792 363.357405 
L 380.500495 363.710908 
L 381.32794 363.841552 
L 383.53446 363.488048 
L 384.716525 363.126853 
L 386.220373 362.45057 
L 387.50751 363.495729 
L 388.72241 363.249816 
L 389.943876 362.8425 
L 390.810724 363.034625 
L 392.078159 362.412143 
L 392.964708 362.573533 
L 394.021999 362.604267 
L 395.328837 362.204656 
L 395.946137 362.635014 
L 396.609406 362.927036 
L 398.100121 362.350661 
L 400.168734 361.351622 
L 401.206324 360.928945 
L 403.123895 360.875144 
L 404.122083 360.329516 
L 405.245044 360.129699 
L 406.985305 358.731037 
L 408.246174 358.408268 
L 409.369135 357.931791 
L 410.098075 358.731037 
L 411.1685 358.446696 
L 413.453825 356.948113 
L 414.760663 356.60229 
L 416.980317 355.080665 
L 417.860298 355.149827 
L 420.066819 354.504291 
L 421.104408 353.94329 
L 422.266772 353.920236 
L 423.974198 352.536935 
L 424.814777 352.18342 
L 425.950873 351.507137 
L 427.211741 351.338078 
L 428.387239 350.454297 
L 429.339457 350.062367 
L 431.322699 348.294816 
L 432.728042 347.987421 
L 433.910107 347.180495 
L 436.806164 344.990267 
L 437.909425 345.00564 
L 439.682521 344.360104 
L 440.969658 343.560858 
L 442.394702 342.477271 
L 443.50453 342.438856 
L 445.277626 341.132398 
L 446.472825 341.101663 
L 448.948593 339.687627 
L 450.472143 339.234216 
L 451.765847 338.703949 
L 454.057738 337.466665 
L 458.917336 333.670277 
L 460.270143 333.608796 
L 463.901708 330.773032 
L 469.766061 325.939177 
L 471.683632 325.270575 
L 473.798214 324.202361 
L 478.835122 320.367558 
L 480.549116 319.806545 
L 482.276243 319.376187 
L 490.747705 312.905425 
L 493.630629 310.292533 
L 496.677728 308.817016 
L 503.244753 304.044631 
L 509.811778 300.962953 
L 513.09529 298.196351 
L 516.378802 295.060873 
L 519.662315 293.047409 
L 522.945827 291.164588 
L 526.229339 288.044483 
L 529.512852 285.785094 
L 536.079876 279.621727 
L 539.363389 277.462246 
L 542.646901 274.626482 
L 545.930413 273.135592 
L 549.213926 270.046222 
L 552.497438 267.287313 
L 555.78095 264.213316 
L 559.064463 261.339136 
L 562.347975 258.657058 
L 568.915 253.777107 
L 572.198512 251.694457 
L 578.765536 245.51574 
L 585.332561 240.681874 
L 588.616073 237.853803 
L 591.899586 235.494504 
L 595.183098 232.689487 
L 598.46661 230.084263 
L 601.750123 227.771097 
L 608.317147 221.584664 
L 611.60066 219.486676 
L 618.167684 214.222452 
L 621.451197 211.594175 
L 628.018221 206.153211 
L 631.301734 203.478825 
L 634.585246 200.950456 
L 637.868758 199.144502 
L 641.152271 196.777511 
L 644.435783 194.249142 
L 647.719295 191.259692 
L 654.28632 186.195285 
L 657.569832 183.659224 
L 660.853345 181.346057 
L 664.136857 180.101092 
L 667.420369 177.288382 
L 670.703882 175.052047 
L 673.987394 172.185537 
L 677.270906 169.557282 
L 680.554419 167.075022 
L 683.837931 165.230628 
L 687.121443 162.37181 
L 690.404956 159.858803 
L 696.97198 155.02496 
L 700.255493 152.296773 
L 703.539005 150.77516 
L 706.822517 148.57724 
L 710.10603 146.118057 
L 713.389542 144.281332 
L 719.956567 139.270726 
L 723.240079 137.503164 
L 726.523591 135.166943 
L 729.807104 132.992077 
L 733.090616 130.448347 
L 736.374128 128.680808 
L 739.657641 126.236963 
L 742.941153 125.291724 
L 746.224665 123.232152 
L 749.508178 120.903576 
L 752.79169 119.743159 
L 756.075202 117.952542 
L 759.358715 115.846862 
L 762.642227 113.90256 
L 765.925739 111.64317 
L 775.776276 106.540348 
L 785.626813 101.944714 
L 788.910326 100.576787 
L 792.193838 98.955241 
L 795.47735 97.11854 
L 798.760863 94.943674 
L 808.6114 89.456602 
L 815.178424 87.435446 
L 818.461937 85.829285 
L 821.745449 85.360488 
L 825.028961 85.08384 
L 956.369455 85.08384 
L 956.369455 85.08384 
" clip-path="url(#p6eab0738a3)" style="fill: none; stroke: #ff7f0e; stroke-width: 1.5; stroke-linecap: square"/>
   </g>
   <g id="patch_3">
    <path d="M 138.24 488.54592 
L 138.24 65.87136 
" style="fill: none; stroke: #000000; stroke-width: 0.8; stroke-linejoin: miter; stroke-linecap: square"/>
   </g>
   <g id="patch_4">
    <path d="M 995.328 488.54592 
L 995.328 65.87136 
" style="fill: none; stroke: #000000; stroke-width: 0.8; stroke-linejoin: miter; stroke-linecap: square"/>
   </g>
   <g id="patch_5">
    <path d="M 138.24 488.54592 
L 995.328 488.54592 
" style="fill: none; stroke: #000000; stroke-width: 0.8; stroke-linejoin: miter; stroke-linecap: square"/>
   </g>
   <g id="patch_6">
    <path d="M 138.24 65.87136 
L 995.328 65.87136 
" style="fill: none; stroke: #000000; stroke-width: 0.8; stroke-linejoin: miter; stroke-linecap: square"/>
   </g>
  </g>
  <g id="text_16">
   <!-- Result -->
   <g transform="translate(534.421875 20.096685) scale(0.12 -0.12)">
    <defs>
     <path id="DejaVuSans-52" d="M 2841 2188 
Q 3044 2119 3236 1894 
Q 3428 1669 3622 1275 
L 4263 0 
L 3584 0 
L 2988 1197 
Q 2756 1666 2539 1819 
Q 2322 1972 1947 1972 
L 1259 1972 
L 1259 0 
L 628 0 
L 628 4666 
L 2053 4666 
Q 2853 4666 3247 4331 
Q 3641 3997 3641 3322 
Q 3641 2881 3436 2590 
Q 3231 2300 2841 2188 
z
M 1259 4147 
L 1259 2491 
L 2053 2491 
Q 2509 2491 2742 2702 
Q 2975 2913 2975 3322 
Q 2975 3731 2742 3939 
Q 2509 4147 2053 4147 
L 1259 4147 
z
" transform="scale(0.015625)"/>
     <path id="DejaVuSans-6c" d="M 603 4863 
L 1178 4863 
L 1178 0 
L 603 0 
L 603 4863 
z
" transform="scale(0.015625)"/>
    </defs>
    <use xlink:href="#DejaVuSans-52"/>
    <use xlink:href="#DejaVuSans-65" x="64.982422"/>
    <use xlink:href="#DejaVuSans-73" x="126.505859"/>
    <use xlink:href="#DejaVuSans-75" x="178.605469"/>
    <use xlink:href="#DejaVuSans-6c" x="241.984375"/>
    <use xlink:href="#DejaVuSans-74" x="269.767578"/>
   </g>
  </g>
 </g>
 <defs>
  <clipPath id="p6eab0738a3">
   <rect x="138.24" y="65.87136" width="857.088" height="422.67456"/>
  </clipPath>
 </defs>
</svg>
